<?xml version="1.0" encoding="utf-8"?>
<!-- Generator: Adobe Illustrator 16.0.0, SVG Export Plug-In . SVG Version: 6.00 Build 0)  -->
<!DOCTYPE svg PUBLIC "-//W3C//DTD SVG 1.1//EN" "http://www.w3.org/Graphics/SVG/1.1/DTD/svg11.dtd">
<svg version="1.1" id="glessware" xmlns="http://www.w3.org/2000/svg" xmlns:xlink="http://www.w3.org/1999/xlink" x="0px" y="0px"
	 width="36px" height="62px" viewBox="0 0 36 62" enable-background="new 0 0 36 62" xml:space="preserve">
<path fill="#595757" d="M21.924,42.618c8.443-1.3,15.943-7.507,13.502-19.214c-2.174-10.445-6.684-12.548-5.289-23.235H18.23h-0.672
	H5.652c1.396,10.687-3.115,12.79-5.29,23.235c-2.439,11.708,5.06,17.915,13.501,19.214c0.928,0.142,3.777,7.898-1.332,15.462
	c-0.029,0.043-0.053,0.084-0.074,0.124c-4.975,0.611-8.445,1.89-8.445,2.769c0,1.157,6.006,1.195,13.547,1.196l0,0
	c0.111,0,0.223,0,0.336,0c0.111,0,0.225,0,0.336,0l0,0c7.54-0.001,13.545-0.039,13.545-1.196c0-0.879-3.469-2.157-8.443-2.769
	c-0.02-0.04-0.045-0.081-0.074-0.124C18.148,50.517,21,42.76,21.924,42.618z"/>
</svg>
