<?xml version="1.0" encoding="utf-8"?>
<!-- Generator: Adobe Illustrator 16.0.0, SVG Export Plug-In . SVG Version: 6.00 Build 0)  -->
<!DOCTYPE svg PUBLIC "-//W3C//DTD SVG 1.1//EN" "http://www.w3.org/Graphics/SVG/1.1/DTD/svg11.dtd">
<svg version="1.1" id="Capa_1" xmlns="http://www.w3.org/2000/svg" xmlns:xlink="http://www.w3.org/1999/xlink" x="0px" y="0px"
	 width="600px" height="400px" viewBox="0 0 600 400" enable-background="new 0 0 600 400" xml:space="preserve">
<g>
	<g>
		<path fill="#FFFFFF" d="M474.13,221.742c-1.3-3.115-4.332-5.148-7.697-5.148h-91.286V8.33c0-4.598-3.732-8.33-8.331-8.33H233.526
			c-4.598,0-8.331,3.732-8.331,8.33v208.265H133.56c-3.365,0-6.398,2.033-7.698,5.132c-1.283,3.115-0.583,6.697,1.799,9.08
			l166.195,166.744c1.566,1.566,3.682,2.449,5.898,2.449c2.216,0,4.332-0.883,5.898-2.433L472.33,230.823
			C474.713,228.44,475.43,224.859,474.13,221.742z"/>
	</g>
</g>
</svg>
