<?xml version="1.0" encoding="utf-8"?>
<!-- Generator: Adobe Illustrator 16.0.0, SVG Export Plug-In . SVG Version: 6.00 Build 0)  -->
<!DOCTYPE svg PUBLIC "-//W3C//DTD SVG 1.1//EN" "http://www.w3.org/Graphics/SVG/1.1/DTD/svg11.dtd">
<svg version="1.1" xmlns="http://www.w3.org/2000/svg" xmlns:xlink="http://www.w3.org/1999/xlink" x="0px" y="0px" width="230px"
	 height="230px" viewBox="0 0 230 230" enable-background="new 0 0 230 230" xml:space="preserve">
<g id="圖層_2">
</g>
<g id="圖層_1">
</g>
<g id="LOGO">
	<g>
		<path d="M54.745,195.634c0.085,0.061,0.188,0.093,0.292,0.093c0.027,0,0.055-0.002,0.082-0.006
			c0.131-0.021,0.249-0.094,0.326-0.201l1.933-2.677l0.695,0.494c0.487,0.346,0.986,0.59,1.481,0.725
			c0.502,0.139,0.995,0.177,1.471,0.115c0.476-0.063,0.927-0.225,1.34-0.479c0.409-0.252,0.77-0.592,1.073-1.011
			c0.297-0.411,0.503-0.837,0.61-1.268c0.107-0.443,0.11-0.882,0.011-1.302c-0.094-0.416-0.29-0.824-0.582-1.214
			c-0.28-0.374-0.655-0.728-1.113-1.052l-2.061-1.462c-0.108-0.077-0.243-0.11-0.373-0.086c-0.131,0.021-0.249,0.094-0.326,0.201
			l-5.716,7.914c-0.161,0.223-0.109,0.533,0.116,0.692L54.745,195.634z M61.161,189.235c0.554,0.394,0.884,0.791,0.982,1.182
			c0.091,0.366-0.018,0.758-0.335,1.195c-0.333,0.462-0.709,0.709-1.15,0.757c-0.458,0.056-0.981-0.134-1.562-0.545l-0.651-0.461
			l1.936-2.681L61.161,189.235z"/>
		<path d="M69.849,199.267c0.373-0.005,0.731-0.068,1.064-0.189c0.333-0.122,0.645-0.306,0.924-0.547
			c0.277-0.239,0.517-0.536,0.713-0.886c0.247-0.441,0.382-0.883,0.399-1.313c0.021-0.427-0.048-0.839-0.208-1.225
			c-0.154-0.371-0.378-0.712-0.667-1.015c-0.279-0.296-0.607-0.549-0.977-0.754l-2.47-1.364c-0.243-0.134-0.547-0.048-0.682,0.192
			l-4.783,8.5c-0.135,0.239-0.049,0.541,0.193,0.675l0.797,0.44c0.116,0.064,0.252,0.081,0.381,0.044
			c0.128-0.037,0.236-0.121,0.3-0.236l1.837-3.265l0.507,0.28c0.139,0.077,0.253,0.16,0.341,0.249
			c0.079,0.079,0.141,0.17,0.188,0.28c0.054,0.124,0.093,0.278,0.115,0.458c0.025,0.207,0.035,0.451,0.026,0.737l-0.077,3.149
			c-0.004,0.184,0.094,0.355,0.257,0.445l0.933,0.516c0.076,0.042,0.16,0.063,0.244,0.063c0.087,0,0.174-0.022,0.251-0.067
			c0.153-0.088,0.248-0.25,0.25-0.424l0.038-3.423c0.005-0.244,0.002-0.464-0.008-0.663c-0.011-0.211-0.034-0.405-0.067-0.58
			c-0.005-0.026-0.011-0.053-0.016-0.079c0.063,0.003,0.127,0.005,0.191,0.005C69.848,199.267,69.848,199.267,69.849,199.267z
			 M69.252,197.538c-0.232-0.041-0.468-0.127-0.702-0.256l-0.986-0.545l1.402-2.493l1.052,0.581
			c0.494,0.272,0.804,0.583,0.924,0.924c0.114,0.322,0.069,0.656-0.138,1.024c-0.12,0.212-0.262,0.383-0.421,0.505
			c-0.163,0.124-0.332,0.207-0.519,0.25C69.672,197.572,69.466,197.574,69.252,197.538z"/>
		<path d="M81.591,200.271c0.253,0.105,0.548-0.012,0.656-0.265l0.326-0.764c0.052-0.121,0.053-0.258,0.003-0.38
			c-0.05-0.123-0.147-0.219-0.27-0.271l-4.414-1.841c-0.253-0.104-0.548,0.013-0.656,0.265l-3.811,8.969
			c-0.107,0.253,0.012,0.544,0.268,0.651l4.613,1.925c0.063,0.026,0.129,0.039,0.194,0.039c0.195,0,0.381-0.113,0.461-0.303
			l0.322-0.756c0.052-0.121,0.053-0.258,0.002-0.38s-0.147-0.219-0.27-0.271l-3.313-1.382l1.06-2.494l2.845,1.188
			c0.123,0.052,0.261,0.052,0.383,0.002c0.124-0.049,0.221-0.146,0.273-0.267l0.319-0.75c0.107-0.253-0.012-0.544-0.267-0.65
			l-2.846-1.188l1.009-2.375L81.591,200.271z"/>
		<path d="M91.738,212.575c0.065,0.114,0.175,0.198,0.303,0.233l0.866,0.234c0.044,0.012,0.088,0.018,0.132,0.018
			c0.22,0,0.422-0.145,0.483-0.366l2.591-9.387c0.035-0.127,0.018-0.263-0.048-0.377c-0.065-0.114-0.175-0.198-0.303-0.233
			l-0.984-0.267c-0.188-0.049-0.392,0.013-0.517,0.161l-5.1,6.072l-1.248-7.791c-0.031-0.193-0.172-0.35-0.362-0.401l-1.038-0.281
			c-0.265-0.071-0.542,0.083-0.616,0.348l-2.592,9.387c-0.035,0.127-0.018,0.263,0.048,0.377s0.175,0.198,0.303,0.232l0.859,0.233
			c0.264,0.07,0.542-0.083,0.615-0.348l1.539-5.575l1.07,6.496c0.032,0.192,0.173,0.348,0.363,0.399l0.376,0.102
			c0.189,0.051,0.392-0.013,0.517-0.162l4.23-5.051l-1.538,5.569C91.655,212.325,91.672,212.461,91.738,212.575z"/>
		<path d="M100.581,203.47c-0.13-0.02-0.266,0.012-0.373,0.09c-0.107,0.077-0.179,0.194-0.2,0.324l-1.506,9.616
			c-0.043,0.271,0.145,0.525,0.418,0.567l0.9,0.139c0.025,0.004,0.051,0.006,0.077,0.006c0.105,0,0.209-0.033,0.295-0.096
			c0.108-0.078,0.179-0.194,0.2-0.324l1.507-9.617c0.042-0.271-0.145-0.525-0.418-0.567L100.581,203.47z"/>
		<path d="M107.668,204.835c0.008-0.132-0.038-0.261-0.126-0.359c-0.088-0.098-0.213-0.158-0.345-0.165l-0.909-0.05
			c-0.281-0.044-0.513,0.194-0.528,0.467l-0.337,5.962c-0.081,1.425,0.187,2.543,0.797,3.323c0.626,0.802,1.6,1.244,2.892,1.315
			c0.123,0.007,0.243,0.011,0.359,0.011c1.717,0,3.807-0.755,4.01-4.349l0.33-5.814c0.008-0.132-0.038-0.261-0.126-0.358
			c-0.089-0.098-0.213-0.158-0.346-0.165l-0.911-0.05c-0.271-0.043-0.513,0.194-0.528,0.467l-0.337,5.976
			c-0.126,2.228-1.216,2.485-2.024,2.485c-0.063,0-0.128-0.001-0.194-0.005c-0.755-0.042-1.274-0.271-1.586-0.7
			c-0.333-0.456-0.475-1.165-0.422-2.109L107.668,204.835z"/>
		<path d="M123.485,214.966l0.389-0.035c0.195-0.018,0.363-0.147,0.428-0.331l2.185-6.194l0.521,5.749
			c0.012,0.131,0.076,0.252,0.178,0.336c0.102,0.084,0.235,0.122,0.366,0.114l0.893-0.081c0.275-0.025,0.478-0.266,0.454-0.539
			l-0.876-9.692c-0.025-0.273-0.268-0.473-0.543-0.45l-1.017,0.09c-0.196,0.018-0.363,0.146-0.428,0.33l-2.642,7.454l-3.913-6.87
			c-0.097-0.168-0.282-0.261-0.48-0.25l-1.072,0.094c-0.132,0.011-0.255,0.075-0.34,0.176c-0.085,0.101-0.126,0.231-0.114,0.363
			l0.877,9.694c0.012,0.131,0.076,0.252,0.178,0.336c0.09,0.075,0.204,0.115,0.321,0.115c0.015,0,0.03-0.001,0.045-0.002l0.887-0.08
			c0.275-0.025,0.479-0.266,0.454-0.539l-0.521-5.759l3.292,5.721C123.102,214.886,123.281,214.979,123.485,214.966z"/>
		<path d="M144.928,203.5c0.003-0.306-0.042-0.62-0.137-0.936c-0.115-0.382-0.296-0.717-0.539-1
			c-0.248-0.287-0.548-0.509-0.892-0.661c-0.337-0.148-0.713-0.23-1.119-0.244c-0.006,0-0.106-0.002-0.111-0.002
			c-0.361,0-0.748,0.06-1.15,0.177l-2.572,0.761c-0.265,0.079-0.416,0.355-0.336,0.618l2.807,9.324
			c0.064,0.216,0.264,0.355,0.48,0.355c0.047,0,0.095-0.007,0.143-0.021l2.632-0.777c0.486-0.144,0.918-0.354,1.286-0.625
			c0.371-0.273,0.671-0.599,0.895-0.966c0.225-0.373,0.366-0.783,0.418-1.218c0.055-0.436,0.013-0.889-0.126-1.351
			c-0.111-0.369-0.277-0.698-0.493-0.976c-0.216-0.282-0.478-0.513-0.778-0.688c-0.254-0.147-0.537-0.253-0.842-0.315
			c0.115-0.178,0.207-0.367,0.276-0.564C144.871,204.108,144.923,203.81,144.928,203.5z M142.333,209.735l-0.813-2.704l0.846-0.25
			c1.335-0.396,2.097-0.203,2.378,0.733c0.137,0.455,0.107,0.826-0.089,1.134c-0.209,0.328-0.606,0.58-1.18,0.748L142.333,209.735z
			 M143.022,203.87c-0.022,0.176-0.081,0.335-0.177,0.484c-0.102,0.155-0.242,0.293-0.419,0.414
			c-0.189,0.129-0.42,0.235-0.687,0.313l-0.742,0.219l-0.709-2.359l0.937-0.277c0.973-0.289,1.509-0.136,1.737,0.619
			C143.025,203.494,143.045,203.691,143.022,203.87z"/>
		<path d="M151.627,208.057c0.081,0.19,0.267,0.304,0.462,0.304c0.065,0,0.131-0.013,0.195-0.039l4.613-1.927
			c0.254-0.106,0.374-0.397,0.267-0.649l-0.321-0.757c-0.051-0.122-0.149-0.218-0.272-0.268c-0.124-0.049-0.262-0.05-0.384,0.002
			l-3.313,1.384l-1.061-2.492l2.846-1.19c0.122-0.051,0.22-0.149,0.27-0.271c0.05-0.122,0.049-0.259-0.003-0.38l-0.321-0.75
			c-0.108-0.252-0.401-0.368-0.656-0.264l-2.845,1.189l-1.01-2.374l3.109-1.299c0.255-0.106,0.375-0.397,0.267-0.649l-0.324-0.763
			c-0.051-0.122-0.15-0.218-0.273-0.268c-0.124-0.049-0.261-0.05-0.384,0.002l-4.412,1.843c-0.122,0.051-0.219,0.148-0.27,0.271
			c-0.05,0.122-0.049,0.259,0.002,0.38L151.627,208.057z"/>
		<path d="M161.488,204.02c0.046,0.012,0.093,0.019,0.139,0.019c0.083,0,0.167-0.021,0.242-0.062l4.384-2.396
			c0.243-0.132,0.331-0.434,0.197-0.674l-0.4-0.719c-0.064-0.115-0.172-0.201-0.299-0.238c-0.128-0.035-0.265-0.02-0.381,0.043
			l-3.149,1.72l-1.318-2.37l2.704-1.477c0.116-0.063,0.202-0.17,0.24-0.297c0.037-0.126,0.021-0.262-0.043-0.377l-0.397-0.714
			c-0.134-0.24-0.439-0.33-0.681-0.195l-2.704,1.477l-1.255-2.256l2.956-1.615c0.117-0.063,0.203-0.17,0.24-0.297
			c0.037-0.126,0.021-0.263-0.043-0.377l-0.404-0.725c-0.133-0.242-0.439-0.33-0.68-0.195l-4.192,2.29
			c-0.117,0.063-0.203,0.17-0.24,0.297c-0.037,0.126-0.021,0.262,0.042,0.377l4.742,8.523
			C161.252,203.897,161.36,203.982,161.488,204.02z"/>
		<path d="M170.53,193.85c0.089-0.031,0.177-0.047,0.334-0.045c0.138,0.006,0.295,0.038,0.466,0.095
			c0.201,0.067,0.427,0.166,0.683,0.295l2.83,1.435c0.166,0.083,0.365,0.072,0.517-0.036l0.874-0.61
			c0.145-0.101,0.225-0.27,0.211-0.444s-0.119-0.33-0.277-0.407l-3.096-1.518c-0.221-0.11-0.423-0.203-0.605-0.277
			c-0.196-0.083-0.385-0.147-0.558-0.193c-0.026-0.007-0.053-0.014-0.08-0.021c0.03-0.055,0.059-0.111,0.085-0.167
			c0.16-0.335,0.258-0.684,0.29-1.031c0.036-0.348,0.004-0.707-0.095-1.068c-0.096-0.348-0.264-0.691-0.499-1.021
			c-0.292-0.41-0.635-0.721-1.021-0.927c-0.383-0.204-0.788-0.32-1.205-0.344c-0.404-0.027-0.813,0.029-1.211,0.155
			c-0.392,0.121-0.765,0.305-1.108,0.546l-2.312,1.615c-0.226,0.157-0.28,0.467-0.121,0.691l5.657,7.955
			c0.097,0.137,0.252,0.21,0.41,0.21c0.1,0,0.2-0.029,0.289-0.09l0.744-0.52c0.109-0.077,0.183-0.192,0.205-0.322
			c0.022-0.129-0.007-0.263-0.084-0.37l-2.173-3.056l0.475-0.332C170.283,193.959,170.41,193.892,170.53,193.85z M168.625,192.897
			l-1.66-2.333l0.985-0.688c0.461-0.322,0.871-0.467,1.24-0.425c0.341,0.038,0.626,0.224,0.872,0.568
			c0.142,0.199,0.235,0.399,0.277,0.598c0.042,0.195,0.043,0.381,0.002,0.568c-0.042,0.192-0.126,0.373-0.256,0.553
			c-0.134,0.185-0.315,0.359-0.538,0.515L168.625,192.897z"/>
		<path d="M36.095,73.11c0.257,0,0.507-0.131,0.647-0.365l1.597-2.677c0.307-0.515,0.512-1.043,0.61-1.57
			c0.101-0.538,0.098-1.065-0.009-1.566c-0.108-0.509-0.321-0.985-0.633-1.415c-0.312-0.425-0.72-0.79-1.216-1.082
			c-0.4-0.235-0.818-0.39-1.238-0.461c-0.43-0.077-0.847-0.066-1.263,0.022c-0.273,0.06-0.538,0.155-0.792,0.285
			c-0.043-0.167-0.1-0.329-0.17-0.486c-0.147-0.332-0.348-0.639-0.597-0.913c-0.248-0.273-0.548-0.514-0.89-0.714
			c-0.418-0.246-0.858-0.397-1.308-0.449c-0.46-0.052-0.91-0.006-1.34,0.14c-0.419,0.141-0.82,0.372-1.191,0.69
			c-0.359,0.307-0.681,0.698-0.956,1.16l-1.562,2.618c-0.102,0.171-0.131,0.374-0.082,0.564c0.05,0.191,0.174,0.356,0.346,0.456
			l9.663,5.658C35.833,73.077,35.965,73.11,36.095,73.11z M36.147,68.972l-0.602,1.008l-2.494-1.46l0.422-0.707
			c0.375-0.629,0.96-1.378,1.613-1.378c0.215,0,0.455,0.076,0.711,0.226c0.424,0.249,0.662,0.542,0.729,0.899
			C36.6,67.951,36.472,68.427,36.147,68.972z M31.645,65.351c0.033,0.184,0.025,0.379-0.024,0.596
			c-0.055,0.236-0.159,0.486-0.312,0.742l-0.358,0.6l-2.136-1.25l0.478-0.801c0.552-0.926,1.018-1.156,1.696-0.755
			c0.195,0.114,0.349,0.248,0.458,0.399C31.548,65.023,31.614,65.176,31.645,65.351z"/>
		<path d="M42.438,63.24c0.224,0,0.446-0.099,0.594-0.288l3.509-4.479c0.122-0.156,0.177-0.354,0.152-0.549
			s-0.127-0.375-0.285-0.496l-0.749-0.575c-0.327-0.251-0.8-0.193-1.054,0.132l-2.41,3.075l-2.183-1.678l2.054-2.624
			c0.122-0.156,0.177-0.354,0.152-0.55s-0.128-0.374-0.285-0.495l-0.742-0.57c-0.328-0.252-0.799-0.193-1.054,0.132l-2.054,2.623
			l-2.065-1.588l2.256-2.879c0.254-0.325,0.195-0.792-0.133-1.044l-0.754-0.581c-0.158-0.122-0.356-0.175-0.555-0.151
			c-0.198,0.024-0.377,0.126-0.5,0.282l-3.355,4.283c-0.123,0.156-0.177,0.354-0.152,0.55s0.127,0.374,0.285,0.495l8.868,6.82
			C42.115,63.189,42.277,63.24,42.438,63.24z"/>
		<path d="M54.191,50.13c-0.001-0.197-0.082-0.386-0.223-0.525l-0.673-0.66c-0.295-0.288-0.77-0.287-1.063,0.005l-2.767,2.765
			l-1.962-1.926l2.358-2.358c0.292-0.292,0.29-0.764-0.004-1.053l-0.667-0.655c-0.141-0.139-0.331-0.216-0.529-0.216
			c-0.001,0-0.002,0-0.003,0c-0.199,0.001-0.39,0.081-0.53,0.22l-2.358,2.358l-1.857-1.825l2.59-2.588
			c0.292-0.292,0.29-0.763-0.004-1.053l-0.678-0.667c-0.141-0.139-0.331-0.216-0.529-0.216c-0.18-0.031-0.393,0.081-0.534,0.22
			l-3.852,3.851c-0.292,0.293-0.29,0.764,0.005,1.053l7.972,7.831c0.14,0.139,0.331,0.216,0.529,0.216c0.001,0,0.002,0,0.003,0
			c0.199-0.001,0.39-0.081,0.53-0.22l4.028-4.027C54.113,50.518,54.192,50.328,54.191,50.13z"/>
		<path d="M58.799,38.295c0.02-0.426-0.041-0.854-0.179-1.273c-0.138-0.414-0.357-0.815-0.654-1.192
			c-0.373-0.474-0.804-0.829-1.282-1.054c-0.471-0.223-0.965-0.338-1.505-0.343c-0.469,0-0.941,0.085-1.403,0.254
			c-0.459,0.169-0.89,0.408-1.282,0.712l-2.549,1.971c-0.157,0.122-0.259,0.3-0.283,0.496c-0.024,0.196,0.03,0.394,0.153,0.549
			l6.905,8.768c0.148,0.189,0.369,0.287,0.593,0.287c0.161,0,0.324-0.052,0.461-0.157l0.821-0.634
			c0.157-0.122,0.259-0.3,0.284-0.496s-0.03-0.394-0.153-0.549l-2.542-3.229l0.383-0.295c0.129-0.1,0.254-0.174,0.373-0.221
			c0.096-0.038,0.2-0.057,0.326-0.059c0.133,0,0.293,0.026,0.479,0.079c0.213,0.059,0.471,0.156,0.767,0.288l3.312,1.483
			c0.255,0.116,0.552,0.08,0.771-0.091l0.963-0.744c0.209-0.162,0.317-0.42,0.284-0.681s-0.202-0.485-0.445-0.589l-3.622-1.565
			c-0.261-0.113-0.5-0.211-0.72-0.29c-0.19-0.068-0.371-0.122-0.542-0.164c0-0.002,0.001-0.004,0.002-0.006
			C58.682,39.139,58.779,38.717,58.799,38.295z M56.33,38.663c-0.033,0.195-0.11,0.384-0.234,0.576
			c-0.134,0.206-0.316,0.4-0.544,0.574l-0.876,0.678l-1.806-2.294l0.943-0.73c0.446-0.343,0.851-0.518,1.202-0.518l0.068,0.002
			c0.217,0.014,0.545,0.084,0.898,0.532c0.158,0.201,0.265,0.403,0.318,0.6C56.352,38.284,56.362,38.474,56.33,38.663z"/>
		<path d="M69.578,24.961c-0.189-0.062-0.397-0.043-0.574,0.046l-0.926,0.473c-0.369,0.189-0.514,0.637-0.324,1.002l5.129,9.892
			c0.091,0.176,0.249,0.309,0.438,0.369c0.075,0.024,0.152,0.036,0.229,0.036c0.119,0,0.237-0.028,0.344-0.083l0.925-0.472
			c0.369-0.188,0.514-0.637,0.324-1.002l-5.129-9.893C69.926,25.154,69.768,25.021,69.578,24.961z"/>
		<path d="M79.715,33.788c0.088,0,0.177-0.016,0.263-0.047l2.632-0.976c0.944-0.349,1.756-0.813,2.416-1.38
			c0.67-0.577,1.188-1.244,1.538-1.981c0.352-0.741,0.535-1.552,0.544-2.409c0.009-0.842-0.157-1.72-0.492-2.606
			c-0.705-1.864-1.789-3.11-3.223-3.702c-1.414-0.586-3.137-0.516-5.114,0.218l-2.764,1.026c-0.389,0.145-0.585,0.573-0.44,0.958
			l3.936,10.416C79.125,33.604,79.411,33.788,79.715,33.788z M80.799,30.846l-2.743-7.258l1.019-0.377
			c0.761-0.282,1.451-0.425,2.052-0.425c0.905,0,2.208,0.263,3.066,2.533c0.238,0.63,0.359,1.222,0.36,1.76
			c0,0.514-0.102,0.986-0.305,1.402c-0.206,0.423-0.518,0.806-0.927,1.14c-0.431,0.351-0.974,0.649-1.615,0.887L80.799,30.846z"/>
		<path d="M96.572,17.992c0.106-0.167,0.143-0.37,0.099-0.563l-0.208-0.924c-0.091-0.4-0.491-0.652-0.897-0.564l-5.34,1.181
			c-0.404,0.09-0.66,0.487-0.569,0.889l2.445,10.855c0.078,0.347,0.388,0.583,0.732,0.583c0.054,0,0.109-0.006,0.164-0.018
			l5.585-1.234c0.405-0.09,0.66-0.487,0.57-0.889l-0.206-0.917c-0.043-0.193-0.162-0.36-0.33-0.466
			c-0.168-0.105-0.371-0.139-0.567-0.099l-3.835,0.848l-0.602-2.672l3.27-0.723c0.405-0.09,0.66-0.488,0.569-0.889l-0.204-0.909
			c-0.043-0.193-0.163-0.36-0.331-0.466c-0.169-0.106-0.372-0.14-0.567-0.099l-3.27,0.723l-0.569-2.528l3.59-0.793
			C96.296,18.276,96.465,18.159,96.572,17.992z"/>
		<path d="M103.703,14.711l-1.147,0.09c-0.414,0.033-0.722,0.392-0.689,0.801l0.881,11.086c0.031,0.391,0.36,0.687,0.748,0.687
			c0.02,0,0.04-0.001,0.06-0.002l1.038-0.081c0.199-0.016,0.383-0.109,0.513-0.259c0.129-0.15,0.193-0.345,0.178-0.542l-0.564-7.115
			l5.858,7.126c0.155,0.189,0.396,0.284,0.64,0.272l1.077-0.082c0.199-0.016,0.384-0.109,0.513-0.259
			c0.13-0.15,0.194-0.345,0.178-0.542l-0.881-11.088c-0.033-0.411-0.404-0.702-0.808-0.685L110.25,14.2
			c-0.199,0.016-0.383,0.108-0.513,0.259c-0.129,0.15-0.193,0.345-0.177,0.542l0.559,7.035l-5.774-7.051
			C104.19,14.794,103.949,14.7,103.703,14.711z"/>
		<path d="M120.097,26.894l1.04,0.065c0.016,0.001,0.032,0.002,0.047,0.002c0.183,0,0.36-0.066,0.497-0.187
			c0.15-0.131,0.241-0.315,0.253-0.512l0.59-9.414l2.485,0.152c0.444,0.028,0.771-0.287,0.796-0.698l0.059-0.942
			c0.025-0.41-0.289-0.763-0.703-0.789l-7.5-0.463c-0.19-0.014-0.394,0.056-0.544,0.186c-0.149,0.131-0.24,0.315-0.252,0.512
			l-0.059,0.943c-0.012,0.198,0.055,0.392,0.187,0.539c0.131,0.148,0.317,0.238,0.517,0.251l2.476,0.152l-0.591,9.413
			C119.369,26.515,119.683,26.869,120.097,26.894z"/>
		<path d="M130.03,28.004c0.041,0.007,0.082,0.01,0.122,0.01c0.362,0,0.68-0.259,0.741-0.625l1.817-10.976
			c0.067-0.405-0.21-0.788-0.619-0.855l-1.027-0.168c-0.195-0.032-0.399,0.016-0.561,0.13c-0.162,0.116-0.271,0.29-0.304,0.485
			l-1.817,10.977c-0.032,0.195,0.015,0.395,0.132,0.555c0.116,0.161,0.292,0.269,0.489,0.301L130.03,28.004z"/>
		<path d="M137.792,29.67l1.005,0.27c0.064,0.018,0.13,0.026,0.196,0.026c0.13,0,0.259-0.034,0.374-0.099
			c0.173-0.098,0.299-0.261,0.351-0.452l2.485-9.104l2.403,0.643c0.192,0.052,0.397,0.025,0.57-0.073
			c0.172-0.099,0.299-0.261,0.351-0.452l0.249-0.913c0.108-0.396-0.128-0.806-0.529-0.913l-7.253-1.944
			c-0.4-0.114-0.813,0.127-0.922,0.524l-0.25,0.913c-0.052,0.191-0.025,0.395,0.074,0.565c0.1,0.171,0.263,0.296,0.456,0.348
			l2.396,0.643l-2.485,9.105C137.155,29.155,137.392,29.564,137.792,29.67z"/>
		<path d="M148.211,32.854c0.076,0.182,0.222,0.328,0.406,0.403l0.961,0.396c0.094,0.039,0.192,0.057,0.288,0.057
			c0.294,0,0.574-0.172,0.694-0.458l1.543-3.676l5.937-4.915c0.202-0.167,0.3-0.426,0.261-0.684
			c-0.04-0.257-0.212-0.475-0.455-0.575l-1.026-0.423c-0.262-0.109-0.56-0.062-0.775,0.12l-3.93,3.308l-0.312-5.043
			c-0.018-0.284-0.197-0.532-0.461-0.642l-1.091-0.45c-0.24-0.1-0.516-0.068-0.727,0.082c-0.212,0.151-0.33,0.399-0.311,0.656
			l0.535,7.612l-1.537,3.661C148.135,32.466,148.135,32.671,148.211,32.854z"/>
		<path d="M167.764,36.343c0.363-0.514,0.775-0.941,1.224-1.271c0.435-0.317,0.896-0.537,1.368-0.656
			c0.465-0.113,0.949-0.124,1.439-0.028c0.499,0.097,1.008,0.325,1.513,0.676c0.646,0.449,1.161,1.02,1.531,1.698
			c0.124,0.227,0.357,0.375,0.617,0.39c0.259,0.021,0.51-0.105,0.66-0.316l0.639-0.902c0.178-0.251,0.182-0.585,0.01-0.841
			c-0.497-0.738-1.182-1.414-2.038-2.009c-0.792-0.549-1.622-0.913-2.468-1.08c-0.85-0.167-1.693-0.16-2.501,0.022
			c-0.808,0.18-1.578,0.524-2.291,1.022c-0.704,0.493-1.333,1.126-1.87,1.883c-0.513,0.724-0.88,1.484-1.091,2.261
			c-0.216,0.787-0.273,1.571-0.172,2.329c0.103,0.763,0.369,1.496,0.792,2.176c0.42,0.68,1.005,1.282,1.737,1.792
			c0.997,0.693,2.033,1.136,3.081,1.317c0.043,0.007,0.087,0.011,0.129,0.011c0.242,0,0.473-0.116,0.615-0.317l0.585-0.826
			c0.152-0.216,0.178-0.495,0.068-0.736c-0.11-0.239-0.34-0.404-0.604-0.432c-0.799-0.083-1.596-0.399-2.37-0.938
			c-0.484-0.337-0.848-0.714-1.082-1.121c-0.239-0.415-0.374-0.833-0.412-1.278c-0.038-0.452,0.018-0.92,0.167-1.393
			C167.195,37.283,167.439,36.801,167.764,36.343z"/>
		<path d="M178.638,53.164l0.844,0.786c0.141,0.131,0.325,0.202,0.515,0.202c0.052,0,0.105-0.006,0.158-0.017
			c0.241-0.051,0.442-0.217,0.536-0.443l4.592-10.987c0.12-0.286,0.048-0.616-0.179-0.827l-0.764-0.712
			c-0.228-0.212-0.564-0.264-0.844-0.128l-10.802,5.203c-0.222,0.107-0.376,0.316-0.414,0.558c-0.038,0.242,0.048,0.486,0.228,0.655
			l0.844,0.786c0.229,0.214,0.571,0.263,0.854,0.121l2.682-1.343l2.743,2.555l-1.17,2.76
			C178.338,52.619,178.41,52.95,178.638,53.164z M181.77,44.583l-1.122,2.607l-1.429-1.331L181.77,44.583z"/>
		<path d="M184.165,58.214l3.221-2.566l0.303,0.372c0.103,0.128,0.18,0.251,0.23,0.37c0.04,0.093,0.061,0.196,0.063,0.309
			c0.003,0.138-0.021,0.3-0.07,0.485c-0.059,0.217-0.153,0.475-0.282,0.767l-1.447,3.303c-0.111,0.254-0.071,0.548,0.104,0.763
			l0.765,0.943c0.144,0.177,0.36,0.278,0.586,0.278c0.035,0,0.07-0.002,0.105-0.008c0.262-0.036,0.486-0.207,0.588-0.45l1.523-3.609
			c0.113-0.26,0.206-0.499,0.283-0.717c0.066-0.189,0.118-0.37,0.158-0.541c0.002,0,0.003,0.001,0.005,0.002
			c0.417,0.162,0.843,0.251,1.267,0.265c0.009,0,0.11,0.002,0.119,0.002c0.391,0,0.783-0.067,1.164-0.198
			c0.416-0.141,0.818-0.366,1.194-0.666c0.47-0.375,0.822-0.807,1.045-1.287c0.216-0.468,0.326-0.959,0.325-1.46
			c-0.003-0.478-0.096-0.956-0.278-1.421c-0.177-0.453-0.424-0.876-0.736-1.26l-2.026-2.497c-0.125-0.154-0.306-0.253-0.504-0.274
			c-0.202-0.021-0.397,0.037-0.552,0.161l-8.747,6.971c-0.323,0.257-0.375,0.726-0.115,1.046l0.653,0.805
			c0.125,0.154,0.306,0.252,0.504,0.274C183.809,58.398,184.01,58.339,184.165,58.214z M191.165,55.739
			c-0.196-0.03-0.393-0.105-0.588-0.226c-0.206-0.126-0.403-0.305-0.585-0.528l-0.697-0.86l2.288-1.821l0.75,0.924
			c0.376,0.463,0.558,0.884,0.54,1.251c-0.011,0.214-0.076,0.541-0.523,0.897c-0.201,0.16-0.405,0.269-0.602,0.324
			C191.546,55.754,191.349,55.768,191.165,55.739z"/>
		<path d="M200.624,60.3c-0.102-0.169-0.267-0.292-0.46-0.342c-0.193-0.049-0.399-0.021-0.569,0.081l-9.664,5.657
			c-0.171,0.1-0.296,0.264-0.346,0.456c-0.049,0.191-0.021,0.394,0.081,0.564l1.43,2.398c0.514,0.861,1.117,1.572,1.794,2.116
			c0.691,0.554,1.443,0.942,2.235,1.154c0.48,0.13,0.979,0.196,1.482,0.196c0.331,0,0.669-0.029,1.008-0.084
			c0.84-0.14,1.682-0.454,2.503-0.936c1.729-1.011,2.777-2.287,3.117-3.792c0.335-1.486-0.039-3.152-1.111-4.949L200.624,60.3z
			 M199.42,63.069l0.553,0.928c0.708,1.188,0.967,2.231,0.768,3.098c-0.196,0.851-0.859,1.613-1.971,2.264
			c-0.584,0.342-1.152,0.564-1.685,0.658c-0.214,0.038-0.426,0.057-0.629,0.057c-0.281,0-0.556-0.037-0.817-0.109
			c-0.456-0.127-0.891-0.365-1.294-0.707c-0.423-0.357-0.814-0.835-1.164-1.42l-0.494-0.827L199.42,63.069z"/>
		<path d="M227.997,128.418h-42.46c-1.106,0-2.003,0.889-2.003,1.985s0.897,1.986,2.003,1.986h40.141
			c-8.504,53.543-55.68,93.64-110.677,93.64S12.827,185.933,4.323,132.389h40.141c1.106,0,2.003-0.889,2.003-1.986
			s-0.897-1.985-2.003-1.985H2.004c-0.579,0-1.129,0.248-1.51,0.68c-0.38,0.432-0.554,1.006-0.476,1.574
			c3.755,27.3,17.378,52.408,38.36,70.701C59.553,219.833,86.765,230,115,230s55.447-10.167,76.622-28.627
			c20.981-18.292,34.604-43.4,38.36-70.701c0.078-0.568-0.095-1.142-0.476-1.574C229.125,128.666,228.575,128.418,227.997,128.418z"
			/>
		<path d="M2.004,101.582h42.46c1.106,0,2.003-0.889,2.003-1.985c0-1.097-0.897-1.986-2.003-1.986H4.323
			C12.827,44.067,60.002,3.971,115,3.971c54.997,0,102.173,40.096,110.677,93.64h-40.141c-1.106,0-2.003,0.889-2.003,1.986
			c0,1.096,0.897,1.985,2.003,1.985h42.46c0.579,0,1.129-0.248,1.51-0.68c0.38-0.432,0.554-1.006,0.476-1.574
			c-3.755-27.3-17.379-52.409-38.36-70.701C170.447,10.167,143.235,0,115,0S59.553,10.167,38.378,28.627
			c-20.981,18.292-34.604,43.4-38.36,70.701c-0.078,0.568,0.095,1.142,0.476,1.574C0.875,101.334,1.425,101.582,2.004,101.582z"/>
		<path d="M9.704,112.525l-1.654,1.639c-0.282,0.278-0.281,0.73,0,1.008l1.654,1.64c0.281,0.278,0.737,0.278,1.018,0l1.654-1.64
			c0.282-0.279,0.282-0.73,0-1.008l-1.654-1.639C10.441,112.247,9.985,112.247,9.704,112.525z"/>
		<path d="M20.892,112.525l-1.655,1.639c-0.281,0.278-0.281,0.73,0,1.008l1.655,1.64c0.281,0.278,0.737,0.278,1.019,0l1.653-1.64
			c0.282-0.279,0.282-0.73,0-1.008l-1.653-1.639C21.629,112.247,21.173,112.247,20.892,112.525z"/>
		<path d="M32.08,112.525l-1.654,1.639c-0.281,0.278-0.281,0.73,0,1.008l1.654,1.64c0.281,0.278,0.737,0.278,1.019,0l1.654-1.64
			c0.281-0.279,0.281-0.73,0-1.008l-1.654-1.639C32.817,112.247,32.361,112.247,32.08,112.525z"/>
		<path d="M196.902,112.525l-1.655,1.639c-0.281,0.278-0.281,0.73,0,1.008l1.655,1.64c0.281,0.278,0.737,0.278,1.018,0l1.654-1.64
			c0.281-0.279,0.281-0.73,0-1.008l-1.654-1.639C197.639,112.247,197.183,112.247,196.902,112.525z"/>
		<path d="M208.089,112.525l-1.653,1.639c-0.282,0.278-0.282,0.73,0,1.008l1.653,1.64c0.282,0.278,0.738,0.278,1.02,0l1.654-1.64
			c0.282-0.279,0.282-0.73,0-1.008l-1.654-1.639C208.827,112.247,208.371,112.247,208.089,112.525z"/>
		<path d="M219.278,112.525l-1.654,1.639c-0.281,0.278-0.28,0.73,0,1.008l1.654,1.64c0.281,0.278,0.737,0.278,1.019,0l1.653-1.64
			c0.282-0.279,0.282-0.73,0-1.008l-1.653-1.639C220.015,112.247,219.559,112.247,219.278,112.525z"/>
		<path d="M24.439,140.69c-0.266,0.078-0.418,0.353-0.341,0.615c4.623,15.711,13.401,30.033,25.386,41.42
			c0.098,0.092,0.222,0.138,0.347,0.138c0.131,0,0.263-0.051,0.361-0.153c0.192-0.198,0.185-0.512-0.015-0.702
			c-11.859-11.266-20.544-25.437-25.118-40.979C24.983,140.765,24.708,140.616,24.439,140.69z"/>
		<path d="M180.169,182.863c0.125,0,0.25-0.045,0.347-0.138c11.985-11.387,20.763-25.709,25.385-41.42
			c0.077-0.263-0.075-0.538-0.341-0.615c-0.269-0.074-0.544,0.075-0.621,0.338c-4.574,15.543-13.259,29.714-25.117,40.979
			c-0.2,0.19-0.207,0.504-0.015,0.702C179.906,182.812,180.038,182.863,180.169,182.863z"/>
		<path d="M202.004,79.222c-0.256,0.104-0.379,0.394-0.274,0.647c1.164,2.818,2.198,5.727,3.072,8.643
			c0.065,0.215,0.265,0.355,0.48,0.355c0.047,0,0.095-0.007,0.143-0.021c0.265-0.079,0.417-0.354,0.337-0.618
			c-0.885-2.948-1.929-5.887-3.105-8.736C202.552,79.24,202.259,79.116,202.004,79.222z"/>
		<path d="M27.344,79.493c-1.177,2.849-2.222,5.788-3.105,8.736c-0.079,0.263,0.072,0.539,0.337,0.618
			c0.048,0.014,0.096,0.021,0.143,0.021c0.216,0,0.416-0.14,0.48-0.355c0.874-2.917,1.908-5.825,3.072-8.643
			c0.105-0.254-0.018-0.544-0.274-0.647C27.744,79.119,27.449,79.239,27.344,79.493z"/>
		<g>
			<path d="M167.957,115.479c-0.382-0.082-0.751,0.16-0.833,0.535c-0.04,0.196-4.286,19.661-14.475,36.24
				c-0.202,0.328-0.096,0.756,0.236,0.958c0.049,0.029,0.1,0.052,0.156,0.069c0.301,0.092,0.639-0.024,0.809-0.304
				c10.308-16.779,14.605-36.477,14.647-36.674C168.576,115.929,168.329,115.558,167.957,115.479z"/>
			<path d="M165.761,102.801c0.135,0.081,3.3,1.982,2.438,6.811c-0.062,0.349,0.149,0.684,0.482,0.787
				c0.028,0.009,0.057,0.016,0.084,0.02c0.383,0.068,0.748-0.184,0.814-0.562c1.04-5.822-2.949-8.162-3.118-8.259
				c-0.334-0.185-0.761-0.075-0.955,0.255C165.315,102.183,165.427,102.608,165.761,102.801z"/>
			<path d="M125.762,126.577c0.737,0.229,1.526-0.179,1.757-0.914l8.729-27.776c0.228-0.734-0.183-1.512-0.924-1.743
				c-0.738-0.225-1.528,0.183-1.757,0.917l-8.729,27.776C124.607,125.569,125.022,126.35,125.762,126.577z"/>
			<path d="M119.792,163.506l14.55-46.299c0.23-0.733-0.184-1.512-0.924-1.741c-0.74-0.229-1.527,0.18-1.758,0.913l-14.575,46.37
				c-0.014,0.05-0.027,0.102-0.035,0.151c-0.03,0.157-0.794,3.837-5.396,3.554c-5.656-0.347-11.042-1.871-11.095-1.887
				c-0.744-0.213-1.523,0.213-1.737,0.952c-0.213,0.728,0.204,1.489,0.93,1.712c0.007,0.003,0.019,0.006,0.028,0.008
				c0.231,0.065,5.726,1.624,11.699,1.991C117.044,169.571,119.332,165.684,119.792,163.506z"/>
			<path d="M114.354,162.876c0.739,0.227,1.526-0.181,1.755-0.917l8.104-25.784c0.23-0.732-0.184-1.513-0.922-1.741
				c-0.739-0.228-1.528,0.181-1.758,0.914l-8.102,25.786C113.198,161.866,113.613,162.647,114.354,162.876z"/>
			<path d="M116.214,121.932c-0.368-0.114-0.764,0.091-0.88,0.457l-8.901,28.33c-0.116,0.369,0.09,0.757,0.459,0.872
				c0.372,0.115,0.765-0.09,0.879-0.458l8.909-28.33C116.793,122.437,116.585,122.048,116.214,121.932z"/>
			<path d="M145.618,105.417c-0.738-0.23-1.123,0.224-1.354,0.958l-17.76,56.509c-0.708,2.255-3.322,4.642-7.342,4.445
				c-0.776-0.038-1.437,0.553-1.474,1.319c-0.031,0.648,0.385,1.213,0.983,1.396c0.11,0.035,0.228,0.057,0.349,0.062
				c4.474,0.219,7.84-2.207,9.237-6.654l17.763-56.51C146.249,106.208,146.362,105.647,145.618,105.417z"/>
			<path d="M87.756,164c0.859,0.267,1.728,0.503,2.553,0.732c0.708,0.193,1.38,0.376,1.967,0.558c3.07,0.947,6.11-1.242,7.392-5.328
				l17.714-56.364c0.23-0.733-0.183-1.512-0.921-1.742c-0.74-0.228-1.529,0.182-1.76,0.915l-17.715,56.365
				c-0.788,2.521-2.384,3.958-3.874,3.498c-0.616-0.19-1.314-0.384-2.054-0.583c-1.895-0.521-4.05-1.11-5.551-1.902
				c-1.469-0.768-2.9-2.552-2.115-5.047l13.168-41.905c0.232-0.731-0.183-1.512-0.922-1.74c-0.74-0.229-1.528,0.18-1.758,0.915
				l-13.17,41.904c-1.211,3.857,0.876,6.963,3.483,8.334C85.247,163.162,86.493,163.61,87.756,164z"/>
			<path d="M95.167,124.906l-8.487,27.001c-0.229,0.733,0.185,1.515,0.925,1.742c0.738,0.228,1.526-0.182,1.756-0.914l8.485-27.001
				c0.231-0.734-0.182-1.514-0.923-1.743C96.185,123.764,95.397,124.173,95.167,124.906z"/>
			<path d="M96.835,141.688c0.37,0.114,0.764-0.091,0.88-0.458l5.193-16.526c0.114-0.366-0.09-0.756-0.46-0.871
				c-0.373-0.114-0.765,0.091-0.879,0.457l-5.195,16.527C96.26,141.182,96.466,141.572,96.835,141.688z"/>
			<path d="M94.881,98.272c-0.74-0.227-1.527,0.181-1.757,0.914l-16.602,52.824c-0.17,0.541-0.683,1.066-1.407,1.439
				c-0.772,0.399-1.471,0.458-1.602,0.427c-0.739-0.446-3.498-2.998-2.411-6.452l12.798-40.724c0.231-0.733-0.183-1.513-0.923-1.743
				c-0.74-0.229-1.526,0.182-1.758,0.915l-12.799,40.723c-1.609,5.123,2.18,8.78,3.634,9.657c0.184,0.112,0.377,0.195,0.577,0.255
				c1.143,0.354,2.452-0.041,3.018-0.253c1.759-0.658,3.086-1.936,3.553-3.417l16.6-52.824C96.034,99.282,95.622,98.5,94.881,98.272
				z"/>
			<path d="M84.276,100.828c0.741,0.227,1.53-0.182,1.758-0.915l4.035-12.837c0.23-0.733-0.184-1.514-0.923-1.741
				c-0.74-0.229-1.527,0.181-1.758,0.914l-4.035,12.837C83.125,99.818,83.536,100.599,84.276,100.828z"/>
			<path d="M73.26,172.069c-7.32-3.803-10.162-6.321-9.503-8.42l2.748-8.742c0.23-0.732-0.183-1.511-0.924-1.74
				c-0.74-0.229-1.526,0.182-1.758,0.914l-2.746,8.745c-1.364,4.334,3.151,7.692,10.878,11.706c0.078,0.042,0.156,0.075,0.237,0.099
				c0.634,0.196,1.339-0.078,1.658-0.683C74.212,173.267,73.946,172.427,73.26,172.069z"/>
			<path d="M126.411,169.456c-0.64-0.424-1.508-0.242-1.938,0.387c-0.095,0.136-2.364,3.341-8.853,2.806
				c-0.772-0.064-1.451,0.504-1.516,1.27c-0.056,0.661,0.363,1.253,0.979,1.442c0.098,0.031,0.198,0.052,0.302,0.06
				c8.27,0.681,11.314-3.868,11.441-4.062C127.241,170.718,127.054,169.874,126.411,169.456z"/>
			<path d="M121.731,178.704c-0.04,0.047-3.934,4.547-16.178,2.841c-0.766-0.106-1.478,0.425-1.587,1.185
				c-0.095,0.685,0.329,1.321,0.972,1.521c0.073,0.021,0.146,0.039,0.225,0.05c14.034,1.955,18.585-3.639,18.774-3.876
				c0.471-0.601,0.355-1.456-0.241-1.931C123.099,178.017,122.216,178.116,121.731,178.704z"/>
			<path d="M104.807,83.937c0.096,0.032,9.511,3.301,12.346,4.757c1.473,0.758,1.257,2.34,0.215,5.604l-0.159,0.506
				c-0.233,0.733,0.182,1.515,0.922,1.741c0.737,0.228,1.525-0.182,1.757-0.913l0.154-0.495c0.834-2.598,2.224-6.948-1.597-8.912
				c-3.007-1.546-12.316-4.777-12.71-4.915c-0.714-0.235-1.533,0.127-1.79,0.853C103.691,82.89,104.075,83.682,104.807,83.937z"/>
			<path d="M93.31,169.249c-0.372-0.11-0.763,0.099-0.872,0.468c-0.112,0.365,0.098,0.75,0.463,0.865
				c0.003,0,0.005,0.002,0.009,0.002c12.474,3.686,16.582,3.262,16.75,3.244c0.385-0.046,0.656-0.39,0.613-0.769
				c-0.045-0.383-0.396-0.655-0.775-0.613C109.458,172.449,105.399,172.824,93.31,169.249z"/>
			<path d="M114.489,178.865c0.381-0.033,0.669-0.369,0.635-0.751c-0.034-0.381-0.371-0.663-0.762-0.632
				c-0.104,0.011-10.927,0.858-30.241-6.373c-0.34-0.13-0.768,0.044-0.906,0.405c-0.137,0.358,0.047,0.761,0.41,0.897
				c2.623,0.979,5.084,1.813,7.388,2.525C105.967,179.552,114.099,178.9,114.489,178.865z"/>
			<path d="M93.529,64.555c0.043,0.014,0.083,0.025,0.125,0.037c0.501,0.136,1.015-0.155,1.151-0.647
				c0.136-0.483-0.145-0.983-0.622-1.132c-0.012-0.002-0.021-0.006-0.031-0.008c-0.769-0.225-1.625-0.975-2.142-1.939
				c-0.461-0.869-0.598-1.783-0.369-2.449c0.169-0.484-0.091-1.013-0.581-1.18c-0.53-0.177-1.021,0.091-1.187,0.576
				c-0.403,1.159-0.225,2.586,0.484,3.918C91.1,63.122,92.278,64.169,93.529,64.555z"/>
			<path d="M96.383,67.766c0.27,0.039,0.452,0.156,0.599,0.389c0.359,0.572,0.344,1.595,0.121,2.254
				c-0.163,0.487,0.102,1.013,0.591,1.175c0.006,0.002,0.012,0.004,0.019,0.005c0.485,0.15,1.003-0.112,1.166-0.591
				c0.366-1.079,0.411-2.681-0.309-3.824c-0.443-0.705-1.112-1.139-1.938-1.244c-0.511-0.068-0.981,0.288-1.051,0.793
				C95.512,67.231,95.874,67.699,96.383,67.766z"/>
			<path d="M147.007,71.708c0.128,0.039,0.265,0.053,0.41,0.033c0.602-0.086,1.719,0.349,2.708,0.732
				c1.732,0.672,3.523,1.367,4.983,0.626c0.778-0.395,1.314-1.141,1.59-2.214c0.122-0.48-0.157-0.968-0.627-1.115
				c-0.019-0.005-0.033-0.011-0.05-0.015c-0.5-0.126-1.007,0.173-1.136,0.669c-0.139,0.537-0.354,0.882-0.633,1.024
				c-0.708,0.359-2.162-0.204-3.445-0.702c-1.318-0.511-2.562-0.994-3.652-0.842c-0.51,0.072-0.868,0.542-0.798,1.046
				C146.41,71.318,146.672,71.604,147.007,71.708z"/>
			<path d="M111.485,65.486c0.078,0.333,0.33,0.582,0.635,0.677c0.153,0.046,0.321,0.058,0.488,0.017
				c2.591-0.593,4.747-0.748,6.882,0.446c0.293,0.165,0.585,0.335,0.871,0.506c1.86,1.098,3.963,2.34,6.651,1.21
				c0.477-0.2,0.698-0.744,0.498-1.214c-0.202-0.471-0.751-0.69-1.229-0.492c-1.811,0.762-3.207-0.06-4.961-1.096
				c-0.302-0.179-0.604-0.358-0.912-0.53c-2.807-1.569-5.611-1.236-8.221-0.637C111.682,64.489,111.369,64.987,111.485,65.486z"/>
			<path d="M102.754,51.131c0.283,0.089,0.604-0.01,0.785-0.266c0.652-0.925,1.79-1.902,2.447-1.876
				c0.577,0.021,1.078,0.583,1.648,1.238c0.869,0.999,2.063,2.367,4.146,1.645c0.366-0.127,0.558-0.521,0.43-0.885
				c-0.127-0.362-0.527-0.554-0.895-0.427c-1.127,0.391-1.701-0.188-2.619-1.244c-0.684-0.781-1.459-1.667-2.655-1.716
				c-1.471-0.057-2.99,1.526-3.655,2.47c-0.221,0.314-0.145,0.749,0.174,0.967C102.62,51.081,102.686,51.113,102.754,51.131z"/>
			<path d="M106.667,163.419c0.371,0.112,0.765-0.091,0.879-0.459l7.72-24.568c0.115-0.367-0.089-0.756-0.459-0.869
				c-0.371-0.115-0.765,0.089-0.881,0.456l-7.719,24.566C106.093,162.913,106.298,163.304,106.667,163.419z"/>
			<path d="M124.139,162.98c0.37,0.114,0.763-0.09,0.878-0.458l19.545-62.192c0.116-0.366-0.09-0.756-0.459-0.872
				c-0.373-0.114-0.766,0.093-0.881,0.459l-19.545,62.191C123.562,162.477,123.766,162.866,124.139,162.98z"/>
			<path d="M146.466,91.935c0.371,0.113,0.764-0.092,0.879-0.458l2.92-9.294c0.117-0.367-0.092-0.757-0.46-0.872
				c-0.369-0.115-0.763,0.092-0.878,0.458l-2.921,9.293C145.889,91.43,146.096,91.822,146.466,91.935z"/>
			<path d="M118.811,113.67c0.371,0.114,0.764-0.091,0.878-0.458l6.17-19.625c0.116-0.367-0.093-0.756-0.464-0.871
				c-0.369-0.112-0.761,0.091-0.877,0.459L118.35,112.8C118.237,113.166,118.441,113.556,118.811,113.67z"/>
			<path d="M111.583,92.42l-7.464,23.756c-0.117,0.367,0.09,0.754,0.46,0.871c0.37,0.115,0.765-0.091,0.879-0.457l7.466-23.756
				c0.113-0.366-0.093-0.757-0.462-0.87C112.091,91.85,111.699,92.055,111.583,92.42z"/>
			<path d="M163.818,145.938c3.027-5.765,13.867-38.311,8.312-45.499c-3.183-4.12-10.869-8.353-16.102-10.914l2.71-8.623
				c0.492-0.16,0.969-0.376,1.421-0.663c1.925-1.221,3.284-3.54,3.633-6.207c0.361-2.733-0.375-5.331-2.018-7.128
				c-0.5-0.545-1.101-0.852-1.631-1.121c-0.435-0.223-0.815-0.413-0.946-0.645c-0.173-0.303-0.169-0.848-0.164-1.424
				c0.003-0.811,0.009-1.728-0.427-2.633c-1.013-2.106-2.97-3.74-5.367-4.48c-0.851-0.263-1.656-0.242-2.366-0.225
				c-0.447,0.011-0.869,0.022-1.228-0.042c-0.486-0.091-0.786-0.48-1.301-1.167c-0.227-0.305-0.459-0.612-0.719-0.9
				c-1.097-1.224-2.516-2.076-4.468-2.68c-0.381-0.116-0.766-0.209-1.147-0.287c-0.494-0.103-1.014-0.539-1.595-1.008
				c-0.718-0.58-1.533-1.243-2.626-1.581c-2.09-0.618-4.376-0.632-6.612-0.039c-1.603,0.422-2.66,0.397-3.604-0.081
				c-0.482-0.243-0.942-0.564-1.429-0.906c-0.804-0.563-1.713-1.199-2.863-1.552c-1.344-0.416-2.728-0.585-4.118-0.508
				c-0.167-0.106-0.447-0.361-0.622-0.521c-0.275-0.251-0.53-0.487-0.823-0.67c-0.947-0.59-2.19-0.802-3.185-0.91
				c-0.651-0.072-1.228-0.124-1.751-0.367c-0.643-0.295-1.241-0.813-1.876-1.361c-0.661-0.574-1.347-1.167-2.195-1.622
				c-0.352-0.187-0.71-0.34-1.069-0.449c-2.821-0.873-5.061,0.782-7.036,2.238c-0.77,0.572-1.496,1.107-2.212,1.47
				c-0.629,0.322-1.32,0.268-2.394,0.149c-0.768-0.083-1.64-0.181-2.56-0.043c-3.764,0.564-6.87,3.07-7.912,6.386
				c-0.535,1.704-0.528,3.501,0.015,5.247c-0.491,0.712-0.867,1.479-1.121,2.286c-0.72,2.298-0.434,4.806,0.811,7.063
				c0.397,0.723,0.897,1.353,1.427,1.943l-31.068,98.856c-1.975,6.282,14.559,14.991,31.911,20.346
				c17.353,5.354,35.95,7.488,37.925,1.204l4.645-14.778c4.12,0.803,8.89,0.671,12.786-1.031
				C149.501,168.171,160.563,152.142,163.818,145.938z M87.106,58.288c0.224-0.714,0.593-1.386,1.097-1.995
				c0.324-0.394,0.407-0.929,0.218-1.399c-0.556-1.374-0.627-2.807-0.21-4.139c0.88-2.8,3.596-4.153,5.652-4.463
				c0.559-0.083,1.177-0.017,1.832,0.055c1.206,0.132,2.571,0.282,3.984-0.436c0.922-0.468,1.78-1.103,2.606-1.714
				c1.908-1.407,3.167-2.233,4.526-1.814c0.184,0.057,0.374,0.138,0.566,0.24c0.573,0.307,1.114,0.775,1.685,1.27
				c0.753,0.651,1.531,1.326,2.537,1.79c0.884,0.413,1.834,0.524,2.63,0.608c0.78,0.084,1.495,0.185,1.992,0.498
				c0.077,0.05,0.283,0.238,0.42,0.363c0.459,0.422,1.034,0.945,1.739,1.165c0.273,0.083,0.548,0.116,0.817,0.098
				c1.094-0.077,2.19,0.051,3.254,0.378c0.722,0.223,1.383,0.684,2.078,1.17c0.545,0.382,1.111,0.774,1.765,1.107
				c0.314,0.161,0.647,0.295,0.983,0.398c1.748,0.538,3.476,0.198,4.625-0.105c1.734-0.461,3.493-0.456,5.099,0.023
				c0.529,0.163,1.07,0.598,1.642,1.063c0.776,0.626,1.708,1.354,2.803,1.578c0.294,0.059,0.587,0.132,0.88,0.22
				c1.459,0.451,2.451,1.029,3.204,1.87c0.203,0.224,0.383,0.468,0.56,0.706c0.641,0.86,1.469,1.959,3.049,2.249
				c0.646,0.119,1.264,0.103,1.81,0.089c0.562-0.016,1.05-0.027,1.458,0.098c1.651,0.512,2.989,1.614,3.668,3.024
				c0.158,0.328,0.154,0.857,0.15,1.418c-0.003,0.829-0.01,1.86,0.528,2.807c0.544,0.956,1.411,1.398,2.109,1.751
				c0.349,0.18,0.68,0.346,0.833,0.515c1.074,1.175,1.565,3.008,1.317,4.902c-0.245,1.834-1.149,3.453-2.364,4.224
				c-0.901,0.572-1.948,0.679-3.112,0.321c-0.802-0.247-1.632-1.019-2.188-1.579c-2.523-2.53-5.221-3.001-8.999-1.449
				c-0.957,0.395-2.083,0.426-3.167,0.092c-1.121-0.345-2.082-1.067-2.637-1.983c-0.316-0.516-0.834-1.232-1.72-1.504
				c-0.889-0.274-1.675,0.042-2.306,0.295c-0.297,0.118-0.599,0.241-0.925,0.318c-0.824,0.198-1.515-0.083-2.518-0.563
				c-0.371-0.176-0.754-0.361-1.167-0.526c-1.481-0.589-2.363-0.299-3.25-0.027c-0.237,0.072-0.499,0.153-0.813,0.225
				c-0.798,0.189-1.666,0.149-2.508-0.111c-0.761-0.234-1.326-0.741-1.924-1.278c-0.633-0.568-1.351-1.213-2.331-1.516
				c-1.003-0.308-2.073-0.204-3.277,0.32c-0.618,0.271-1.228,0.245-1.934,0.213c-1.28-0.055-3.037-0.135-4.604,1.895
				c-0.674,0.875-1.782,1.629-2.597,1.378c-0.148-0.046-0.453-0.5-0.617-0.744c-0.387-0.579-0.872-1.3-1.746-1.568
				c-0.773-0.239-1.574-0.055-2.383,0.55c-0.819,0.614-1.405,1.534-1.967,2.427c-0.294,0.467-0.574,0.908-0.833,1.214
				c-0.217,0.254-0.429,0.527-0.644,0.803c-0.412,0.531-0.835,1.079-1.263,1.423c-0.643,0.521-1.012,0.611-1.098,0.603
				c-0.64-0.308-1.097-3.363-1.248-4.369c-0.154-1.023-0.287-1.91-0.516-2.53c-0.515-1.402-1.524-2.133-2.415-2.778
				c-0.242-0.176-0.491-0.354-0.764-0.583c-1.322-1.1-2.688-2.238-3.48-3.674C86.823,61.602,86.611,59.861,87.106,58.288z
				 M129.446,164.747l-0.354,1.128c0,0,0,0,0,0l-0.422,1.344c0,0,0,0,0,0l-0.28,0.889l-1.037,3.3l-4.601,14.639
				c-0.885,2.819-14.73,3.038-34.413-3.035c-19.679-6.073-30.951-14.043-30.065-16.862l30.652-97.531
				c0.16,0.135,0.322,0.275,0.479,0.406c0.288,0.239,0.585,0.457,0.879,0.672c0.774,0.561,1.223,0.904,1.433,1.481
				c0.132,0.359,0.256,1.188,0.378,1.989c0.152,1.022,0.321,2.141,0.604,3.169c-0.621-0.096-1.021-0.118-1.062-0.12
				c-0.638-0.029-1.215,0.372-1.406,0.976l-0.816,2.601c-0.232,0.733,0.184,1.514,0.922,1.74c0.74,0.229,1.526-0.18,1.759-0.913
				l0.465-1.487c0.798,0.144,1.943,0.429,3.097,0.991c2.356,1.148,2.906,1.744,2.274,3.754l-2.781,8.853
				c-0.231,0.734,0.182,1.514,0.921,1.742c0.741,0.229,1.529-0.18,1.759-0.913l2.782-8.855c0.99-3.15-0.234-4.874-1.722-5.948
				c0.033-0.026,0.066-0.047,0.1-0.075c0.679-0.551,1.231-1.257,1.715-1.885c0.189-0.244,0.376-0.485,0.564-0.708
				c0.389-0.455,0.732-1.001,1.066-1.527c0.381-0.605,0.81-1.283,1.195-1.617c0.065,0.093,0.129,0.19,0.184,0.27
				c0.431,0.644,1.021,1.52,2.122,1.862c2.298,0.707,4.485-0.823,5.662-2.348c0.673-0.872,1.133-0.853,2.246-0.804
				c0.88,0.039,1.975,0.087,3.197-0.448c0.733-0.32,1.095-0.273,1.306-0.207c0.387,0.12,0.802,0.492,1.281,0.921
				c0.725,0.649,1.625,1.456,2.972,1.872c1.32,0.406,2.702,0.464,3.986,0.164c0.381-0.089,0.707-0.186,0.999-0.276
				c0.772-0.236,0.896-0.243,1.366-0.054c0.356,0.144,0.685,0.303,1,0.454c0.505,0.24,1.025,0.49,1.598,0.667
				c0.941,0.291,1.855,0.322,2.8,0.097c0.531-0.126,0.971-0.302,1.324-0.444c0.129-0.052,0.289-0.118,0.411-0.16
				c0.04,0.051,0.09,0.124,0.155,0.226c0.918,1.512,2.411,2.649,4.206,3.202c1.708,0.528,3.511,0.465,5.077-0.175
				c2.722-1.121,4.212-0.888,5.926,0.83c0.829,0.838,1.961,1.854,3.35,2.282c0.347,0.107,0.691,0.179,1.033,0.235l-2.263,7.199
				l-0.844,2.687l-0.577,1.837l-0.592,1.883l-0.149,0.475c-0.251-0.507-0.797-0.836-1.4-0.78c-0.041,0.004-4.067,0.333-15.917-3.172
				c-0.744-0.218-1.526,0.202-1.747,0.937c-0.221,0.73,0.193,1.5,0.929,1.727c0.003,0.001,0.01,0.003,0.014,0.005
				c12.4,3.666,16.599,3.319,17.036,3.269c0.187-0.022,0.359-0.081,0.512-0.166l-0.141,0.449l-0.329,1.046l-1.401,4.457c0,0,0,0,0,0
				l-17.32,55.11L129.446,164.747z M151.96,102.472c1.25,0.031,2.651,0.334,4.149,1.145c5.435,2.937,6.51,7.782,3.842,17.282
				c-2.803,9.979-14.358,34.569-18.542,38.331c-1.688,1.518-3.872,1.412-5.407,1.055c-0.689-0.162-1.358-0.408-1.996-0.699
				L151.96,102.472z M141.732,168.521c-3.245,1.414-7.304,1.554-10.822,0.919l0.427-1.357c1.691,0.381,3.805,0.577,6.378,0.317
				c0.386-0.037,0.667-0.38,0.625-0.762c-0.038-0.38-0.385-0.662-0.768-0.622c-2.347,0.237-4.273,0.061-5.813-0.276l0.477-1.515
				c0.636,0.231,1.418,0.454,2.384,0.637c0.242,0.045,0.492,0.09,0.758,0.13c0.383,0.058,0.737-0.201,0.8-0.582
				c0.061-0.378-0.188-0.705-0.586-0.794c-1.285-0.199-2.234-0.461-2.937-0.725l0.51-1.623c0.435,0.185,0.876,0.351,1.325,0.488
				c0.29,0.089,0.581,0.168,0.872,0.237c3.099,0.719,5.917,0.115,7.937-1.705c4.953-4.452,16.597-29.81,19.357-39.645
				c2.132-7.58,3.18-15.94-5.202-20.468c-1.646-0.891-3.201-1.313-4.628-1.456l0.521-1.657c0.289,0.11,0.582,0.231,0.886,0.381
				c0.351,0.17,0.77,0.029,0.94-0.314c0.172-0.345,0.032-0.764-0.318-0.933c-0.375-0.184-0.735-0.331-1.09-0.462l0.485-1.544
				c0.955,0.43,2.024,0.966,3.221,1.652c0.045,0.027,0.094,0.047,0.141,0.062c0.308,0.095,0.647-0.029,0.814-0.315
				c0.194-0.333,0.081-0.759-0.256-0.951c-1.302-0.746-2.464-1.324-3.499-1.786l0.513-1.631c4.982,2.46,11.957,6.332,14.722,9.907
				c3.933,5.095-4.377,34.535-8.574,42.523C157.663,151.633,147.111,166.174,141.732,168.521z"/>
		</g>
	</g>
</g>
</svg>
