<?xml version="1.0" encoding="utf-8"?>
<!-- Generator: Adobe Illustrator 16.0.0, SVG Export Plug-In . SVG Version: 6.00 Build 0)  -->
<!DOCTYPE svg PUBLIC "-//W3C//DTD SVG 1.1//EN" "http://www.w3.org/Graphics/SVG/1.1/DTD/svg11.dtd">
<svg version="1.1" id="圖層_1" xmlns="http://www.w3.org/2000/svg" xmlns:xlink="http://www.w3.org/1999/xlink" x="0px" y="0px"
	 width="184.268px" height="159.795px" viewBox="0 0 184.268 159.795" enable-background="new 0 0 184.268 159.795"
	 xml:space="preserve">
<path fill="#212121" d="M184.026,58.532l-64.832-38.963c-0.007-0.004-0.014-0.003-0.021-0.007c-0.021-0.011-0.04-0.014-0.063-0.021
	c-0.06-0.023-0.118-0.034-0.181-0.033c-0.013,0-0.023-0.009-0.038-0.007l-24.31,2.094c-0.143,0.012-0.271,0.084-0.356,0.197
	l-7.419,9.855c-0.005,0.007-0.004,0.017-0.009,0.024c-0.043,0.063-0.067,0.133-0.078,0.208c-0.003,0.023-0.005,0.044-0.005,0.068
	c0,0.022-0.008,0.043-0.005,0.065l0.648,5.005c-2.301-0.249-4.605-0.585-6.913-1.007c-5.721-0.168-10.505-0.611-15.055-1.392
	c-3.101-0.533-6.207-1.275-9.212-1.994c-1.297-0.31-2.594-0.62-3.896-0.916l-0.265-0.06c-0.748-0.169-1.497-0.339-2.247-0.501
	c-0.156-0.032-0.32,0.009-0.439,0.117L0.163,75.391c-0.003,0.003-0.003,0.007-0.006,0.01c-0.004,0.003-0.009,0.003-0.012,0.008
	c-0.06,0.06-0.102,0.133-0.125,0.211c-0.005,0.016,0,0.032-0.003,0.049c-0.012,0.061-0.022,0.123-0.011,0.186l7.925,42.826
	c0.038,0.201,0.195,0.359,0.396,0.398l41.167,8.002c0.031,0.008,0.063,0.01,0.095,0.01c0.063,0,0.125-0.014,0.184-0.035
	c0.021-0.008,0.035-0.021,0.055-0.032c0.033-0.019,0.068-0.033,0.098-0.062l43.718-39.219c0.109-0.1,0.17-0.242,0.165-0.39
	c-0.104-2.874-2.521-7.714-3.146-8.915l1.082-1.605l36.042,21.683c0.05,0.03,0.104,0.052,0.162,0.063l41.167,8.002
	c0.031,0.006,0.063,0.01,0.096,0.01c0.061,0,0.121-0.012,0.179-0.033c0.023-0.01,0.04-0.028,0.063-0.041
	c0.023-0.014,0.045-0.027,0.066-0.045c0.057-0.046,0.1-0.102,0.131-0.166c0.008-0.014,0.022-0.021,0.028-0.035
	c0.003-0.007,0.002-0.014,0.004-0.02c0.001-0.006,0.006-0.008,0.007-0.014l14.558-47.129
	C184.314,58.888,184.223,58.65,184.026,58.532z M94.89,22.572l23.111-1.992l-5.321,8.849l-24.407,1.934L94.89,22.572z
	 M87.769,32.406l3.624-0.287l21.243-1.683l3.193,8.762l1.777,4.88l-23.78-2.453c0.275-1.146,0.472-2.164,0.514-2.887
	c0.016-0.271-0.188-0.504-0.457-0.527c-0.537-0.045-1.09-0.126-1.643-0.239c-0.734-0.151-1.405-0.342-2.053-0.584
	c-0.107-0.04-0.262-0.087-0.524-0.15c-0.429-0.035-0.855-0.081-1.283-0.123L87.769,32.406z M97.102,63.418l-3.589-6.58l10.074-1.764
	l2.165-0.379l-0.346,5.831L105,67.388l-4.078,0.991c-0.082,0.021-0.157,0.061-0.219,0.117l-3.63,3.316l-1.479-0.693l0.923-1.371
	c0.046-0.068,0.074-0.147,0.083-0.23l0.563-5.813C97.17,63.606,97.151,63.506,97.102,63.418z M93.007,55.913l-2.298-4.215
	c0.242-0.683,0.996-2.842,1.756-5.269l4.461-0.14l11.538-0.36l-1.4,4.229l-1.155,3.495L93.007,55.913z M92.777,45.418
	c0.286-0.946,0.563-1.903,0.803-2.813l19.336,1.994l-3.778,0.309L92.777,45.418z M49.811,32.179
	c0.663,0.145,1.325,0.295,1.986,0.445l0.265,0.06c1.298,0.294,2.592,0.604,3.886,0.913c3.02,0.722,6.143,1.469,9.273,2.007
	c4.598,0.79,9.426,1.236,15.119,1.398c3.033,0.561,6.143,0.976,9.151,1.216c0.139,0.038,0.263,0.074,0.349,0.105
	c0.407,0.152,0.823,0.286,1.257,0.403L67.315,60.141L41.514,83.226l-33.19-6.451l-6.746-1.312L49.811,32.179z M8.854,118.165
	l-7.73-41.771l40.109,7.797l0.242,1.31l7.49,40.461L8.854,118.165z M89.641,78.643c0.029,0.056,2.91,5.468,3.154,8.52L49.92,125.624
	l-0.55-2.97l-7.165-38.705L92.289,39c0.338,0.063,0.675,0.115,1.009,0.155c-0.447,3.568-3.571,12.324-3.604,12.417
	c-0.048,0.134-0.035,0.283,0.032,0.408l6.426,11.782l-0.534,5.533l-5.949,8.834C89.563,78.282,89.553,78.48,89.641,78.643z
	 M128.226,97.613L92.304,76l2.724-4.043l1.925,0.901c0.066,0.032,0.14,0.047,0.212,0.047c0.017,0,0.033-0.007,0.05-0.009
	c0.019-0.002,0.034-0.006,0.053-0.01c0.085-0.018,0.168-0.051,0.234-0.112l3.781-3.455l4.112-1l61.128,36.737L128.226,97.613z
	 M168.922,105.333l-62.929-37.818l0.79-13.324l0.858-2.598l1.893-5.713l8.856-0.723c0.063-0.005,0.122-0.022,0.176-0.048
	c0.001,0,0.001,0,0.002-0.001c0.009-0.004,0.015-0.011,0.021-0.015c0.019-0.01,0.032-0.025,0.05-0.038
	c0.032-0.023,0.063-0.047,0.09-0.078c0.004-0.005,0.012-0.007,0.016-0.012c0.005-0.006,0.004-0.014,0.009-0.02
	c0.005-0.007,0.013-0.01,0.018-0.018c0.007-0.011,0.006-0.023,0.013-0.035c0.021-0.038,0.034-0.079,0.046-0.122
	c0.004-0.016,0.012-0.03,0.015-0.046c0.001-0.012,0-0.022,0.001-0.034c0.001-0.01,0.006-0.019,0.006-0.028
	c0.001-0.055-0.012-0.107-0.027-0.157c-0.002-0.006,0-0.013-0.002-0.02l-0.003-0.006c0-0.001-0.001-0.001-0.001-0.002l-5.29-14.518
	l5.579-9.276l64.067,38.503L168.922,105.333z"/>
</svg>
