<?xml version="1.0" encoding="utf-8"?>
<!-- Generator: Adobe Illustrator 16.0.0, SVG Export Plug-In . SVG Version: 6.00 Build 0)  -->
<!DOCTYPE svg PUBLIC "-//W3C//DTD SVG 1.1//EN" "http://www.w3.org/Graphics/SVG/1.1/DTD/svg11.dtd">
<svg version="1.1" id="wormhple" xmlns="http://www.w3.org/2000/svg" xmlns:xlink="http://www.w3.org/1999/xlink" x="0px" y="0px"
	 width="461.453px" height="478.838px" viewBox="0 0 461.453 478.838" enable-background="new 0 0 461.453 478.838"
	 xml:space="preserve">
<g>
	<path fill="#FFFFFF" d="M205.201,431.12c0.899,8.563,1.021,27.717-12.609,43.071l5.234,4.646
		c17.465-19.676,15.192-43.978,13.953-51.517L205.201,431.12z"/>
	<path fill="#999999" d="M243.061,51.568c-3.715-1.257-7.764-1.895-12.036-1.895c-0.497,0-1.007,0.032-1.517,0.063l-1.043,0.055
		c-0.183,0.007-0.365,0.013-0.55,0.025c-0.768,0.054-1.597,0.136-2.609,0.261l-0.191,0.022c-0.214,0.026-0.427,0.051-0.642,0.08
		l-0.253,0.042c-1.002,0.144-1.83,0.282-2.624,0.438c-0.271,0.051-0.541,0.11-0.812,0.171l-0.577,0.126
		c-0.813,0.176-1.626,0.351-2.452,0.569l-0.454,0.133c-1.611,0.438-3.268,0.962-5.06,1.599c-0.753,0.265-1.502,0.531-2.257,0.827
		c-0.558,0.218-1.116,0.454-1.678,0.69l-0.713,0.296c-0.328,0.135-0.656,0.27-0.986,0.416l-0.092,0.043
		c-0.191,0.087-0.349,0.162-0.506,0.237l-0.364,0.173c-0.567,0.262-1.134,0.525-1.702,0.804l-0.432,0.203
		c-0.203,0.096-0.406,0.189-0.61,0.292c-0.13,0.064-0.257,0.135-0.386,0.203l-0.34,0.182c-0.203,0.104-0.406,0.213-0.611,0.321
		l-0.976,0.516c-0.304,0.158-0.606,0.315-0.909,0.483l-0.525,0.279c-1.141,0.638-2.346,1.345-3.578,2.1L0,174.234l130.285,75.218
		l-0.75,0.433L0,324.666l60.313,34.818c45.027,25.992,90.051,51.982,135.072,77.986l0.313,0.18l0.311-0.18
		c42.101-24.316,84.205-48.622,126.31-72.928l69.082-39.882l-0.053-0.03l0.688-0.439c38.279-24.433,69.42-77.476,69.42-118.241
		c0-18.479-6.309-32.405-17.764-39.211l-0.476-0.281l0.035-0.047l-0.254-0.141l0.1-0.172L249.512,54.335l-0.102,0.174l-1.006-0.578
		c-0.066-0.037-0.131-0.067-0.195-0.098c-0.08-0.038-0.158-0.075-0.234-0.117c-0.469-0.253-0.947-0.504-1.436-0.734
		c-0.17-0.083-0.34-0.16-0.512-0.236l-0.512-0.225c-0.531-0.229-1.068-0.441-1.609-0.643l-0.734-0.271l0.049-0.514L243.061,51.568z
		 M215.668,53.432c0.306-0.094,0.611-0.187,0.914-0.272c0.548-0.161,1.1-0.323,1.646-0.465c0.763-0.198,1.521-0.373,2.274-0.539
		c0.46-0.1,0.916-0.194,1.371-0.282c0.793-0.152,1.583-0.292,2.364-0.407c0.262-0.04,0.523-0.072,0.785-0.104l0.36-0.045
		c0.825-0.102,1.648-0.198,2.457-0.257c0.145-0.011,0.286-0.016,0.429-0.021l0.301-0.013c0.655-0.038,1.306-0.061,1.952-0.066
		l0.894-0.009l-0.225,0.375l14.99,8.654l-1.572,0.143c-4.366,0.393-8.936,1.387-13.578,2.953l-0.215,0.071l-16.247-9.379
		L215.668,53.432z M408.084,168.418l-0.086-0.96l16.355,9.441l0.028,0.25c0.312,2.688,0.469,5.514,0.469,8.396
		c0,8.768-1.418,18.234-4.217,28.14l-0.174,0.618l-16.588-9.576l0.108-0.376c2.945-10.238,4.439-19.999,4.439-29.013
		C408.422,173.174,408.311,170.911,408.084,168.418z M408.365,166.231l1.082-0.342c1.211-0.382,2.197-0.671,3.104-0.909
		c0.465-0.123,0.926-0.227,1.387-0.33l0.494-0.111c0.656-0.15,1.313-0.3,1.959-0.422c0.683-0.132,1.355-0.241,2.027-0.345
		c0.584-0.088,1.16-0.165,1.734-0.232l0.789-0.085l0.143,0.354c1.311,3.285,2.279,6.813,2.879,10.487l0.17,1.041L408.365,166.231z
		 M151.527,213.131l-0.07-0.106c-4.896-10.059-10.396-20.006-16.35-29.564l-0.608-0.979l1.13,0.224
		c4.264,0.839,8.432,1.792,12.391,2.831l0.237,0.063l0.096,0.228c4.983,11.801,9.802,23.726,15.161,37.526l0.433,1.112l-2.335-1.01
		c-0.506-0.302-0.959-0.567-1.412-0.816l-1.171-0.98c-0.649-0.556-1.299-1.109-1.96-1.65l-0.482-0.395l0.138-0.107
		C155.116,217.426,153.412,215.336,151.527,213.131z M139.446,212.454l-23.542-13.592l2.061,0.1
		c2.878,0.138,5.742,0.438,8.512,0.896l0.18,0.066c8.567,5.235,17.2,11.261,25.658,17.906l0.094,0.073l0.811,1.668l-1.311-0.644
		c-2.641-1.297-5.389-2.698-8.168-4.164l-0.461-0.244l0.049-0.084C142.164,213.764,140.917,213.127,139.446,212.454z
		 M142.73,314.572c7.365-10.612,13.482-22.021,18.182-33.905l0.102-0.159c2.035-2.16,3.889-4.327,5.666-6.624l1.847-2.387
		l-0.978,2.854c-4.414,12.883-9.227,25.638-14.305,37.911l-0.088,0.212l-0.219,0.071c-3.098,1.018-6.354,1.958-9.674,2.797
		l-1.295,0.327L142.73,314.572z M140.229,315.94l-0.111,0.154l-0.185,0.042c-6.065,1.384-12.323,2.396-18.602,3.012l-1.712,0.167
		l1.355-1.059c8.907-6.963,16.535-15.148,22.674-24.334l0.072-0.107l0.114-0.06c4.551-2.347,8.956-5.447,13.095-9.215l1.72-1.565
		l-0.925,2.134C153.072,295.851,147.186,306.224,140.229,315.94z M162.126,277.549l0.95-2.694c0.279-0.794,0.556-1.59,0.822-2.387
		l0.06-0.18l4.159-2.4l-1.449,1.943c-0.917,1.229-1.836,2.41-2.732,3.506L162.126,277.549z M154.574,312.285
		c5.298-12.83,10.291-26.138,14.84-39.554l0.195-0.577l5.002,2.902c1.949,1.817,3.586,3.479,5.005,5.078l0.2,0.226l-0.105,0.282
		c-4.977,13.291-9.976,26.819-14.857,40.209l-0.273,0.748l-0.555-0.57c-2.867-2.943-5.992-5.688-9.289-8.152l-0.312-0.232
		L154.574,312.285z M250.559,284.197l-0.065-0.102c-2.082-3.237-4.47-6.345-7.091-9.236l0.707-0.705
		c7.662,6.986,14.832,10.103,23.248,10.103c3.775,0,7.92-0.615,12.675-1.881l0.198-0.054l19.095,11.023l-0.978,0.376
		c-6.252,2.407-11.578,3.528-16.758,3.528c-3.688,0-7.311-0.553-11.402-1.735l-0.11-0.048L250.559,284.197z M256.723,289.194
		l-0.459,0.889c-0.932-0.428-1.891-0.87-2.865-1.328l-0.146-0.068l-0.078-0.14c-0.047-0.084-0.088-0.17-0.129-0.257
		c-0.033-0.068-0.065-0.139-0.104-0.204l-0.895-1.59L256.723,289.194z M224.286,224.256c5.796-15.782,10.905-27.863,16.081-38.021
		l0.152-0.3l0.334,0.028c3.071,0.258,6.369-0.365,9.819-1.859l1.644-0.711l-1.035,1.459c-7.363,10.373-12.576,21.935-15.938,35.341
		l-0.059,0.233l-0.22,0.1c-3.459,1.579-6.865,3.047-10.123,4.364l-1.046,0.423L224.286,224.256z M222.426,225.704l-0.078,0.214
		L222.136,226c-0.702,0.27-1.327,0.511-1.954,0.743l-0.095,0.034c-2.769,1.032-5.471,1.954-8.031,2.74l-0.648,0.199l0.002-0.678
		c0.014-5.894,0.246-11.375,2.955-18.813l1.848-4.771c3.763-9.73,7.317-18.921,10.903-27.178l0.335-0.77l0.518,0.661
		c3.108,3.969,6.624,6.464,10.452,7.417l0.881,0.184l-0.295,0.576C233.633,196.896,228.364,209.403,222.426,225.704z
		 M280.645,238.173l2.722,1.569l-0.525,0.46c-5.319,4.664-10.772,8.745-16.205,12.132l-0.254,0.159l-5.271-3.043L280.645,238.173z
		 M266.131,244.825c-4.826-2.784-10.459-6.002-15.637-8.756l-0.797-0.424l14.248-8.227l0.225,0.089
		c5.879,2.318,12.232,5.153,17.672,7.622l0.887,0.4l-16.348,9.438L266.131,244.825z M281.891,237.455l9.853-5.689l-2.777,2.741
		c-1.596,1.572-3.016,2.922-4.34,4.125l-0.271,0.245L281.891,237.455z M284.055,234.766l-0.234-0.105
		c-7.586-3.454-12.838-5.739-17.563-7.643l-0.953-0.384l14.973-8.646l0.207,0.063c5.675,1.714,11.867,3.977,18.931,6.917
		l0.935,0.389L284.055,234.766z M282.844,217.476l-1.08-0.343l19.383-11.192l0.236,0.113c4.49,2.146,9.748,4.946,16.074,8.559
		l0.756,0.434l-16.508,9.53l-0.229-0.098C294.537,221.542,288.443,219.251,282.844,217.476z M280.107,216.649l-0.205-0.061
		c-10.146-2.974-18.275-4.052-24.961-3.313l-2.367,0.262l5.525-3.191c1.379-0.762,2.381-1.331,2.924-1.644l0.395-0.271l6.207-3.585
		l0.027,0.097c1.635-0.642,3.076-1.294,4.361-1.876c3.383-1.531,6.307-2.854,10.348-2.854c4.258,0,9.354,1.443,16.522,4.683
		l0.89,0.401L280.107,216.649z M259.217,214.293c5.217,0,11.191,0.944,18.266,2.89l1.152,0.317l-14.807,8.55l-0.225-0.086
		c-9.027-3.488-15.765-5.235-21.195-5.497l-1.701-0.081l6.939-4.004C251.037,214.967,254.803,214.293,259.217,214.293z
		 M261.461,226.472l0.99,0.371l-14.055,8.117l-0.242-0.125c-7.453-3.857-13.133-6.223-17.87-7.438l-1.188-0.305l9.167-5.25
		C243.785,221.121,251.018,222.556,261.461,226.472z M248.432,236.377l0.244,0.128c4.158,2.187,8.855,4.803,15.709,8.749
		l0.752,0.433l-16.402,9.47l-0.252-0.15c-3.922-2.364-7.319-4.8-10.049-6.758c-1.362-0.979-2.721-1.945-4.106-2.9l-0.652-0.449
		L248.432,236.377z M259.863,250.171l5.272,3.042l-0.754,0.433c-5.479,3.151-11.198,6.38-15.905,8.647l-0.238,0.114l-4.787-2.763
		L259.863,250.171z M250.334,262.721c4.891-2.412,10.729-5.724,15.795-8.646l0.25-0.145l16.355,9.441l-0.883,0.402
		c-7.732,3.534-13.584,5.832-18.416,7.229l-0.205,0.059l-13.734-7.929L250.334,262.721z M267.586,253.191l0.695-0.442
		c5.408-3.449,10.773-7.524,15.945-12.113l0.27-0.239l16.545,9.552l-0.523,0.461c-5.321,4.667-10.774,8.75-16.203,12.134
		l-0.256,0.159L267.586,253.191z M285.471,239.522l0.504-0.46c2.844-2.606,5.849-5.631,9.185-9.242l0.116-0.094l10.162-5.869
		l13.256,7.652l-0.375,0.456c-5.016,6.105-10.403,11.783-16.016,16.872l-0.271,0.245L285.471,239.522z M306.684,223.138
		l29.131-16.815l-0.926,1.611c-4.545,7.902-9.635,15.394-15.129,22.264l-0.27,0.336L306.684,223.138z M319.457,214.327l-0.25-0.145
		c-6.172-3.55-11.377-6.356-15.914-8.582l-0.98-0.479l1.004-0.43l15.629-9.025l0.242,0.12c4.601,2.296,9.662,5.039,15.931,8.632
		l0.754,0.432L319.457,214.327z M301.082,204.541l-0.236-0.11c-8.168-3.82-13.881-5.524-18.524-5.524
		c-0.988,0-1.929,0.076-2.875,0.231l-2.707,0.444l21.233-12.259l0.205,0.059c5.943,1.684,11.846,3.975,18.572,7.21l0.854,0.41
		L301.082,204.541z M258.008,208.961c-2.293,1.268-5.99,3.268-10.637,5.63l-1.164,0.592l0.471-1.217
		c2.062-5.334,5.328-10.358,8.488-15.218l0.072-0.117c4.422-5.508,9.518-10.576,15.613-15.543l0.155-0.128l0.201,0.018
		c9.896,0.832,17.26,1.938,23.877,3.581l1.203,0.299L258.008,208.961z M268.295,183.6c-5.432,4.604-10.029,9.277-14.059,14.292
		l-0.113,0.178c-3.629,5.574-7.381,11.341-9.391,17.679l-0.064,0.201l-0.189,0.096c-2.264,1.122-4.549,2.223-6.789,3.271
		l-0.971,0.453l0.275-1.034c3.734-14.067,9.537-26.056,17.742-36.646l0.162-0.207l0.262,0.015c5.195,0.293,9.277,0.557,12.848,0.824
		l1.217,0.092L268.295,183.6z M226.401,225.688c0.767-0.313,1.529-0.63,2.292-0.949l0.443,0.895l-1.938,1.12l-0.412-0.064
		c-0.087-0.015-0.174-0.029-0.259-0.041l-1.881-0.242L226.401,225.688z M227.461,228.037l0.181,0.031
		c4.769,0.861,10.696,3.152,18.657,7.21l0.82,0.418l-14.604,8.434l-0.257-0.169c-5.404-3.536-10.567-6.023-16.741-8.066
		l-1.059-0.351L227.461,228.037z M232.477,245.588l0.26,0.176c1.695,1.146,3.359,2.34,4.972,3.494
		c2.883,2.068,5.746,4.096,9.092,6.167l0.709,0.438l-16.445,9.496l-16.412-9.478L232.477,245.588z M242.203,260.367l4.656,2.688
		l-0.9,0.397c-2.834,1.254-5.305,2.128-7.555,2.674l-0.295,0.07l-0.199-0.229c-0.414-0.474-0.838-0.986-1.262-1.498l-0.504-0.607
		L242.203,260.367z M239.777,266.984c2.373-0.66,5.024-1.671,8.106-3.093l0.234-0.107l13.422,7.748l-1.24,0.284
		c-2.909,0.666-5.51,0.99-7.944,0.99c-3.666,0-7.011-0.753-10.226-2.302l-0.142-0.101c-0.729-0.743-1.53-1.596-2.448-2.603
		l-0.547-0.603L239.777,266.984z M246.588,273.477c4.678,1.077,9.75,0.755,16.246-1.028l0.203-0.055l15.701,9.066l-1.234,0.286
		c-3.699,0.855-6.992,1.272-10.064,1.272c-7.766,0.001-14.332-2.676-21.289-8.677l-1.528-1.318L246.588,273.477z M264.707,271.916
		l1.076-0.346c4.867-1.558,10.6-3.886,18.037-7.326l0.233-0.108l16.314,9.42l-0.914,0.396c-7.72,3.331-13.699,5.552-18.822,6.984
		l-0.203,0.058L264.707,271.916z M285.266,263.397l0.693-0.442c5.42-3.459,10.783-7.534,15.943-12.114l0.27-0.239l16.549,9.555
		l-0.525,0.46c-5.321,4.666-10.774,8.747-16.206,12.133l-0.255,0.157L285.266,263.397z M303.146,249.727l0.502-0.461
		c5.559-5.093,10.889-10.749,15.846-16.812l0.268-0.329l16.611,9.59l-0.375,0.455c-5.039,6.131-10.428,11.809-16.018,16.874
		l-0.271,0.245L303.146,249.727z M320.563,231.153l0.361-0.454c5.973-7.506,11.373-15.558,16.051-23.93l0.248-0.441l16.627,9.6
		l-0.24,0.431c-4.696,8.409-10.139,16.5-16.17,24.048l-0.27,0.336L320.563,231.153z M337.76,205.198l27.896-16.104l-0.434,1.263
		c-2.834,8.264-6.38,16.346-10.537,24.022l-0.244,0.451L337.76,205.198z M337.117,204.131l-0.25-0.145
		c-6.24-3.595-11.262-6.345-15.801-8.655l-0.82-0.418l16.125-9.311l0.24,0.118c5.832,2.874,11.113,5.658,16.143,8.512l0.76,0.432
		L337.117,204.131z M318.906,194.249l-0.238-0.118c-6.635-3.267-12.375-5.603-18.07-7.354l-1.096-0.337l17.236-9.952l0.231,0.104
		c6.693,2.963,12.166,5.482,17.222,7.932l0.85,0.411L318.906,194.249z M297.828,185.971l-0.201-0.055
		c-6.762-1.85-14.146-3.074-23.943-3.975l-1.266-0.115l1.006-0.777c5.998-4.645,12.932-9.2,21.197-13.928l0.217-0.124l0.473,0.204
		c1.662,0.717,3.328,1.435,4.986,2.146c4.68,2.011,9.404,4.042,14.137,6.12l0.904,0.396L297.828,185.971z M292.551,166.88
		c-8.703,5.052-15.627,9.714-21.791,14.672l-0.156,0.125l-0.196-0.017c-3.765-0.307-8.084-0.598-13.599-0.918l-0.979-0.058
		l0.623-0.76c5.795-7.062,12.823-13.628,21.491-20.079l0.236-0.176l0.271,0.122c4.063,1.84,8.395,3.751,14.049,6.195l0.91,0.395
		L292.551,166.88z M276.303,159.611c-8.818,6.709-15.986,13.616-21.914,21.114l-0.135,0.117c-4.309,2.61-8.367,3.934-12.063,3.934
		l-1.072-0.016l0.379-0.719c6.445-12.279,13.488-22.473,21.531-31.162l0.254-0.275l0.336,0.167c3.799,1.891,7.916,3.849,12.59,5.987
		l0.758,0.347L276.303,159.611z M261.82,152.562c-8.127,8.898-15.242,19.27-21.752,31.704l-0.172,0.328l-0.64-0.114
		c-0.18-0.027-0.36-0.057-0.537-0.101c-3.854-0.959-7.393-3.644-10.518-7.977l-0.168-0.232l0.116-0.264
		c5.985-13.453,11.716-23.247,18.575-31.755l0.271-0.334l0.371,0.217c4.483,2.605,9.299,5.212,14.309,7.744l0.589,0.298
		L261.82,152.562z M245.525,143.617c-6.631,8.274-12.162,17.678-17.936,30.486l-0.389,0.861l-0.649-1.049
		c-0.081-0.125-0.162-0.25-0.24-0.385c-3.559-6.678-7.488-13.42-11.688-20.056l-0.165-0.261l0.159-0.265
		c5.77-9.589,11.379-17.121,17.653-23.708l0.36-0.38l0.363,0.377c3.688,3.85,7.019,7.909,9.894,12.07l0.262,0.248
		c0.412,0.25,0.83,0.493,1.248,0.736c0.332,0.191,0.664,0.385,0.992,0.581l0.491,0.294L245.525,143.617z M225.228,174.141
		c0.346,0.586,0.739,1.208,1.229,1.938l0.153,0.228l-0.11,0.251c-3.779,8.619-7.505,18.25-11.448,28.447l-1.851,4.785
		c-3.024,8.297-3.032,14.204-3.04,19.918l-0.001,0.377l-0.362,0.104c-2.946,0.837-5.736,1.482-8.295,1.917l-0.485,0.082
		l-0.091-0.482c-2.61-14.021-4.883-25.224-6.948-34.252l-0.038-0.164l0.07-0.154c2.211-4.862,3.961-10.12,5.201-15.627l0.043-0.118
		c5.512-10.796,9.788-18.955,14.07-26.254l0.417-0.71l0.438,0.697C218.163,161.464,221.88,167.863,225.228,174.141z
		 M206.318,232.396c4.277-1.017,9.08-2.511,14.275-4.438c0.99-0.194,1.969-0.282,2.988-0.282l1.992,0.017l-12.75,7.361l-0.205-0.061
		c-1.981-0.579-4.1-1.125-6.295-1.622l-2.104-0.477L206.318,232.396z M213.007,236.382l0.207,0.063
		c6.547,1.983,11.917,4.431,17.41,7.935l0.694,0.442l-17.915,10.344l-16.462-9.506L213.007,236.382z M229.818,266.08l-16.465,9.506
		l-16.414-9.479l16.465-9.508L229.818,266.08z M229.488,267.707l0.171,0.023c1.657,0.235,3.009,0.313,4.36,0.239l0.192-0.011
		l0.498,0.407l0.045,0.134c0.715,2.149,1.313,4.386,1.783,6.643l0.229,1.095l-2.097-1.257c-2.144-2.756-4.395-4.592-6.697-5.456
		l-0.99-0.371L229.488,267.707z M236.506,269.808l1.254,1.14c3.264,2.966,6.287,6.311,8.984,9.941l1.441,1.938l-10.021-5.784
		l-0.041-0.229c-0.322-1.813-0.722-3.62-1.187-5.368L236.506,269.808z M249.664,285.118l0.064,0.104
		c0.17,0.271,0.334,0.543,0.5,0.815l1.039,1.72l-4.861-2.317c-2.281-1.09-4.689-2.238-7.246-3.442l-0.154-0.072l-0.195-0.443
		c-0.047-0.422-0.104-0.836-0.164-1.251l-0.221-1.602L249.664,285.118z M281.918,281.851l1.1-0.336
		c5.097-1.555,10.963-3.806,18.463-7.084l0.232-0.102l16.498,9.523l-0.76,0.433c-6.418,3.651-11.797,6.386-16.443,8.355l-0.23,0.098
		L281.918,281.851z M302.941,273.602l0.692-0.442c5.418-3.455,10.783-7.53,15.945-12.113l0.271-0.239l16.547,9.553l-0.525,0.46
		c-5.314,4.66-10.766,8.742-16.203,12.135l-0.254,0.158L302.941,273.602z M320.826,259.933l0.504-0.46
		c5.557-5.096,10.887-10.751,15.842-16.812l0.268-0.329l16.607,9.59l-0.373,0.455c-5.025,6.115-10.414,11.792-16.016,16.872
		l-0.271,0.245L320.826,259.933z M338.24,241.358l0.361-0.454c5.977-7.511,11.377-15.562,16.053-23.93l0.248-0.442l16.625,9.601
		l-0.24,0.431c-4.707,8.422-10.148,16.514-16.174,24.047l-0.271,0.335L338.24,241.358z M355.49,215.434l0.232-0.428
		c4.694-8.661,8.563-17.633,11.493-26.666l0.062-0.184l2.703-1.563l14.754,8.518l-0.113,0.381
		c-2.912,9.659-7.037,19.446-12.26,29.09l-0.244,0.452L355.49,215.434z M354.77,193.94l-0.25-0.144
		c-4.893-2.808-10.133-5.596-16.02-8.525l-0.834-0.415l17.158-9.903l16.416,9.478L354.77,193.94z M336.33,184.191l-0.238-0.117
		c-5.139-2.514-10.738-5.115-17.119-7.955l-0.896-0.399l19.041-10.99l16.465,9.506L336.33,184.191z M316.666,175.094l-0.232-0.104
		c-5.385-2.377-10.897-4.75-15.643-6.787l-4.594-1.979l0.885-0.495c5.916-3.31,11.689-6.317,18.621-9.907l3.156-1.64l17.014,9.825
		L316.666,175.094z M315.129,154.715c-6.615,3.426-13.457,6.969-20.158,10.768l-0.217,0.123l-0.229-0.099
		c-5.672-2.447-10.248-4.459-14.404-6.333l-0.789-0.355l0.703-0.506c5.91-4.264,12.549-8.526,21.525-13.824l0.25-0.147l15.77,9.104
		L315.129,154.715z M299.844,144.065c-8.875,5.281-15.506,9.606-21.496,14.022l-0.236,0.174l-0.268-0.122
		c-4.877-2.22-9.143-4.238-13.047-6.17l-0.611-0.303l0.474-0.492c5.83-6.061,12.243-11.5,19.608-16.632l0.263-0.183l16.049,9.268
		L299.844,144.065z M282.734,134.144c-7.183,5.113-13.502,10.583-19.32,16.72l-0.256,0.27l-0.332-0.167
		c-5.063-2.543-9.941-5.173-14.504-7.816l-0.516-0.299l0.385-0.456c5.422-6.427,11.633-12.217,18.987-17.701l0.265-0.196
		l15.926,9.193L282.734,134.144z M265.66,124.271c-7.236,5.462-13.354,11.219-18.697,17.601l-0.273,0.324l-0.364-0.216
		c-0.314-0.187-0.636-0.371-0.953-0.554c-0.476-0.274-0.949-0.548-1.414-0.832l-0.149-0.142c-2.89-4.171-6.242-8.251-9.968-12.131
		l-0.338-0.352l0.345-0.346c4.567-4.605,9.655-8.923,15.557-13.198l0.262-0.19l16.6,9.582L265.66,124.271z M247.852,113.999
		c-5.604,4.111-10.467,8.261-14.862,12.685l-0.353,0.354l-0.354-0.353c-4.784-4.75-10.212-9.064-16.132-12.826l-0.634-0.402
		l0.616-0.43c4.181-2.91,8.854-5.887,14.706-9.364l0.252-0.15l17.379,10.032L247.852,113.999z M231.425,127.585l0.347,0.346
		l-0.338,0.354c-6.162,6.45-11.663,13.781-17.313,23.07l-0.414,0.683l-0.433-0.671c-4.855-7.533-10.146-14.996-15.722-22.184
		l-0.269-0.346l0.308-0.313c5.031-5.096,10.44-9.706,16.539-14.092l0.271-0.196l0.284,0.178
		C220.851,118.25,226.482,122.681,231.425,127.585z M212.83,152.968l0.166,0.259l-0.157,0.266
		c-4.474,7.554-8.8,15.787-14.759,27.456l-0.072,0.211c-0.964,4.335-2.297,8.62-3.943,12.677l-0.588,1.445l-0.362-1.519
		c-4.483-18.81-8.402-28.958-13.657-40.13l-0.102-0.214l0.102-0.213c0.954-2.001,1.762-3.866,2.471-5.701l0.057-0.107
		c4.584-6.521,9.167-12.164,14.01-17.25l0.401-0.421l0.356,0.46C202.525,137.646,207.936,145.31,212.83,152.968z M192.586,196.973
		l0.038,0.168l-0.073,0.156c-3.52,7.51-8.262,14.118-14.098,19.642l-0.567,0.537l-0.249-0.74
		c-1.936-5.738-3.673-11.467-5.431-17.318c-2.485-8.271-5.055-16.825-8.015-24.49l-0.121-0.312l0.24-0.229
		c5.461-5.234,10.121-11.518,13.852-18.679l0.47-0.903l0.427,0.924C184.123,166.686,187.961,176.947,192.586,196.973z
		 M177.586,220.336c1.172,3.326,2.395,6.51,3.631,9.463l0.399,0.953l-0.995-0.278c-2.266-0.634-4.721-1.42-7.295-2.335l-0.343-0.121
		c-1.235-0.44-2.476-0.903-3.719-1.388l-0.919-0.357l0.832-0.529c2.675-1.705,5.236-3.598,7.612-5.621l0.554-0.473L177.586,220.336z
		 M178.455,219.055l-0.107-0.311l0.242-0.223c5.623-5.16,10.287-11.272,13.858-18.172l0.632-1.222l0.3,1.342
		c1.878,8.416,3.941,18.68,6.308,31.379l0.097,0.521l-0.525,0.066c-1.322,0.168-2.454,0.271-3.461,0.312
		c-0.374,0.015-0.756,0.021-1.144,0.021c-3.203,0-7.007-0.532-11.305-1.583l-0.242-0.059l-0.099-0.229
		C181.523,227.473,180.033,223.598,178.455,219.055z M186.35,233.111l0.104,0.021c3.599,0.687,6.716,0.979,9.395,0.863
		c1.467-0.06,3.046-0.219,4.828-0.485l0.083-0.013l0.082,0.015c3.332,0.615,6.477,1.313,9.346,2.077l1.169,0.312l-15.657,9.042
		l-16.777-9.689l1.059-0.351c2.033-0.673,4.141-1.267,6.266-1.766L186.35,233.111z M212.162,255.881l-16.465,9.508l-16.463-9.506
		l16.465-9.508L212.162,255.881z M212.111,276.301l-16.414,9.478l-16.416-9.478l16.416-9.475L212.111,276.301z M212.34,277.607
		l-1.348,2.023c-0.184,0.274-0.368,0.551-0.554,0.843c-3.987,7.582-8.197,15.789-13.229,25.795l-0.526,1.047l-0.392-1.104
		c-3.428-9.662-8.427-18.366-14.859-25.869l-0.189-0.221l0.372-0.992l0.521,0.258l13.563,7.83L212.34,277.607z M165.628,322.365
		c4.837-13.274,9.812-26.752,14.787-40.055l0.302-0.809l0.551,0.664c6.412,7.732,11.305,16.674,14.543,26.571l0.063,0.195
		l-0.092,0.184c-5.643,11.273-11.085,22.461-16.177,33.254l-0.453,0.962l-0.451-0.963c-3.381-7.206-7.746-13.767-12.973-19.497
		l-0.204-0.224L165.628,322.365z M179.936,344.578c5.146-10.924,10.492-21.948,15.889-32.771l0.573-1.149l0.548,1.904
		c0.38,1.316,0.772,2.678,1.096,4.067l0.068,0.183c4.898,9.985,9.73,19.71,14.759,28.354l0.154,0.267l-0.168,0.258
		c-5.06,7.747-10.53,15.487-16.258,23.004l-0.362,0.477l-0.403-0.44c-4.772-5.191-9.206-10.972-13.556-17.671l-0.055-0.11
		c-0.674-1.97-1.445-3.975-2.293-5.96l-0.088-0.206L179.936,344.578z M199.263,316.328l-0.038-0.105
		c-0.551-2.359-1.199-4.728-1.929-7.038l-0.061-0.193l0.091-0.181c5.219-10.415,9.86-19.479,14.188-27.714
		c0.15-0.24,0.279-0.428,0.409-0.615l1.008-1.512l0.164,1.346c0.304,2.485,0.498,4.718,0.596,6.819l3.064,8.053
		c3.646,9.412,7.092,18.305,10.63,26.446l0.114,0.263l-0.17,0.231c-0.418,0.57-0.835,1.146-1.242,1.769
		c-3.65,6.495-7.645,13.12-11.854,19.66l-0.444,0.69l-0.41-0.713C209.01,335.944,204.738,327.497,199.263,316.328z M217.932,294.778
		l-3.001-7.803c-0.149-3.125-0.453-6.227-0.902-9.22l-0.032-0.211l0.13-0.168c0.395-0.514,0.788-0.993,1.178-1.448l0.13-0.107
		l9.063-5.23l1.741,1.003l0.011,0.277c0.061,1.699,0.074,3.418,0.04,5.105l-0.003,0.12l0.041,0.11
		c5.669,15.246,9.902,25.585,14.156,34.57l0.263,0.554l-0.597,0.146c-4.045,0.994-7.836,3.572-11.265,7.661l-0.521,0.622
		l-0.32-0.745C224.717,312.289,221.421,303.783,217.932,294.778z M227.569,276.973l-0.033-0.088l0.002-0.095
		c0.021-1.109,0-2.188-0.021-3.27l-0.022-1.206l6.45,3.771c1.226,1.622,2.445,3.578,3.628,5.813l0.055,0.183
		c0.133,1.276,0.231,2.556,0.301,3.798l0.091,0.318c4.789,10.211,9.909,19.08,15.627,27.025l1.053,1.463l-1.656-0.712
		c-3.77-1.621-7.381-2.258-10.725-1.893l-0.355,0.039l-0.152-0.321C237.59,302.878,233.33,292.463,227.569,276.973z
		 M239.207,285.778l-0.047-0.184c-0.018-0.285-0.043-0.567-0.068-0.848l-0.117-1.458l0.777,0.366
		c2.131,1.007,4.186,1.982,6.119,2.907c2.217,1.061,4.305,2.052,6.309,2.995l0.148,0.07l0.078,0.146
		c1.871,3.493,3.471,7.087,4.756,10.683l0.145,0.243c4.119,5.188,8.678,10.002,13.894,14.648l0.914,0.813l-1.224,0.059
		c-3.758,0.179-7.951,0.288-12.822,0.336l-0.143,0.001l-0.438-0.299C250.701,307.498,244.723,297.528,239.207,285.778z
		 M258.35,300.006l-0.078-0.144c-0.912-2.532-2.02-5.112-3.485-8.117l-0.613-1.257l1.271,0.581
		c5.91,2.705,10.268,4.418,14.127,5.556l0.106,0.047l27.394,15.813l-1.172,0.312c-6.412,1.698-13.125,2.698-21.769,3.241
		l-0.203,0.014l-0.153-0.132C267.918,310.902,262.873,305.696,258.35,300.006z M274.199,297.846l2.48,0.322
		c1.629,0.212,3.2,0.313,4.811,0.313c5.748,0,11.764-1.359,18.932-4.28l0.227-0.094l17.164,9.908l-0.825,0.417
		c-6.771,3.424-12.511,5.808-18.06,7.505L298.719,312l-0.188-0.108L274.199,297.846z M302.1,293.504l0.9-0.397
		c4.662-2.06,9.963-4.804,16.205-8.39l0.25-0.145l16.416,9.478l-0.754,0.433c-6.688,3.847-11.545,6.538-15.746,8.729l-0.244,0.127
		L302.1,293.504z M320.621,283.809l0.693-0.443c5.42-3.461,10.785-7.536,15.942-12.114l0.271-0.239l16.547,9.554l-0.525,0.46
		c-5.318,4.662-10.77,8.743-16.205,12.132l-0.254,0.159L320.621,283.809z M338.5,270.137l0.504-0.46
		c5.559-5.093,10.889-10.749,15.844-16.813l0.269-0.328l16.608,9.59l-0.373,0.455c-5.022,6.112-10.412,11.791-16.018,16.873
		l-0.271,0.244L338.5,270.137z M355.918,251.564l0.361-0.454c5.967-7.501,11.367-15.552,16.051-23.929l0.246-0.442l16.625,9.599
		l-0.24,0.431c-4.711,8.428-10.152,16.52-16.172,24.047l-0.27,0.335L355.918,251.564z M373.164,225.639l0.232-0.428
		c5.188-9.563,9.307-19.275,12.244-28.867l0.184-0.601l16.586,9.573l-0.113,0.38c-2.914,9.663-7.039,19.449-12.26,29.09l-0.244,0.45
		L373.164,225.639z M385.283,193.274l-0.176,0.618l-13.883-8.016l17.61-10.165l-0.129,1.002
		C388.002,182.158,386.85,187.73,385.283,193.274z M372.486,183.712l-16.42-9.479l16.416-9.478l16.418,9.479L372.486,183.712z
		 M354.824,173.516l-16.463-9.507l16.418-9.475l16.459,9.503L354.824,173.516z M337.117,163.291l-16.947-9.785l0.807-0.421
		c4.775-2.489,10.396-5.458,15.879-8.607l0.25-0.144l16.429,9.482L337.117,163.291z M335.096,144.041
		c-5.652,3.208-11.5,6.278-15.965,8.598l-0.242,0.126l-15.846-9.148l0.742-0.435c3.332-1.947,6.725-3.896,10.158-5.867l5.514-3.172
		l16.396,9.468L335.096,144.041z M313.322,136.235c-4.201,2.411-7.697,4.422-11.262,6.521l-0.252,0.147l-16.146-9.323l0.664-0.447
		c4.648-3.123,9.754-6.18,15.174-9.085l0.244-0.132l16.465,9.508L313.322,136.235z M299.699,123.614
		c-5.332,2.907-10.355,5.978-14.93,9.124l-0.261,0.18l-15.963-9.219l0.629-0.451c4.404-3.164,9.339-6.319,14.666-9.379l0.25-0.145
		l16.392,9.464L299.699,123.614z M282.102,113.439c-5.358,3.124-10.096,6.193-14.479,9.383l-0.263,0.191l-16.59-9.578l0.644-0.45
		c4.42-3.097,9.235-6.15,14.723-9.339l0.25-0.146l16.462,9.503L282.102,113.439z M264.406,103.222
		c-5.443,3.196-10.209,6.252-14.564,9.343l-0.262,0.187l-17.26-9.962l0.74-0.436c3.246-1.907,6.616-3.845,10.17-5.886l5.492-3.16
		l16.426,9.481L264.406,103.222z M242.609,95.387c-3.664,2.103-7.551,4.34-11.273,6.538l-0.251,0.147l-15.799-9.121l0.676-0.446
		c5.313-3.502,10.173-6.526,14.859-9.247l0.25-0.146l16.41,9.473L242.609,95.387z M229.85,102.796l-0.73,0.437
		c-5.654,3.38-10.257,6.341-14.485,9.318l-0.267,0.188l-0.278-0.167c-2.405-1.442-4.464-2.587-6.479-3.602l-8.41-4.856l0.628-0.451
		c4.792-3.451,9.517-6.736,14.045-9.766l0.259-0.173L229.85,102.796z M207.02,110.062c1.83,0.921,3.666,1.925,5.589,3.056
		l0.658,0.387l-0.617,0.449c-5.745,4.181-10.894,8.59-15.743,13.48l-0.398,0.402l-0.35-0.445c-2.198-2.794-4.18-5.24-6.059-7.478
		l-0.213-0.176c-1.239-0.758-2.553-1.559-3.866-2.358l-2.632-1.606l0.592-0.441c4.059-3.032,8.878-6.618,13.852-10.228l0.263-0.189
		L207.02,110.062z M184.356,117.817c1.601,0.975,3.2,1.948,4.786,2.93l0.121,0.104c1.875,2.236,3.868,4.701,6.094,7.535l0.268,0.341
		l-0.299,0.313c-5.004,5.231-9.727,11.04-14.439,17.755l-0.098,0.189c-0.408,1.073-0.9,2.169-1.376,3.229l-0.763,1.708l-0.468-0.974
		c-1.351-2.808-2.798-5.733-4.374-8.918l-0.623-1.231c-2.446-3.465-5.219-6.924-8.438-10.511l-0.369-0.412l0.446-0.326
		c5.481-3.999,10.944-8.079,15.636-11.589l1.854-1.387L184.356,117.817z M172.115,141.429l0.654,1.309
		c1.822,3.686,3.544,7.166,5.097,10.442l0.104,0.219l-0.106,0.217c-3.6,7.304-8.232,13.771-13.768,19.222l-0.532,0.523l-0.282-0.691
		c-1.75-4.309-3.463-7.923-5.233-11.052c-2.976-6.937-6.606-13.351-10.815-19.113l-0.309-0.421l0.435-0.29
		c4.937-3.293,10.058-6.868,15.659-10.929l0.363-0.264l0.302,0.334C166.885,134.489,169.643,137.922,172.115,141.429z
		 M156.932,162.17c1.869,3.303,3.68,7.162,5.511,11.747l0.128,0.32l-0.254,0.233c-3.908,3.585-8.229,6.74-12.843,9.375l-0.489,0.278
		l-0.219-0.519c-1.689-3.983-3.41-7.981-5.113-11.884c-3.418-7.003-7.512-13.513-12.162-19.331l-0.361-0.453l0.501-0.292
		c4.446-2.588,9.106-5.484,13.85-8.609l0.397-0.263l0.281,0.384C150.357,148.893,153.981,155.289,156.932,162.17z M142.522,172.244
		c1.612,3.69,3.179,7.335,4.729,10.987l0.394,0.929l-0.978-0.248c-4.196-1.065-8.527-2.017-12.875-2.826l-0.213-0.039l-0.117-0.185
		c-2.174-3.419-4.187-6.479-6.155-9.353l-0.12-0.136c-3.635-3.465-7.605-6.987-11.768-10.434l-0.604-0.5l0.709-0.336
		c5.365-2.545,9.998-4.936,14.162-7.309l0.369-0.211l0.268,0.332C134.988,158.709,139.092,165.212,142.522,172.244z M146.639,206.21
		l1.662,3.202l-2.47-2.629c-9.997-10.64-20.621-19.442-28.761-25.924l-1.34-1.066l1.703,0.179
		c5.174,0.542,10.277,1.266,15.168,2.149l0.217,0.039l0.117,0.187C137.844,190.122,142.455,198.151,146.639,206.21z
		 M126.279,172.231l0.068,0.08c1.511,2.208,3.129,4.651,4.945,7.473l0.615,0.954l-1.119-0.19c-5.508-0.94-11.128-1.665-16.705-2.153
		l-0.148-0.013l-0.117-0.092c-3.24-2.545-6.489-5.054-9.723-7.544c-0.904-0.465-1.881-0.987-2.856-1.51l-2.907-1.547l0.976-0.408
		c5.435-2.273,9.882-4.219,13.994-6.121l0.284-0.133l0.242,0.199C118.1,164.727,122.289,168.43,126.279,172.231z M99.188,169.542
		c1.414,0.755,2.827,1.51,4.238,2.246l0.787,0.598c2.059,1.591,4.125,3.188,6.193,4.8l1.289,1.005l-1.63-0.11
		c-2.195-0.15-4.21-0.259-6.161-0.331l-0.146-0.005l-0.134,0.06c-4.255,1.917-8.651,3.993-13.067,6.169l-0.24,0.118l-13.322-7.692
		l0.945-0.385c2.322-0.947,4.643-1.888,6.95-2.822l0.146-0.059c3.928-1.59,7.801-3.159,11.613-4.737l0.219-0.09L99.188,169.542z
		 M92.473,184.434c4.34-2.117,7.971-3.83,11.424-5.388l0.107-0.049l0.118,0.005c2.835,0.109,5.851,0.301,9.219,0.583l0.149,0.012
		l0.118,0.093c11.991,9.444,24.687,20.034,36.288,33.446l3.112,3.598l-3.792-2.872c-7.364-5.576-14.799-10.661-22.098-15.113
		l-0.313-0.108c-3.962-0.658-8.063-1.004-12.101-1.004l-0.914,0.005l-22.164-12.795L92.473,184.434z M149.643,185.68l-0.174-0.41
		l0.387-0.22c4.525-2.563,8.785-5.621,12.662-9.088l0.542-0.485l0.259,0.68c2.85,7.499,5.313,15.694,7.697,23.62
		c1.682,5.597,3.652,12.085,5.77,18.293l0.107,0.316l-0.252,0.221c-2.869,2.515-6.078,4.854-9.537,6.952l-0.217,0.131l-1.343-0.561
		l-0.077-0.197C159.895,210.531,154.865,198.059,149.643,185.68z M170.017,229.015c0.886,0.055,1.771,0.146,2.657,0.239l0.114,0.024
		c3.19,1.133,6.218,2.071,8.999,2.794l1.738,0.452l-1.721,0.513c-1.258,0.374-2.576,0.813-4.029,1.345l-0.22,0.08l-9.663-5.579
		L170.017,229.015z M177.397,235.808l17.058,9.852l-16.467,9.506L160.3,244.954l0.674-0.446c4.307-2.851,9.6-6.103,16.201-8.615
		L177.397,235.808z M194.453,266.108l-16.414,9.479l-16.463-9.506l16.412-9.479L194.453,266.108z M161.607,267.536l1.989,1.139
		l-3.22-0.132l0.744-1.124L161.607,267.536z M162.771,269.901l0.677,0.018l-0.512,1.525l-10.25,5.915l0.837-1.958
		c0.272-0.634,0.546-1.268,0.801-1.914c0.39-0.727,0.765-1.356,1.146-1.969l0.071-0.113l0.118-0.063
		c0.896-0.477,1.848-1.02,2.829-1.613l0.142-0.086l0.164,0.017C160.207,269.792,161.508,269.871,162.771,269.901z M162.33,273.228
		l-0.451,1.277c-0.662,1.872-1.339,3.689-2.012,5.406l-0.103,0.16c-4.136,4.36-8.518,7.985-13.025,10.774l-1.774,1.099l1.084-1.782
		c2.004-3.294,3.917-6.898,5.688-10.714l0.066-0.144L162.33,273.228z M149.199,281.872c-1.94,3.862-4.109,7.605-6.447,11.125
		l-0.073,0.11l-0.118,0.061c-6.877,3.452-14.357,5.268-22.23,5.394l-1.928,0.031l31.546-18.213L149.199,281.872z M139.81,295.615
		l1.632-0.677l-1.035,1.433c-6.352,8.779-14.088,16.533-22.995,23.046l-0.116,0.084l-0.144,0.012
		c-3.649,0.256-7.237,0.386-10.662,0.386l-0.585-0.036c-4.336-1.721-8.746-3.596-13.109-5.572l-0.887-0.4l24.801-14.317l0.145,0.005
		C124.98,299.899,132.691,298.567,139.81,295.615z M105.645,321.096l0.316,0.052l0.683-0.006c2.093,0,4.365-0.058,6.946-0.173
		l1.776-0.081l-1.474,0.994c-2.658,1.793-5.434,3.501-8.25,5.077c-4.615,2.145-9.371,4.454-14.576,7.079l-0.213,0.107l-0.218-0.098
		c-2.532-1.143-4.735-2.196-6.737-3.228l-10.664-6.154l17.369-10.026l0.234,0.107C95.859,317.059,100.841,319.195,105.645,321.096z
		 M93.291,334.299c4.326-2.163,8.673-4.261,12.918-6.232c3.871-2.167,7.696-4.604,11.336-7.229l0.115-0.083l0.142-0.012
		c6.574-0.479,13.272-1.432,19.909-2.831l1.297-0.272l-0.793,1.062c-2.018,2.705-3.948,5.157-5.901,7.498l-0.085,0.08
		c-6.8,5.073-13.936,10.105-21.207,14.957l-0.191,0.128l-0.222-0.063c-5.863-1.652-11.681-3.703-17.29-6.095l-0.994-0.424
		L93.291,334.299z M113.303,341.19c6.91-4.646,13.563-9.354,19.775-13.993l0.145-0.143c2.488-2.98,5.027-6.249,7.508-9.674
		l0.108-0.151l0.182-0.042c3.409-0.802,6.943-1.774,10.505-2.894l1.026-0.32l-0.416,0.992c-1.58,3.771-3.161,7.453-4.7,10.944
		c-3.875,7.227-8.41,13.857-13.496,19.747l-0.217,0.25l-0.314-0.102c-6.65-0.759-13.367-2.007-19.952-3.717l-1.075-0.279
		L113.303,341.19z M135.144,346.155c5.062-5.914,9.573-12.542,13.409-19.698c1.678-3.812,3.367-7.755,5.146-12.02l0.25-0.597
		l0.514,0.391c3.324,2.523,6.494,5.374,9.424,8.472l0.213,0.226l-1.269,3.479c-1.187,3.254-2.374,6.511-3.544,9.755
		c-3.098,7.121-6.895,13.688-11.299,19.55l-0.323,0.429l-0.405-0.354c-3.67-3.19-7.708-6.18-12.002-8.883l-0.49-0.308
		L135.144,346.155z M148.861,356.618c4.513-5.973,8.41-12.702,11.584-19.999c0.988-2.742,2.003-5.523,3.016-8.304l1.589-4.358
		l0.557,0.63c5.21,5.895,9.505,12.632,12.765,20.021l0.092,0.209l-1.332,2.834c-1.45,3.082-2.9,6.166-4.313,9.243
		c-3.341,4.7-7.101,9.199-11.222,13.453l-0.404,0.418l-0.353-0.463c-3.534-4.648-7.543-9.026-11.915-13.015l-0.338-0.307
		L148.861,356.618z M162.212,371.462c4.317-4.434,8.247-9.125,11.677-13.945c1.017-2.232,2.104-4.543,3.191-6.854l2.029-4.32
		l0.504,1.258c0.502,1.256,1.021,2.554,1.473,3.88l0.098,0.189c4.462,6.88,9.051,12.851,13.999,18.198l0.287,0.312l-0.259,0.335
		c-2.184,2.831-4.125,5.29-5.935,7.518l-0.125,0.109c-3.639,2.253-7.304,4.49-10.983,6.719l-0.271,0.164l-0.264-0.175
		c-4.91-3.261-9.175-6.313-13.035-9.333l-0.108-0.116c-0.707-1.063-1.466-2.109-2.198-3.122l-0.373-0.515L162.212,371.462z
		 M179.734,385.364c3.425-2.078,6.844-4.164,10.234-6.264l0.213-0.195c1.786-2.209,3.701-4.631,5.797-7.344l0.354-0.458l0.402,0.417
		c3.533,3.668,7.188,6.98,11.172,10.131l0.507,0.401l-3.761,2.854c-3.93,2.984-7.898,5.994-11.906,8.981l-0.267,0.199l-0.286-0.17
		c-4.477-2.64-8.557-5.159-12.473-7.706l-0.668-0.435L179.734,385.364z M197.399,370.392l-0.296-0.31l0.26-0.341
		c5.561-7.28,10.919-14.837,15.926-22.456l0.438-0.666l0.409,0.685c4.588,7.665,9.03,13.882,13.983,19.563l0.365,0.418l-0.455,0.319
		c-6.545,4.597-12.907,9.364-18.268,13.421l-0.307,0.232l-0.303-0.237C204.939,377.725,201.095,374.248,197.399,370.392z
		 M214.655,345.721l-0.157-0.268l0.168-0.26c4.382-6.765,8.583-13.713,12.486-20.652c0.093-0.146,0.172-0.256,0.251-0.365
		l0.666-0.974l0.366,0.822c5.797,13.016,11.338,22.593,17.965,31.052l0.354,0.451l-1.389,0.803
		c-0.459,0.264-0.918,0.525-1.369,0.798c-4.357,2.617-8.969,5.618-14.099,9.175l-0.367,0.254l-0.294-0.336
		C224.081,360.332,219.448,353.818,214.655,345.721z M229.055,322.323l-0.121-0.272l0.185-0.235
		c3.554-4.551,7.523-7.316,11.804-8.223l0.384-0.081l0.17,0.352c6.407,13.191,13.092,23.503,21.032,32.45l0.433,0.486l-0.582,0.292
		c-4.922,2.479-9.672,5.029-14.117,7.581l-0.375,0.215l-0.266-0.339C240.779,345.894,235.061,335.955,229.055,322.323z
		 M242.865,314.01l-0.328-0.675l0.748-0.044c4.074-0.238,8.551,1.088,13.32,3.939l0.139,0.121
		c6.113,7.854,13.012,14.895,21.092,21.525l0.617,0.508l-0.727,0.333c-5.009,2.295-9.396,4.381-13.414,6.377l-0.342,0.169
		l-0.255-0.283C255.836,337.215,249.209,327.055,242.865,314.01z M259.33,318.595l-0.648-0.802l1.031-0.015
		c5.234-0.071,9.668-0.219,13.553-0.453l0.201-0.012l0.152,0.129c5.791,4.903,12.344,9.589,20.031,14.327l0.813,0.502l-0.875,0.382
		c-5.008,2.184-9.445,4.152-13.568,6.021l-0.28,0.128l-0.24-0.194C271.787,332.363,265.191,325.817,259.33,318.595z
		 M276.232,317.988l-0.967-0.789l1.243-0.097c8.375-0.653,15.298-1.839,21.779-3.733l0.205-0.061l16.957,9.793l-0.898,0.397
		c-4.821,2.14-9.637,4.233-14.407,6.305l-4.269,1.854l-0.222-0.134C288.205,327,281.852,322.573,276.232,317.988z M300.135,312.821
		l1.062-0.35c5.362-1.769,10.967-4.183,17.639-7.598l0.242-0.125l16,9.237l-0.847,0.412c-4.991,2.437-10.44,4.967-17.147,7.968
		l-0.231,0.104L300.135,312.821z M320.393,304.07l0.801-0.423c4.164-2.193,8.998-4.887,15.671-8.732l0.25-0.145l16.399,9.465
		l-0.76,0.432c-5.051,2.867-10.32,5.657-16.111,8.528l-0.237,0.119L320.393,304.07z M338.297,294.013l0.693-0.443
		c5.42-3.459,10.785-7.533,15.945-12.111l0.27-0.239l16.545,9.552l-0.523,0.46c-5.317,4.663-10.771,8.745-16.205,12.134
		l-0.254,0.159L338.297,294.013z M356.178,280.344l0.502-0.46c5.563-5.099,10.894-10.754,15.844-16.813l0.271-0.328l16.608,9.59
		l-0.375,0.455c-5.028,6.12-10.418,11.798-16.018,16.873l-0.271,0.244L356.178,280.344z M373.592,261.768l0.361-0.454
		c5.971-7.504,11.373-15.555,16.055-23.929l0.246-0.442l16.627,9.599l-0.24,0.431c-4.703,8.417-10.145,16.509-16.176,24.05
		l-0.268,0.335L373.592,261.768z M390.842,235.846l0.232-0.428c5.18-9.554,9.301-19.267,12.244-28.869l0.184-0.602l16.586,9.574
		l-0.115,0.38c-2.912,9.661-7.035,19.449-12.258,29.093l-0.244,0.45L390.842,235.846z M402.959,203.478l-0.176,0.618l-16.586-9.575
		l0.109-0.376c1.825-6.339,3.106-12.71,3.811-18.937l0.027-0.239l0.301-0.188l2.15-1.254c0.7-0.415,1.399-0.829,2.098-1.213
		c0.297-0.163,0.592-0.316,0.887-0.471l0.471-0.248c0.953-0.507,1.908-0.996,2.857-1.459c0.523-0.254,1.043-0.499,1.564-0.741
		c0.889-0.409,1.772-0.795,2.651-1.165l0.312-0.131c0.422-0.179,0.846-0.357,1.266-0.523c0.291-0.115,0.58-0.22,0.867-0.322
		l1.113-0.411l0.069,0.639c0.281,2.589,0.424,5.232,0.424,7.856C407.176,184.104,405.756,193.572,402.959,203.478z M405.029,166.103
		c-0.094,0.036-0.188,0.076-0.281,0.116c-0.104,0.044-0.209,0.089-0.313,0.129c-0.757,0.293-1.515,0.612-2.273,0.938
		c-0.641,0.272-1.281,0.557-1.926,0.851c-0.695,0.319-1.396,0.644-2.096,0.988c-0.445,0.217-0.894,0.44-1.341,0.669
		c-0.807,0.411-1.612,0.838-2.424,1.278l-0.94,0.514c-1.015,0.565-2.027,1.152-3.043,1.771l-0.255,0.154l-16.372-9.452l0.737-0.436
		c5.092-3.008,10.174-5.417,15.103-7.161l0.219-0.077l16.18,9.341L405.029,166.103z M387.398,155.924
		c-4.76,1.824-9.679,4.268-14.615,7.264l-0.254,0.154l-16.445-9.493l0.738-0.436c5.09-3.007,10.17-5.416,15.102-7.161l0.219-0.077
		l16.236,9.374L387.398,155.924z M369.719,145.717c-4.77,1.827-9.688,4.271-14.617,7.264l-0.254,0.154l-16.445-9.493l0.738-0.436
		c5.088-3.006,10.17-5.416,15.103-7.163l0.219-0.077l16.238,9.375L369.719,145.717z M352.037,135.511
		c-4.756,1.819-9.674,4.262-14.617,7.262l-0.254,0.153l-16.447-9.495l0.738-0.436c5.084-3.003,10.166-5.412,15.104-7.159l0.22-0.077
		l16.237,9.376L352.037,135.511z M334.357,125.301c-4.771,1.825-9.689,4.268-14.621,7.263l-0.252,0.154l-16.449-9.496l0.738-0.436
		c5.084-3.003,10.166-5.412,15.104-7.158l0.217-0.077l16.242,9.375L334.357,125.301z M316.672,115.092
		c-4.768,1.824-9.686,4.268-14.619,7.262l-0.254,0.154l-16.447-9.496l0.738-0.436c5.09-3.005,10.174-5.413,15.107-7.158l0.219-0.077
		l16.236,9.375L316.672,115.092z M298.992,104.885c-4.766,1.821-9.686,4.264-14.623,7.261l-0.254,0.154l-16.447-9.497l0.738-0.435
		c5.09-3.006,10.174-5.413,15.109-7.158l0.219-0.077l16.238,9.377L298.992,104.885z M281.311,94.677
		c-4.766,1.82-9.686,4.263-14.625,7.26l-0.254,0.154l-16.445-9.495l0.738-0.436c5.088-3.006,10.172-5.413,15.111-7.156l0.217-0.077
		l16.24,9.375L281.311,94.677z M263.629,84.466c-4.762,1.819-9.684,4.262-14.629,7.26l-0.254,0.153l-16.441-9.494l0.738-0.437
		c5.086-3.002,10.17-5.409,15.109-7.155l0.219-0.077l16.238,9.375L263.629,84.466z M245.949,74.26
		c-4.768,1.82-9.689,4.262-14.627,7.259l-0.253,0.154l-16.447-9.495l0.738-0.436c5.1-3.009,10.184-5.416,15.112-7.156l0.217-0.077
		l16.243,9.376L245.949,74.26z M229.842,82.404l-0.741,0.436c-4.775,2.801-9.603,5.826-14.758,9.248l-0.258,0.171l-17.143-9.896
		l16.414-9.478L229.842,82.404z M212.923,93.024l-0.664,0.448c-4.519,3.041-9.224,6.327-13.984,9.768l-0.263,0.189l-18.777-10.844
		l16.463-9.506L212.923,93.024z M196.918,104.231l-0.623,0.453c-5.031,3.66-10.006,7.365-13.779,10.186l-0.271,0.202l-0.288-0.176
		c-6.331-3.854-12.926-7.792-19.601-11.703l-0.741-0.435l16.373-9.454L196.918,104.231z M180.54,115.487l0.631,0.384l-1.454,1.091
		c-5.045,3.772-10.418,7.784-15.782,11.694l-0.358,0.262l-0.302-0.324c-5.403-5.789-11.485-11.015-18.079-15.532l-0.654-0.449
		l15.831-9.139l0.251,0.146C167.414,107.592,174.115,111.584,180.54,115.487z M162.183,129.239l0.389,0.414l-0.46,0.333
		c-5.514,3.991-10.6,7.536-15.546,10.84l-0.389,0.259l-0.285-0.37c-5.214-6.772-11.339-12.677-18.206-17.549l-0.636-0.451
		l16.265-9.392l0.258,0.174C150.416,118.079,156.678,123.375,162.183,129.239z M144.793,141.353l0.33,0.427l-0.451,0.297
		c-4.906,3.229-9.48,6.067-13.984,8.681l-0.363,0.211l-0.271-0.322c-5.696-6.795-12.271-12.701-19.54-17.552l-0.669-0.447
		l15.986-9.229l0.26,0.18C133.179,128.498,139.471,134.472,144.793,141.353z M128.848,151.15l0.39,0.461l-0.524,0.297
		c-4.426,2.509-9.229,4.973-14.684,7.53l-0.284,0.133l-0.243-0.196c-6.818-5.521-14.109-10.729-21.67-15.481l-0.702-0.44
		l17.481-10.094l0.257,0.167C116.341,138.385,123.063,144.314,128.848,151.15z M111.844,159.652l0.633,0.508l-0.736,0.338
		c-4.316,1.979-9.094,4.054-14.607,6.344l-0.219,0.09l-0.208-0.111c-7.595-4.052-15.271-8.273-22.813-12.548l-0.761-0.431
		l16.766-9.68l0.255,0.157C97.691,149,104.988,154.159,111.844,159.652z M94.498,167.046l0.934,0.5l-0.979,0.402
		c-3.303,1.36-6.645,2.716-10.033,4.089c-2.838,1.148-5.697,2.313-8.561,3.482l-0.227,0.093l-20.108-11.604l16.36-9.445l0.248,0.143
		C79.612,158.955,87.137,163.107,94.498,167.046z M74.178,176.211l-0.938,0.388c-6.815,2.813-12.423,5.247-17.646,7.656
		l-0.236,0.107l-17.543-10.129l16.465-9.506L74.178,176.211z M57.564,184.724c5.223-2.377,10.863-4.803,17.75-7.633l0.227-0.093
		l13.469,7.775l-0.83,0.416c-5.229,2.619-10.504,5.41-16.123,8.533l-0.248,0.137l-15.128-8.732L57.564,184.724z M73.837,194.156
		c5.876-3.24,11.179-6.03,16.21-8.528l0.24-0.119l0.232,0.135c6.49,3.75,12.993,7.504,19.469,11.241l1.406,0.812l-1.619,0.12
		c-7.412,0.549-14.553,2.389-21.227,5.466l-0.234,0.108l-15.254-8.806L73.837,194.156z M90.539,203.752
		c7.112-3.055,14.783-4.688,22.797-4.853l0.14-0.003l13.043,7.53l-0.022,0.038c0.609,0.373,1.778,1.082,3.396,2.035l2.268,1.336
		l-2.6-0.411c-7.604-1.204-15.525,0.125-23.527,3.943l-0.238,0.112l-16.173-9.337L90.539,203.752z M107.911,213.789
		c10.462-4.679,20.673-4.825,30.498-0.448c0.505,0.277,0.981,0.538,1.466,0.801l7.594,4.386l-2.078-0.108
		c-7.117-0.371-14.459,1.323-21.945,5.001l-0.239,0.117l-16.188-9.349L107.911,213.789z M125.392,223.885
		c8.737-3.994,17.379-5.196,25.255-3.498l0.145,0.056l12.633,7.296l-1.594,0.133c-7.117,0.588-14.067,2.532-20.658,5.779
		l-0.24,0.118l-16.422-9.479L125.392,223.885z M143.118,234.122c7.105-3.277,14.589-5.021,22.241-5.183l0.139-0.003l10.559,6.099
		l-0.938,0.387c-6.397,2.636-11.552,5.862-15.75,8.672l-0.259,0.173l-16.868-9.74L143.118,234.122z M159.152,245.725l17.594,10.158
		l-16.413,9.478l-16.444-9.492l0.717-0.439c3.754-2.299,7.055-4.552,10.674-7.047l0.381-0.264c1.09-0.752,2.164-1.491,3.232-2.218
		L159.152,245.725z M157.055,264.906l-0.487,0.552c-0.651,0.736-1.304,1.477-1.96,2.161l-0.187,0.192l-0.265-0.048
		c-3.637-0.669-7.234-1.733-10.689-3.165l-0.937-0.388l6.66-3.848L157.055,264.906z M152.445,268.695l0.926,0.196l-0.684,0.654
		c-1.438,1.378-2.771,2.546-4.074,3.569l-0.141,0.078c-4.181,1.486-8.361,2.24-12.428,2.24c-3.041,0-6.098-0.422-9.088-1.252
		l-1.148-0.318l15.375-8.877l0.233,0.105C144.916,266.673,148.627,267.885,152.445,268.695z M142.455,276.042l2.98-0.526
		l-2.652,1.457c-5.633,3.094-11.72,4.598-18.609,4.599c-2.73,0-5.654-0.241-8.691-0.719l-1.398-0.22l10.396-6.001l0.213,0.07
		C130.527,276.642,136.505,277.092,142.455,276.042z M124.166,282.758c9.474,0,17.363-2.68,24.829-8.435l0.137-0.073
		c0.991-0.354,2.009-0.766,3.114-1.252l1.128-0.498l-0.462,1.143c-0.6,1.482-1.254,2.999-2.002,4.637l-0.066,0.146l-0.139,0.079
		c-11.482,6.632-22.963,13.26-34.455,19.893l-0.13,0.075l-0.149-0.009c-7.01-0.409-14.57-2.092-22.471-5.001l-1.002-0.368
		l20.004-11.548l0.184,0.035C116.748,282.363,120.611,282.758,124.166,282.758z M112.893,299.289l1.541,0.155l-23.89,13.793
		l-0.235-0.108c-5.716-2.652-11.296-5.45-16.584-8.315l-0.786-0.426l18.237-10.528l0.222,0.085
		C98.887,296.804,106.119,298.603,112.893,299.289z M88.361,313.591l0.865,0.407l-17.235,9.951l-16.47-9.509l16.161-9.328
		l0.247,0.136C77.173,308.121,82.701,310.928,88.361,313.591z M70.748,324.666l-16.467,9.507l-16.467-9.507l16.465-9.506
		L70.748,324.666z M71.991,325.386l11.312,6.528c1.492,0.768,3.158,1.576,5.222,2.538l0.929,0.433l-0.912,0.467
		c-5.414,2.77-10.952,5.736-16.459,8.817l-0.248,0.139l-16.31-9.416L71.991,325.386z M73.862,344.602
		c5.954-3.308,11.464-6.243,16.845-8.973l0.212-0.106l0.216,0.096c5.689,2.511,11.5,4.648,17.271,6.355l1.031,0.306l-0.898,0.592
		c-6.014,3.957-12.253,7.866-18.547,11.62l-0.252,0.15l-16.648-9.611L73.862,344.602z M91.701,354.918
		c6.674-4.004,13.122-8.066,19.164-12.077l0.189-0.125l0.219,0.06c6.752,1.851,13.668,3.219,20.553,4.067l0.96,0.118l-0.651,0.715
		c-6.529,7.162-14.066,13.291-22.401,18.216l-0.251,0.147l-18.51-10.685L91.701,354.918z M111.458,366.326
		c8.259-5.021,15.729-11.237,22.204-18.474l0.28-0.313l0.356,0.224c4.352,2.716,8.469,5.759,12.24,9.043l0.359,0.313l-0.297,0.374
		c-5.643,7.111-12.34,13.225-19.906,18.169l-0.258,0.168l-15.7-9.064L111.458,366.326z M128.338,376.095
		c7.201-4.838,13.643-10.796,19.145-17.709l0.332-0.419l0.396,0.36c4.342,3.969,8.317,8.33,11.817,12.966l0.263,0.35l-0.31,0.308
		c-5.071,5.026-10.599,9.548-16.429,13.439l-0.259,0.172l-15.622-9.021L128.338,376.095z M145.174,385.822
		c5.377-3.67,10.569-7.963,15.432-12.761l0.416-0.41l0.45,0.625c0.691,0.959,1.405,1.95,2.079,2.962l0.193,0.201
		c3.686,2.879,7.73,5.796,12.309,8.863l0.653,0.438l-0.674,0.406c-4.778,2.879-9.819,5.867-15.407,9.133l-0.25,0.146l-15.857-9.155
		L145.174,385.822z M162.359,395.709c5.85-3.428,10.694-6.305,15.246-9.055l0.27-0.163l0.264,0.173
		c3.964,2.601,8.087,5.165,12.604,7.843l0.648,0.384l-0.605,0.448c-5.159,3.814-9.412,6.862-13.383,9.59l-0.261,0.179l-15.524-8.964
		L162.359,395.709z M178.98,405.345c4.038-2.791,8.391-5.921,13.307-9.568l0.266-0.197l0.285,0.167
		c6.127,3.585,12.396,7.073,18.258,10.31l0.775,0.428l-16.174,9.34l-17.366-10.027L178.98,405.345z M194.291,395.158l-0.652-0.38
		l0.605-0.452c3.758-2.806,7.475-5.629,11.159-8.432l4.044-3.068l0.303,0.23c5.227,3.977,11.175,7.879,19.285,12.653l0.738,0.435
		l-16.645,9.612l-0.247-0.138C206.291,401.983,200.344,398.684,194.291,395.158z M211.012,382.443l-0.529-0.397l0.528-0.399
		c5.277-3.995,11.537-8.686,17.944-13.179l0.361-0.253l0.296,0.325c5.292,5.833,11.269,11.18,18.272,16.343l0.615,0.453
		l-17.486,10.096l-0.251-0.146C222.254,390.302,216.347,386.461,211.012,382.443z M230.752,367.906l-0.386-0.423l0.471-0.325
		c4.962-3.43,9.476-6.359,13.8-8.962c0.508-0.305,1.021-0.599,1.537-0.893c0.334-0.191,0.67-0.383,1.004-0.577l0.369-0.216
		l0.27,0.331c5.234,6.399,11.17,12.162,18.146,17.614l0.584,0.456l-16.857,9.734l-0.262-0.191
		C242.244,379.223,236.135,373.81,230.752,367.906z M249.039,356.32l-0.377-0.457l0.516-0.295c4.496-2.569,9.305-5.142,14.293-7.646
		l0.338-0.168l0.254,0.274c5.535,5.989,11.715,11.418,18.894,16.597l0.625,0.452l-15.865,9.159l-0.266-0.205
		C260.385,368.579,254.363,362.785,249.039,356.32z M265.309,347.711l-0.463-0.491l0.605-0.299
		c4.289-2.119,8.805-4.258,13.803-6.536l0.277-0.127l0.24,0.189c5.819,4.63,12.293,9.148,20.371,14.222l0.702,0.44l-16.108,9.299
		l-0.262-0.185C277.146,359.049,270.877,353.648,265.309,347.711z M281.479,340.188l-0.649-0.51l0.752-0.34
		c4.188-1.891,8.625-3.854,13.965-6.178l0.236-0.104l0.221,0.133c6.765,4.064,13.777,7.868,20.965,11.73l0.791,0.425l-15.688,9.056
		l-0.254-0.159C293.762,349.219,287.299,344.752,281.479,340.188z M298.018,332.948l-0.842-0.499l3.465-1.505
		c4.791-2.08,10.367-4.506,15.906-6.976l0.232-0.104l19.092,11.023l-16.844,9.725l-0.244-0.132
		C311.889,340.778,304.76,336.948,298.018,332.948z M318.184,323.239l0.892-0.399c6.284-2.825,11.86-5.439,17.047-7.991l0.237-0.118
		l17.218,9.938l-16.459,9.503L318.184,323.239z M337.697,314.059l0.83-0.416c5.885-2.947,11.115-5.74,15.992-8.539l0.25-0.145
		l16.471,9.512l-16.416,9.478L337.697,314.059z M355.975,304.22l0.695-0.443c5.412-3.455,10.775-7.53,15.943-12.114l0.27-0.239
		l16.545,9.555l-0.525,0.46c-5.321,4.667-10.772,8.75-16.198,12.134l-0.256,0.159L355.975,304.22z M373.855,290.549l0.502-0.46
		c5.563-5.097,10.893-10.752,15.844-16.811l0.27-0.328l16.609,9.587l-0.375,0.456c-5.025,6.116-10.416,11.794-16.018,16.873
		l-0.271,0.245L373.855,290.549z M391.271,271.975l0.36-0.454c5.97-7.503,11.369-15.555,16.052-23.931l0.248-0.442l16.626,9.601
		l-0.239,0.431c-4.709,8.423-10.148,16.514-16.172,24.049l-0.271,0.335L391.271,271.975z M408.52,246.05l0.232-0.428
		c5.182-9.558,9.301-19.271,12.244-28.869l0.184-0.602l16.584,9.576l-0.114,0.38c-2.912,9.665-7.035,19.453-12.259,29.09
		l-0.244,0.451L408.52,246.05z M421.551,214.932l0.109-0.376c2.945-10.235,4.438-19.997,4.438-29.013
		c0-2.182-0.108-4.444-0.338-6.92l-0.088-0.961l16.359,9.443l0.028,0.25c0.312,2.694,0.47,5.519,0.47,8.393
		c0,8.768-1.418,18.234-4.218,28.143l-0.174,0.618L421.551,214.932z M425.492,176.122l-0.033-0.244
		c-0.559-4.203-1.559-8.207-2.969-11.901l-0.242-0.637l0.68-0.04c0.334-0.021,0.666-0.034,0.996-0.046
		c0.314-0.012,0.631-0.022,0.943-0.027l0.799-0.008c1.148,0,2.168,0.038,3.117,0.115l0.344,0.029
		c0.908,0.082,1.793,0.194,2.646,0.336l0.303,0.046c0.102,0.017,0.197,0.04,0.293,0.062c0.072,0.018,0.143,0.033,0.215,0.046
		l0.178,0.032l0.117,0.138c4.453,5.281,7.402,12.171,8.764,20.479l0.173,1.042L425.492,176.122z M421.359,162.166
		c-0.562,0.052-1.119,0.104-1.685,0.176c-0.217,0.026-0.432,0.058-0.646,0.09l-0.365,0.053c-0.658,0.098-1.322,0.204-1.99,0.328
		c-0.459,0.083-0.914,0.167-1.375,0.262c-0.584,0.124-1.178,0.263-1.771,0.405c-0.867,0.207-1.74,0.438-2.617,0.688l-0.109,0.03
		c-0.465,0.133-0.93,0.265-1.397,0.409c-0.533,0.166-1.07,0.342-1.607,0.523l-0.213,0.072l-16.201-9.355l1.1-0.336
		c5.136-1.569,10.086-2.405,14.72-2.485l0.139-0.002l15.584,8.996L421.359,162.166z M403.717,151.981
		c-4.346,0.399-8.908,1.396-13.557,2.966l-0.215,0.072l-16.246-9.38l1.1-0.336c5.137-1.568,10.09-2.404,14.725-2.484l0.14-0.002
		l15.623,9.021L403.717,151.981z M386.043,141.776c-4.357,0.399-8.918,1.396-13.559,2.964l-0.215,0.072l-16.252-9.381l1.1-0.336
		c5.135-1.568,10.09-2.403,14.727-2.483l0.139-0.002l15.629,9.022L386.043,141.776z M368.363,131.569
		c-4.348,0.396-8.91,1.395-13.562,2.965l-0.215,0.071l-16.25-9.381l1.101-0.336c5.133-1.568,10.088-2.402,14.729-2.479l0.139-0.003
		l15.627,9.021L368.363,131.569z M350.684,121.363c-4.352,0.396-8.914,1.394-13.563,2.961l-0.215,0.072l-16.252-9.383l1.102-0.335
		c5.143-1.569,10.1-2.402,14.732-2.477l0.137-0.003l15.629,9.021L350.684,121.363z M333.002,111.155
		c-4.352,0.396-8.916,1.392-13.566,2.96l-0.215,0.072l-16.248-9.382l1.103-0.335c5.143-1.568,10.1-2.4,14.735-2.475l0.14-0.002
		l15.623,9.02L333.002,111.155z M315.322,100.948c-4.35,0.395-8.914,1.39-13.566,2.958l-0.215,0.072l-16.25-9.381l1.102-0.335
		c5.137-1.567,10.097-2.4,14.74-2.475l0.139-0.002l0.119,0.068l15.502,8.952L315.322,100.948z M297.646,90.742
		c-4.361,0.396-8.929,1.391-13.57,2.956l-0.215,0.072l-16.25-9.382l1.102-0.336c5.141-1.566,10.1-2.398,14.742-2.473l0.137-0.002
		l15.625,9.021L297.646,90.742z M279.965,80.533c-4.359,0.396-8.926,1.39-13.574,2.954l-0.213,0.072l-16.246-9.378l1.103-0.336
		c5.145-1.566,10.104-2.398,14.745-2.471l0.138-0.002l0.121,0.068l15.498,8.948L279.965,80.533z M262.289,70.328
		c-4.352,0.392-8.92,1.385-13.578,2.953l-0.213,0.072l-16.25-9.38l1.102-0.335c5.146-1.566,10.109-2.397,14.746-2.471l0.139-0.002
		l0.119,0.068l15.509,8.953L262.289,70.328z M198.521,61.036c0.865-0.5,1.73-0.98,2.596-1.446c0.527-0.284,1.037-0.56,1.548-0.82
		c0.878-0.454,1.757-0.877,2.632-1.292l0.477-0.229c0.328-0.158,0.656-0.316,0.984-0.463c1.005-0.453,2.004-0.868,3.002-1.271
		c0.691-0.277,1.377-0.541,2.061-0.794c0.201-0.074,0.4-0.143,0.599-0.211l0.592-0.208l16.237,9.373l-0.981,0.375
		c-4.774,1.824-9.696,4.266-14.627,7.258l-0.254,0.154l-16.446-9.496L198.521,61.036z M195.697,62.691l16.416,9.478l-16.416,9.477
		l-16.417-9.477L195.697,62.691z M178.037,72.886l16.416,9.478l-16.465,9.507l-16.416-9.479L178.037,72.886z M160.329,83.108
		l16.417,9.479l-16.37,9.452l-0.251-0.146c-5.59-3.261-10.643-6.166-15.443-8.88l-0.762-0.431L160.329,83.108z M142.676,93.301
		l0.248,0.14c4.641,2.619,9.555,5.44,15.467,8.877l0.745,0.435l-15.796,9.121l-0.258-0.167c-5.004-3.262-10.331-6.148-15.832-8.581
		l-0.9-0.398L142.676,93.301z M125.039,103.483l0.23,0.099c5.486,2.334,10.928,5.209,16.169,8.545l0.695,0.442l-16.253,9.386
		l-0.258-0.173c-4.9-3.27-10.275-6.123-15.978-8.481l-0.938-0.388L125.039,103.483z M107.342,113.7l0.225,0.088
		c5.844,2.298,11.374,5.127,16.435,8.41l0.685,0.444l-16.043,9.259l-0.255-0.161c-5.062-3.187-10.567-5.967-16.364-8.264
		l-0.961-0.381L107.342,113.7z M89.685,123.894l0.222,0.083c5.945,2.24,11.603,4.993,16.814,8.184l0.718,0.438l-17.515,10.112
		l-0.254-0.155c-5.114-3.134-10.372-6.074-15.627-8.738l-0.822-0.417L89.685,123.894z M71.945,134.135l0.24,0.12
		c5.232,2.609,10.549,5.545,15.799,8.722l0.725,0.438l-16.83,9.713l-0.249-0.143c-5.636-3.212-10.667-6.133-15.38-8.931
		l-0.734-0.436L71.945,134.135z M54.272,144.338l0.252,0.149c4.569,2.721,9.589,5.643,15.347,8.934l0.756,0.432l-16.348,9.438
		l-16.422-9.476L54.272,144.338z M36.615,154.531l16.422,9.478l-16.467,9.507l-16.418-9.479L36.615,154.531z M2.49,174.234
		l16.417-9.479l16.419,9.479l-16.419,9.479L2.49,174.234z M36.627,193.942l-16.475-9.513l16.418-9.478l17.402,10.047l-0.863,0.406
		c-6.012,2.833-11.32,5.578-16.232,8.394L36.627,193.942z M54.275,204.132l-16.392-9.465l0.765-0.431
		c5.077-2.857,10.443-5.597,16.404-8.369l0.236-0.11l15.246,8.805l-0.763,0.432c-5.731,3.231-10.718,6.171-15.243,8.98
		L54.275,204.132z M71.869,214.29l-16.357-9.443l0.713-0.44c4.666-2.879,9.679-5.814,15.325-8.979l0.248-0.139l15.149,8.749
		l-0.815,0.419c-4.872,2.506-9.579,5.734-13.993,9.597L71.869,214.29z M89.577,224.512l-16.563-9.564l0.536-0.46
		c4.589-3.933,9.456-7.155,14.467-9.582l0.238-0.114l16.181,9.343l-0.792,0.425c-4.497,2.413-9.14,5.685-13.797,9.721
		L89.577,224.512z M107.221,234.698l-16.496-9.523l0.537-0.459c4.805-4.104,9.578-7.377,14.188-9.731l0.242-0.124l16.19,9.35
		l-0.78,0.427c-4.787,2.617-9.367,5.919-13.61,9.815L107.221,234.698z M124.938,244.926l-16.575-9.567l0.512-0.46
		c4.427-3.986,9.155-7.292,14.055-9.82l0.242-0.125l16.427,9.482l-0.78,0.427c-4.695,2.567-9.274,5.871-13.609,9.818
		L124.938,244.926z M126.074,245.583l0.514-0.461c4.438-3.968,9.175-7.266,14.083-9.803l0.243-0.125l17.044,9.843l-0.657,0.447
		c-0.91,0.62-1.816,1.242-2.729,1.871c-3.419,2.358-7.294,5.032-11.658,7.651l-0.253,0.15L126.074,245.583z M131.529,250.168
		l16.416,9.478l-6.801,3.929l-0.238-0.112c-5.008-2.388-9.826-5.645-14.322-9.68l-0.514-0.46L131.529,250.168z M124.939,253.974
		l0.271,0.248c4.331,3.969,8.972,7.231,13.793,9.697l0.818,0.419l-15.554,8.979l-0.22-0.081c-5.04-1.857-10.129-4.969-15.124-9.246
		l-0.537-0.46L124.939,253.974z M107.244,264.191l0.269,0.236c4.719,4.127,9.593,7.247,14.485,9.271l0.938,0.389l-10.701,6.176
		l-0.186-0.039c-5.959-1.228-12.512-3.29-20.033-6.307l-0.955-0.383L107.244,264.191z M89.688,274.326l0.228,0.094
		c7.18,2.958,13.563,5.073,19.514,6.468l1.229,0.288L91.004,292.52l-0.225-0.089c-5.303-2.112-10.962-4.855-16.82-8.152l-0.765-0.43
		L89.688,274.326z M71.941,284.57l0.25,0.145c5.661,3.238,11.234,5.99,16.563,8.178l0.941,0.387L71.677,303.68l-0.247-0.137
		c-5.164-2.855-10.293-5.895-15.245-9.031l-0.698-0.441L71.941,284.57z M54.262,294.777l0.256,0.164
		c4.797,3.064,9.889,6.104,15.135,9.034l0.768,0.43l-16.141,9.319l-16.419-9.479L54.262,294.777z M36.617,304.965l16.417,9.477
		l-16.464,9.507l-16.418-9.478L36.617,304.965z M2.49,324.666l16.417-9.479l16.419,9.479l-16.416,9.478L2.49,324.666z
		 M20.152,334.863l16.417-9.477l16.468,9.506l-16.42,9.477L20.152,334.863z M54.276,354.562l-16.413-9.478l16.416-9.476
		l16.282,9.398L69.8,345.44c-5.655,3.199-10.65,6.132-15.27,8.966L54.276,354.562z M71.939,364.761l-16.421-9.481l0.72-0.438
		c4.715-2.878,9.729-5.812,15.334-8.964l0.248-0.141l16.705,9.643l-0.738,0.436c-5.126,3.021-10.375,5.985-15.602,8.813
		L71.939,364.761z M89.693,375.012l-16.496-9.524l0.783-0.427c5.186-2.825,10.408-5.794,15.521-8.822l0.251-0.148l18.515,10.687
		l-0.771,0.429c-5.454,3.035-11.372,5.639-17.59,7.735L89.693,375.012z M107.354,385.207l-16.24-9.378l1.019-0.362
		c6.036-2.153,11.794-4.791,17.112-7.839l0.249-0.145l15.774,9.104l-0.719,0.438c-5.23,3.2-10.942,5.926-16.977,8.103
		L107.354,385.207z M125.037,395.416l-16.291-9.403l0.982-0.374c5.873-2.24,11.42-4.996,16.488-8.191l0.256-0.161l15.645,9.034
		l-0.697,0.442c-5.248,3.331-10.684,6.209-16.153,8.556L125.037,395.416z M142.673,405.599l-16.329-9.426l0.896-0.399
		c5.475-2.438,10.799-5.328,15.823-8.593l0.257-0.167l15.818,9.135l-0.746,0.436c-5.744,3.342-10.805,6.244-15.471,8.876
		L142.673,405.599z M160.323,415.791l-16.403-9.472l0.762-0.431c4.888-2.762,9.941-5.665,15.448-8.877l0.251-0.146l15.607,9.014
		l-0.662,0.446c-5.27,3.563-10.096,6.611-14.752,9.32L160.323,415.791z M161.555,416.502l0.737-0.437
		c4.724-2.786,9.648-5.921,14.64-9.318l0.259-0.177l17.263,9.968l-16.416,9.479L161.555,416.502z M195.697,436.214l-16.416-9.478
		l16.416-9.479l16.413,9.479L195.697,436.214z M213.356,426.019l-16.413-9.478l16.195-9.355l0.247,0.137
		c4.764,2.629,10.295,5.691,15.665,8.767l0.755,0.432L213.356,426.019z M231.057,415.796l-0.25-0.145
		c-5.149-2.967-10.546-5.956-15.632-8.765l-0.775-0.429l16.607-9.589l0.25,0.146c2.905,1.689,5.925,3.414,9.079,5.213
		c2.066,1.18,4.207,2.401,6.387,3.656l0.752,0.433L231.057,415.796z M248.723,405.598l-0.25-0.145
		c-2.586-1.489-5.092-2.923-7.52-4.305c-2.756-1.573-5.391-3.08-7.953-4.563l-0.75-0.434l0.75-0.433
		c5.439-3.144,10.881-6.285,16.322-9.425l0.277-0.16l0.262,0.187c4.369,3.111,9.127,6.172,14.547,9.358l0.742,0.435L248.723,405.598
		z M266.387,395.401l-0.25-0.146c-5.441-3.16-10.25-6.222-14.701-9.359l-0.639-0.45l16.826-9.717l0.266,0.199
		c4.295,3.233,9.088,6.438,14.244,9.521l0.73,0.438L266.387,395.401z M284.098,385.176l-0.252-0.148
		c-5.207-3.07-10.063-6.274-14.434-9.522l-0.611-0.454l15.91-9.188l0.26,0.183c4.459,3.108,9.428,6.214,14.769,9.229l0.764,0.431
		L284.098,385.176z M301.754,374.981l-0.248-0.139c-5.506-3.063-10.406-6.072-14.984-9.198l-0.655-0.449l16.176-9.338l0.254,0.156
		c4.25,2.627,9.07,5.496,15.174,9.028l0.748,0.435L301.754,374.981z M319.459,364.757l-0.25-0.146
		c-6.107-3.526-10.945-6.395-15.225-9.023l-0.238-0.146v-0.779l0.367-0.001l14.934-8.62l0.246,0.132
		c4.75,2.551,10.344,5.577,15.801,8.688l0.756,0.433L319.459,364.757z M337.107,354.567l-0.25-0.144
		c-5.406-3.108-10.969-6.115-15.756-8.689l-0.791-0.425l16.807-9.701l16.416,9.478L337.107,354.567z M354.775,344.366l-16.416-9.478
		l16.461-9.503l16.418,9.479L354.775,344.366z M372.484,334.144l-16.418-9.478l16.42-9.479l16.416,9.479L372.484,334.144z
		 M406.598,311.653c-5.268,4.618-10.723,8.698-16.217,12.125l-0.254,0.159l-16.473-9.513l0.693-0.443
		c5.411-3.454,10.776-7.529,15.94-12.112l0.271-0.238l16.563,9.563L406.598,311.653z M424.383,293.2
		c-5.049,6.145-10.438,11.821-16.016,16.874l-0.271,0.245l-16.563-9.563l0.502-0.46c5.574-5.11,10.904-10.768,15.842-16.813
		l0.27-0.329l16.609,9.59L424.383,293.2z M441.994,267.383c-4.699,8.415-10.144,16.506-16.174,24.049l-0.271,0.335l-16.602-9.587
		l0.36-0.454c5.963-7.495,11.363-15.546,16.052-23.929l0.245-0.442l16.628,9.599L441.994,267.383z M455.326,236.314
		c-2.912,9.667-7.037,19.454-12.258,29.091l-0.244,0.451l-16.629-9.599l0.231-0.428c5.187-9.563,9.306-19.275,12.244-28.869
		l0.187-0.602l16.584,9.574L455.326,236.314z M459.738,197.56c0.311,2.694,0.469,5.519,0.469,8.393
		c0,8.769-1.418,18.236-4.217,28.144l-0.176,0.618l-16.586-9.575l0.108-0.375c2.945-10.242,4.438-20.005,4.438-29.016
		c0-2.157-0.109-4.421-0.336-6.919l-0.086-0.96l16.354,9.44L459.738,197.56z M436.611,164.876c0.58,0.187,1.146,0.377,1.705,0.591
		c0.229,0.088,0.45,0.184,0.676,0.279l0.332,0.141c0.412,0.171,0.824,0.343,1.229,0.532l0.051,0.023
		c0.017,0.008,0.031,0.016,0.05,0.022l0.284,0.141c0.656,0.325,1.3,0.671,1.912,1.031c8.713,5.117,14.406,14.479,16.47,27.072
		l0.172,1.042l-16.32-9.424l-0.033-0.243c-1.086-8.146-3.598-15.063-7.463-20.56l-0.854-1.217L436.611,164.876z M434.65,162.89
		l-2.699-0.442c-1.752-0.286-3.672-0.446-5.705-0.476l-0.857-0.011l-0.196-0.066l-15.423-8.906l2.336,0.244
		c4.361,0.457,8.392,1.652,11.98,3.556L434.65,162.89z M416.969,152.677l-2.672-0.425c-2.002-0.319-4.131-0.48-6.326-0.48
		l-0.311,0.001l-15.568-8.985l2.336,0.243c4.408,0.461,8.478,1.678,12.098,3.617L416.969,152.677z M399.297,142.475l-2.67-0.425
		c-2.01-0.32-4.141-0.482-6.332-0.482l-0.311,0.001l-15.568-8.989l2.338,0.244c4.457,0.469,8.563,1.707,12.203,3.683
		L399.297,142.475z M381.631,132.271l-2.674-0.426c-2.016-0.321-4.145-0.484-6.324-0.484l-0.328,0.001l-15.563-8.986l2.342,0.248
		c4.521,0.477,8.676,1.743,12.349,3.762L381.631,132.271z M363.969,122.075l-2.682-0.432c-2.02-0.325-4.156-0.489-6.35-0.489
		l-0.31,0.001l-15.563-8.986l2.344,0.248c4.568,0.482,8.76,1.77,12.455,3.825L363.969,122.075z M346.297,111.872l-2.686-0.435
		c-2.021-0.326-4.172-0.492-6.394-0.492h-0.271l-15.562-8.981l2.345,0.248c4.627,0.488,8.86,1.799,12.584,3.896L346.297,111.872z
		 M328.623,101.667l-2.684-0.434c-2.031-0.328-4.187-0.494-6.4-0.494h-0.27l-15.56-8.979l2.347,0.25
		c4.704,0.5,8.989,1.839,12.733,3.979L328.623,101.667z M310.953,91.463l-2.682-0.433c-2.047-0.329-4.209-0.496-6.429-0.496h-0.25
		l-15.561-8.985l2.35,0.252c4.773,0.511,9.107,1.879,12.882,4.063L310.953,91.463z M293.293,81.267l-2.699-0.439
		c-2.027-0.332-4.199-0.5-6.449-0.5v-0.499l0,0l-0.1,0.499h-0.135l-15.549-8.979l2.352,0.252c4.813,0.518,9.172,1.899,12.953,4.108
		L293.293,81.267z M265.541,65.25l0.439,0.245l9.645,5.571l-2.695-0.439c-2.043-0.333-4.223-0.502-6.477-0.502v-0.499l0,0
		l-0.08,0.499h-0.135l-15.562-8.985l2.355,0.254c4.627,0.5,8.831,1.797,12.506,3.858L265.541,65.25z M243.256,52.967l0.213,0.08
		c0.646,0.238,1.277,0.494,1.873,0.761c0.203,0.087,0.412,0.18,0.617,0.275c0.697,0.33,1.318,0.646,1.887,0.961v-0.002l0.566,0.309
		l9.547,5.514l-2.705-0.444c-2.031-0.333-4.213-0.503-6.48-0.503v-0.499l0,0l-0.08,0.499h-0.135l-15.547-8.977l2.625,0.28
		c0.512,0.053,1.021,0.107,1.519,0.188l0.252,0.036c1.846,0.307,3.657,0.763,5.393,1.356
		C242.951,52.854,243.104,52.911,243.256,52.967z"/>
	<circle fill="#FFFFFF" cx="212.442" cy="7.735" r="5.577"/>
	<g>
		<path fill="#FFFFFF" d="M236.77,9.919l-4.487-9.64h3.807l1.242,3.308c0.401,1.122,0.783,2.164,1.203,3.326h0.08
			c0.422-1.162,0.819-2.204,1.241-3.326l1.242-3.308h3.748l-4.51,9.64v5.271h-3.566V9.919z"/>
		<path fill="#FFFFFF" d="M245.248,7.655c0-4.89,2.768-7.654,6.836-7.654c4.066,0,6.832,2.786,6.832,7.654
			c0,4.891-2.766,7.815-6.832,7.815C248.016,15.471,245.248,12.545,245.248,7.655z M255.27,7.655c0-2.886-1.223-4.589-3.186-4.589
			c-1.965,0-3.168,1.704-3.168,4.589c0,2.906,1.203,4.729,3.168,4.729C254.047,12.385,255.27,10.561,255.27,7.655z"/>
		<path fill="#FFFFFF" d="M261.605,8.176V0.28h3.565v8.277c0,2.826,0.843,3.828,2.486,3.828c1.62,0,2.522-1.002,2.522-3.828V0.28
			h3.447v7.896c0,5.03-2.006,7.294-5.971,7.294C263.67,15.471,261.605,13.207,261.605,8.176z"/>
	</g>
	<path fill="#FFFFFF" d="M193.102,232.739c-1.609-0.077-2.859-0.202-4.522-0.504c-1.626-6.626-7.771-33.128-10.617-66.158
		c-3.04-35.288-2.835-85.523,15.401-124.452l6.338,2.97c-33.736,72.018-4.021,187.224-3.787,188.146
		C195.086,232.817,194.211,232.792,193.102,232.739z"/>
	<polygon fill="#FFFFFF" points="183.248,40.366 204.211,25.274 206.8,50.973 	"/>
</g>
</svg>
