<?xml version="1.0" encoding="utf-8"?>
<!-- Generator: Adobe Illustrator 16.0.0, SVG Export Plug-In . SVG Version: 6.00 Build 0)  -->
<!DOCTYPE svg PUBLIC "-//W3C//DTD SVG 1.1//EN" "http://www.w3.org/Graphics/SVG/1.1/DTD/svg11.dtd">
<svg version="1.1" id="beer" xmlns="http://www.w3.org/2000/svg" xmlns:xlink="http://www.w3.org/1999/xlink" x="0px" y="0px"
	 width="31.318px" height="115.446px" viewBox="0 0 31.318 115.446" enable-background="new 0 0 31.318 115.446"
	 xml:space="preserve">
<g>
	<polygon fill="#DDDDDD" points="29.378,100.531 29.38,100.532 29.38,100.038 	"/>
	<path fill="#222222" d="M25.163,41.326l-2.559-30.95c0.341-0.057,0.657-0.222,0.891-0.482c0.289-0.324,0.432-0.757,0.388-1.189
		l-0.736-6.99C23.038,0.735,22.221,0,21.239,0H9.497C8.516,0,7.694,0.735,7.591,1.714L6.854,8.702
		C6.809,9.134,6.949,9.565,7.239,9.894c0.25,0.278,0.595,0.447,0.967,0.49L6.064,41.391C2.25,44.351,0,48.909,0,53.76v55.845
		c0,3.222,2.62,5.842,5.845,5.842h19.629c3.222,0,5.845-2.62,5.845-5.842V53.76C31.318,48.873,29.03,44.284,25.163,41.326z"/>
</g>
<path fill="#DDDDDD" d="M25.163,41.326l-2.559-30.95c0.341-0.057,0.657-0.222,0.891-0.482c0.289-0.324,0.432-0.757,0.388-1.189
	l-0.736-6.99C23.038,0.735,22.221,0,21.239,0H9.497C8.516,0,7.694,0.735,7.591,1.714L6.854,8.702
	C6.809,9.134,6.949,9.565,7.239,9.894c0.25,0.278,0.595,0.447,0.967,0.49L6.064,41.391C2.25,44.351,0,48.909,0,53.76v55.845
	c0,3.222,2.62,5.842,5.845,5.842h19.629c3.222,0,5.845-2.62,5.845-5.842V53.76C31.318,48.873,29.03,44.284,25.163,41.326z
	 M29.443,71.444c-3.736,0.225-6.705,3.325-6.705,7.114s2.969,6.889,6.705,7.114v14.873c-0.022-0.001-0.042-0.013-0.065-0.013h-7.19
	c-3.175,0-5.758-2.582-5.758-5.758V61.057c0-3.175,2.583-5.759,5.758-5.759h7.256V71.444z M29.443,73.34v10.435
	c-2.699-0.224-4.829-2.464-4.829-5.217C24.614,75.803,26.744,73.564,29.443,73.34z M9.497,1.874L21.28,1.911l0.696,6.616H8.76
	L9.497,1.874z M25.474,113.573H5.845c-2.19,0-3.972-1.779-3.972-3.969V53.76c0-4.536,2.237-8.781,5.985-11.36L7.874,42.4l2.2-31.87
	h10.662l2.625,31.76l0.169-0.014l-0.08,0.117c3.659,2.515,5.863,6.62,5.973,11.03h-7.235c-4.21,0-7.633,3.423-7.633,7.634v33.717
	c0,4.21,3.423,7.635,7.633,7.635h7.19c0.023,0,0.043-0.012,0.065-0.013v7.209C29.443,111.794,27.661,113.573,25.474,113.573z"/>
</svg>
