<?xml version="1.0" encoding="utf-8"?>
<!-- Generator: Adobe Illustrator 16.0.0, SVG Export Plug-In . SVG Version: 6.00 Build 0)  -->
<!DOCTYPE svg PUBLIC "-//W3C//DTD SVG 1.1//EN" "http://www.w3.org/Graphics/SVG/1.1/DTD/svg11.dtd">
<svg version="1.1" id="beer" xmlns="http://www.w3.org/2000/svg" xmlns:xlink="http://www.w3.org/1999/xlink" x="0px" y="0px"
	 width="40.752px" height="115.749px" viewBox="0 0 40.752 115.749" enable-background="new 0 0 40.752 115.749"
	 xml:space="preserve">
<path fill="#222222" d="M40.341,45.633c-0.008-0.006-0.012-0.014-0.02-0.02l-4.148-2.637c-2.341-1.484-3.966-4.254-4.346-7.406
	c-0.185-1.539-1.305-2.755-2.755-3.162l0.069-0.594c0.552-4.804-0.368-9.572-2.632-13.877h0.671c3.924,0,7.113-3.191,7.113-7.114
	v-0.757h-7.403C26.579,6.584,24.153,0,20.468,0c-3.537,0-6.285,6.317-6.611,10.066H6.457v0.757c0,3.923,3.191,7.114,7.115,7.114
	h0.604l-0.049,0.094c-1.966,3.828-2.878,8.098-2.633,12.344l0.117,2.04c-1.424,0.41-2.53,1.601-2.728,3.103
	c-0.419,3.176-2.075,5.979-4.43,7.5l-4.03,2.6c-0.012,0.007-0.017,0.019-0.027,0.027L0,45.79v64.783c0,1.357,0.876,2.535,2.18,2.932
	c2.764,0.84,8.843,2.244,18.532,2.244c9.617,0,15.356-1.393,17.921-2.221c1.268-0.408,2.119-1.58,2.119-2.912V45.756L40.341,45.633z
	"/>
<g>
	<path fill="#DDDDDD" d="M40.341,45.633c-0.008-0.006-0.012-0.014-0.02-0.02l-4.148-2.637c-2.341-1.484-3.966-4.254-4.346-7.406
		c-0.185-1.539-1.305-2.755-2.755-3.162l0.069-0.594c0.552-4.804-0.368-9.572-2.632-13.877h0.671c3.924,0,7.113-3.191,7.113-7.114
		v-0.757h-7.403C26.579,6.584,24.153,0,20.468,0c-3.537,0-6.285,6.317-6.611,10.066H6.457v0.757c0,3.923,3.191,7.114,7.115,7.114
		h0.604l-0.049,0.094c-1.966,3.828-2.878,8.098-2.633,12.344l0.117,2.04c-1.424,0.41-2.53,1.601-2.728,3.103
		c-0.419,3.176-2.075,5.979-4.43,7.5l-4.03,2.6c-0.012,0.007-0.017,0.019-0.027,0.027L0,45.79v64.783
		c0,1.357,0.876,2.535,2.18,2.932c2.764,0.84,8.843,2.244,18.532,2.244c9.617,0,15.356-1.393,17.921-2.221
		c1.268-0.408,2.119-1.58,2.119-2.912V45.756L40.341,45.633z M20.468,1.516c2.275,0,4.586,5.113,4.907,8.502h-9.994
		C15.726,6.682,18.159,1.516,20.468,1.516z M8.021,11.58h24.708c-0.372,2.733-2.718,4.846-5.549,4.846H13.572
		C10.739,16.426,8.393,14.313,8.021,11.58z M15.475,18.723l0.352-0.686h9.036c2.356,4.188,3.317,8.884,2.776,13.602l-0.033,0.281
		H13.101l-0.096-1.633C12.776,26.311,13.631,22.312,15.475,18.723z M10.385,35.713c0.146-1.109,1.132-1.947,2.292-1.947h15.353
		c1.172,0,2.16,0.854,2.296,1.986c0.433,3.6,2.316,6.777,5.034,8.504l0.747,0.474c-3.34-0.548-8.74-1.154-16.311-1.154
		c-7.091,0-11.964,0.533-15.049,1.053l0.527-0.34C7.999,42.53,9.91,39.325,10.385,35.713z M39.237,110.616
		c0,0.674-0.429,1.268-1.068,1.473c-2.481,0.801-8.049,2.146-17.457,2.146c-9.495,0-15.409-1.365-18.092-2.18
		c-0.66-0.199-1.106-0.797-1.106-1.482V46.879c1.621-0.459,7.275-1.791,18.282-1.791c11.146,0,17.613,1.365,19.441,1.814V110.616z"
		/>
	<path fill="#DDDDDD" d="M13.979,54.077c-1.498,0.732-3.102,1.143-4.771,1.221l-4.579,0.229v44.521h31.813v-44.52l-4.376-0.227
		c-1.771-0.08-3.532-0.555-5.101-1.375l-2.355-1.23c-2.111-1.105-5.454-1.146-7.61-0.092L13.979,54.077z M23.91,54.038l2.354,1.232
		c1.765,0.92,3.745,1.455,5.729,1.543l2.935,0.152v41.57H6.146v-41.57l3.135-0.156c1.875-0.088,3.678-0.551,5.363-1.371l3.021-1.477
		C19.406,53.114,22.207,53.147,23.91,54.038z"/>
	<path fill="#DDDDDD" d="M13.062,59.999c0,0.418,0.339,0.758,0.757,0.758h13.244c0.419,0,0.758-0.34,0.758-0.758
		s-0.339-0.756-0.758-0.756H13.818C13.4,59.243,13.062,59.581,13.062,59.999z"/>
	<path fill="#DDDDDD" d="M27.063,92.086H13.818c-0.418,0-0.757,0.34-0.757,0.756c0,0.418,0.339,0.758,0.757,0.758h13.244
		c0.419,0,0.758-0.34,0.758-0.758C27.82,92.426,27.481,92.086,27.063,92.086z"/>
	<path fill="#DDDDDD" d="M20.376,66.659c-5.1,0-9.248,4.148-9.248,9.246c0,5.102,4.148,9.25,9.248,9.25s9.248-4.148,9.248-9.25
		C29.624,70.807,25.476,66.659,20.376,66.659z M20.376,83.489c-4.182,0-7.583-3.402-7.583-7.584s3.401-7.582,7.583-7.582
		s7.583,3.4,7.583,7.582S24.558,83.489,20.376,83.489z"/>
</g>
</svg>
