<?xml version="1.0" encoding="utf-8"?>
<!-- Generator: Adobe Illustrator 16.0.0, SVG Export Plug-In . SVG Version: 6.00 Build 0)  -->
<!DOCTYPE svg PUBLIC "-//W3C//DTD SVG 1.1//EN" "http://www.w3.org/Graphics/SVG/1.1/DTD/svg11.dtd">
<svg version="1.1" id="beer" xmlns="http://www.w3.org/2000/svg" xmlns:xlink="http://www.w3.org/1999/xlink" x="0px" y="0px"
	 width="28.862px" height="130.957px" viewBox="0 0 28.862 130.957" enable-background="new 0 0 28.862 130.957"
	 xml:space="preserve">
<path fill="#222222" d="M28.861,46.917c-0.006-0.078-0.683-7.796-7.85-9.604V3.237C21.012,1.453,19.56,0,17.774,0H10.57
	C8.785,0,7.333,1.453,7.333,3.237v34.105c0,0.035,0.016,0.065,0.02,0.099c-6.404,2.06-7.312,8.998-7.348,9.298L0,125.476
	c0,3.02,2.459,5.481,5.481,5.481h17.9c3.022,0,5.48-2.462,5.48-5.481L28.861,46.917z"/>
<g>
	<path fill="#DDDDDD" d="M7.608,76.829c0,0.402,0.325,0.729,0.728,0.729h12.587c0.402,0,0.729-0.326,0.729-0.729
		s-0.327-0.728-0.729-0.728H8.336C7.934,76.102,7.608,76.427,7.608,76.829z"/>
	<path fill="#DDDDDD" d="M11.526,72.668h6.207c0.403,0,0.729-0.326,0.729-0.729c0-0.403-0.325-0.729-0.729-0.729h-6.207
		c-0.402,0-0.729,0.325-0.729,0.729C10.798,72.342,11.124,72.668,11.526,72.668z"/>
	<path fill="#DDDDDD" d="M17.474,84.876h-5.688c-0.403,0-0.729,0.326-0.729,0.73c0,0.402,0.326,0.729,0.729,0.729h5.688
		c0.403,0,0.73-0.327,0.73-0.729C18.204,85.202,17.877,84.876,17.474,84.876z"/>
	<path fill="#DDDDDD" d="M28.861,46.917c-0.006-0.078-0.683-7.796-7.85-9.604V3.237C21.012,1.453,19.56,0,17.774,0H10.57
		C8.785,0,7.333,1.453,7.333,3.237v34.105c0,0.035,0.016,0.065,0.02,0.099c-6.404,2.06-7.312,8.998-7.348,9.298L0,125.476
		c0,3.02,2.459,5.481,5.481,5.481h17.9c3.022,0,5.48-2.462,5.48-5.481L28.861,46.917z M19.554,10.772H8.791V9.858h10.763V10.772z
		 M8.791,12.229h10.763v25.072L8.791,37.28V12.229z M10.57,1.458h7.204c0.981,0,1.779,0.799,1.779,1.779V8.4H8.791V3.237
		C8.791,2.257,9.589,1.458,10.57,1.458z M27.405,125.476c0,2.217-1.805,4.021-4.023,4.021h-17.9c-2.219,0-4.023-1.804-4.023-4.021
		V46.873c0.076-0.531,1.057-6.534,6.594-8.138l12.663,0.004c6.083,1.576,6.671,8.016,6.69,8.234V125.476z"/>
	<path fill="#DDDDDD" d="M20.575,62.864c0.047-1.889-0.525-3.5-1.658-4.661c-1.125-1.155-2.754-1.79-4.585-1.79
		s-3.46,0.635-4.585,1.79c-1.133,1.161-1.706,2.774-1.658,4.661c0.007,0.23,0.022,0.462,0.049,0.695H4.16l1.477,33.722h17.392
		l1.476-33.722h-3.978C20.553,63.326,20.568,63.095,20.575,62.864z M22.979,65.018L21.632,95.82h-14.6L5.685,65.018H9.9
		l-0.192-0.884c-0.096-0.441-0.15-0.879-0.16-1.307c-0.039-1.486,0.391-2.733,1.242-3.606c0.85-0.87,2.107-1.352,3.542-1.352
		s2.692,0.481,3.542,1.352c0.851,0.873,1.281,2.12,1.242,3.606c-0.01,0.428-0.064,0.865-0.16,1.307l-0.192,0.884H22.979z"/>
</g>
</svg>
