<?xml version="1.0" encoding="utf-8"?>
<!-- Generator: Adobe Illustrator 16.0.0, SVG Export Plug-In . SVG Version: 6.00 Build 0)  -->
<!DOCTYPE svg PUBLIC "-//W3C//DTD SVG 1.1//EN" "http://www.w3.org/Graphics/SVG/1.1/DTD/svg11.dtd">
<svg version="1.1" id="beer" xmlns="http://www.w3.org/2000/svg" xmlns:xlink="http://www.w3.org/1999/xlink" x="0px" y="0px"
	 width="41.507px" height="131.228px" viewBox="0 0 41.507 131.228" enable-background="new 0 0 41.507 131.228"
	 xml:space="preserve">
<path fill="#222222" d="M34.745,43.582c0.028-0.233-0.032-0.475-0.202-0.661c-0.659-0.72-1.313-1.144-1.894-1.521
	c-1.23-0.799-2.119-1.376-2.351-4.846c-0.067-1.004-0.125-1.976-0.178-2.916h0.781l-0.021-5.242
	c-0.011-2.685-0.261-5.388-0.742-8.026l-0.871-4.771c0.407-0.012,0.795-0.187,1.064-0.497c0.279-0.318,0.408-0.74,0.352-1.161
	l-0.74-5.633c0.509-0.377,0.844-0.977,0.844-1.657v-4.58c0-1.143-0.93-2.071-2.07-2.071H12.777c-1.141,0-2.07,0.929-2.07,2.071v4.58
	c0,0.608,0.27,1.15,0.688,1.529l-0.757,5.761c-0.055,0.421,0.072,0.843,0.352,1.161c0.27,0.31,0.657,0.484,1.064,0.497l-0.871,4.771
	c-0.481,2.639-0.731,5.342-0.742,8.027l-0.021,5.241h0.914c-0.054,0.974-0.114,1.984-0.184,3.025
	c-0.231,3.472-1.121,4.047-2.352,4.846c-0.578,0.379-1.234,0.804-1.893,1.521c-0.156,0.171-0.226,0.39-0.215,0.604
	C2.62,46.889,0,51.886,0,57.492v66.25c0,4.13,3.357,7.485,7.484,7.485h26.537c4.126,0,7.485-3.355,7.485-7.485v-66.25
	C41.507,51.855,38.855,46.834,34.745,43.582z"/>
<g>
	<path fill="#DDDDDD" d="M34.745,43.582c0.028-0.233-0.032-0.475-0.202-0.661c-0.659-0.72-1.313-1.144-1.894-1.521
		c-1.23-0.799-2.119-1.376-2.351-4.846c-0.067-1.004-0.125-1.976-0.178-2.916h0.781l-0.021-5.242
		c-0.011-2.685-0.261-5.388-0.742-8.026l-0.871-4.771c0.407-0.012,0.795-0.187,1.064-0.497c0.279-0.318,0.408-0.74,0.352-1.161
		l-0.74-5.633c0.509-0.377,0.844-0.977,0.844-1.657v-4.58c0-1.143-0.93-2.071-2.07-2.071H12.777c-1.141,0-2.07,0.929-2.07,2.071
		v4.58c0,0.608,0.27,1.15,0.688,1.529l-0.757,5.761c-0.055,0.421,0.072,0.843,0.352,1.161c0.27,0.31,0.657,0.484,1.064,0.497
		l-0.871,4.771c-0.481,2.639-0.731,5.342-0.742,8.027l-0.021,5.241h0.914c-0.054,0.974-0.114,1.984-0.184,3.025
		c-0.231,3.472-1.121,4.047-2.352,4.846c-0.578,0.379-1.234,0.804-1.893,1.521c-0.156,0.171-0.226,0.39-0.215,0.604
		C2.62,46.889,0,51.886,0,57.492v66.25c0,4.13,3.357,7.485,7.484,7.485h26.537c4.126,0,7.485-3.355,7.485-7.485v-66.25
		C41.507,51.855,38.855,46.834,34.745,43.582z M12.371,2.071c0-0.226,0.182-0.407,0.406-0.407h15.939
		c0.225,0,0.408,0.182,0.408,0.407v4.58c0,0.224-0.184,0.406-0.408,0.406H12.777c-0.225,0-0.406-0.183-0.406-0.406V2.071z
		 M12.957,9.065h15.408l0.643,4.877H12.314L12.957,9.065z M12.104,28.405c0.012-2.592,0.252-5.193,0.715-7.735l0.895-4.893h13.898
		l0.893,4.893c0.463,2.542,0.704,5.144,0.715,7.733l0.014,3.573H12.09L12.104,28.405z M12.81,36.772
		c0.072-1.078,0.135-2.127,0.19-3.134h15.455c0.054,0.973,0.114,1.984,0.185,3.026c0.131,1.964,0.473,3.209,0.986,4.1
		c-1.839-0.646-3.806-1.016-5.862-1.016h-6.021c-2.056,0-4.022,0.37-5.86,1.016C12.362,39.881,12.684,38.66,12.81,36.772z
		 M39.844,123.742c0,3.21-2.612,5.823-5.822,5.823H7.484c-3.211,0-5.822-2.613-5.822-5.823v-6.772h38.182V123.742z M39.844,115.31
		H1.662V62.139h38.182V115.31z M39.844,60.476H1.662v-2.983c0-8.866,7.213-16.083,16.08-16.083h6.021
		c8.866,0,16.08,7.217,16.08,16.083V60.476z"/>
	<path fill="#DDDDDD" d="M20.078,87.896c6.461,0,11.523-3.138,11.523-7.146c0-4.005-5.063-7.146-11.523-7.146
		c-6.462,0-11.523,3.141-11.523,7.146C8.555,84.759,13.616,87.896,20.078,87.896z M20.078,75.271c5.344,0,9.859,2.51,9.859,5.48
		c0,2.973-4.516,5.483-9.859,5.483c-5.346,0-9.861-2.511-9.861-5.483C10.217,77.78,14.732,75.271,20.078,75.271z"/>
	<path fill="#DDDDDD" d="M5.766,93.21h29.103c0.458,0,0.831-0.373,0.831-0.833c0-0.459-0.373-0.829-0.831-0.829H5.766
		c-0.459,0-0.832,0.37-0.832,0.829C4.934,92.837,5.307,93.21,5.766,93.21z"/>
	<path fill="#DDDDDD" d="M5.766,99.241h29.103c0.458,0,0.831-0.371,0.831-0.831c0-0.458-0.373-0.831-0.831-0.831H5.766
		c-0.459,0-0.832,0.373-0.832,0.831C4.934,98.87,5.307,99.241,5.766,99.241z"/>
</g>
</svg>
