<?xml version="1.0" encoding="utf-8"?>
<!-- Generator: Adobe Illustrator 16.0.0, SVG Export Plug-In . SVG Version: 6.00 Build 0)  -->
<!DOCTYPE svg PUBLIC "-//W3C//DTD SVG 1.1//EN" "http://www.w3.org/Graphics/SVG/1.1/DTD/svg11.dtd">
<svg version="1.1" id="beer" xmlns="http://www.w3.org/2000/svg" xmlns:xlink="http://www.w3.org/1999/xlink" x="0px" y="0px"
	 width="27.221px" height="101.006px" viewBox="0 0 27.221 101.006" enable-background="new 0 0 27.221 101.006"
	 xml:space="preserve">
<path fill="#222222" d="M24.733,44.597l-2.247-5.993l-0.614-1.796c-1.511-4.404-2.509-7.313-2.997-11.883l-0.527-8.232
	c0-0.008-0.005-0.014-0.006-0.022v-0.38c0.02-0.046,0.046-0.089,0.055-0.141c0.023-0.134-0.006-0.259-0.055-0.375V5.747
	c0.262-0.354,0.422-0.787,0.422-1.259V4.253c0-0.573-0.23-1.093-0.601-1.476c0.004-0.03,0.018-0.056,0.018-0.087V1.916
	C18.181,0.859,17.294,0,16.203,0h-5.862C9.25,0,8.363,0.859,8.363,1.916V2.69c0,0.05,0.019,0.095,0.028,0.142
	C8.051,3.21,7.837,3.705,7.837,4.253v0.234c0,0.557,0.22,1.061,0.571,1.44V16.75l-0.512,8.649c-0.354,3.396-1.279,6.292-2.26,9.36
	c-0.418,1.308-0.85,2.657-1.243,4.065l-2.319,7.151c-1.449,5.18-1.892,10.178-2.021,15.686c-0.001,0.011-0.007,0.021-0.007,0.032
	c0,0.01,0.005,0.018,0.006,0.027C0.01,63.495,0,65.318,0,67.221v28.944c0,2.253,1.761,4.119,4.094,4.347l0.578,0.056
	c2.996,0.291,6.01,0.438,9.025,0.438c3.157,0,6.316-0.158,9.451-0.479c2.321-0.236,4.072-2.104,4.072-4.346V67.807
	C27.221,60.643,27.029,52.356,24.733,44.597z"/>
<g>
	<path fill="#DDDDDD" d="M17.939,76.247H9.044c-0.376,0-0.681,0.304-0.681,0.681c0,0.375,0.305,0.681,0.681,0.681h8.896
		c0.377,0,0.68-0.306,0.68-0.681C18.619,76.551,18.316,76.247,17.939,76.247z"/>
	<path fill="#DDDDDD" d="M24.733,44.597l-2.247-5.993l-0.614-1.796c-1.511-4.404-2.509-7.313-2.997-11.883l-0.527-8.232
		c0-0.008-0.005-0.014-0.006-0.022v-0.38c0.02-0.046,0.046-0.089,0.055-0.141c0.023-0.134-0.006-0.259-0.055-0.375V5.747
		c0.262-0.354,0.422-0.787,0.422-1.259V4.253c0-0.573-0.23-1.093-0.601-1.476c0.004-0.03,0.018-0.056,0.018-0.087V1.916
		C18.181,0.859,17.294,0,16.203,0h-5.862C9.25,0,8.363,0.859,8.363,1.916V2.69c0,0.05,0.019,0.095,0.028,0.142
		C8.051,3.21,7.837,3.705,7.837,4.253v0.234c0,0.557,0.22,1.061,0.571,1.44V16.75l-0.512,8.649c-0.354,3.396-1.279,6.292-2.26,9.36
		c-0.418,1.308-0.85,2.657-1.243,4.065l-2.319,7.151c-1.449,5.18-1.892,10.178-2.021,15.686c-0.001,0.011-0.007,0.021-0.007,0.032
		c0,0.01,0.005,0.018,0.006,0.027C0.01,63.495,0,65.318,0,67.221v28.944c0,2.253,1.761,4.119,4.094,4.347l0.578,0.056
		c2.996,0.291,6.01,0.438,9.025,0.438c3.157,0,6.316-0.158,9.451-0.479c2.321-0.236,4.072-2.104,4.072-4.346V67.807
		C27.221,60.643,27.029,52.356,24.733,44.597z M1.362,67.221c0-1.673,0.011-3.276,0.041-4.844h24.393
		c0.052,1.86,0.063,3.679,0.063,5.43v25.437c-0.02-0.001-0.036-0.011-0.057-0.011H1.362V67.221z M17.402,4.253v0.234
		c0,0.424-0.345,0.77-0.769,0.77H9.967c-0.424,0-0.77-0.346-0.77-0.77V4.253c0-0.424,0.346-0.769,0.77-0.769h6.667
		C17.058,3.484,17.402,3.829,17.402,4.253z M9.77,15.264V6.652h7.212v8.583c-0.902-0.121-2.382-0.285-3.823-0.288
		C11.669,14.951,10.437,15.143,9.77,15.264z M9.779,16.648c0.529-0.104,1.805-0.334,3.382-0.339c0.008,0,0.017,0,0.025,0
		c1.45,0,2.969,0.183,3.795,0.299v0.199c0,0.027,0.013,0.051,0.016,0.078l0.162,2.531c-0.867-0.122-2.435-0.309-3.973-0.309
		c-0.009,0-0.019,0-0.028,0c-1.414,0.001-2.736,0.169-3.542,0.291L9.779,16.648z M10.341,1.362h5.862
		c0.341,0,0.615,0.248,0.615,0.554v0.227c-0.062-0.005-0.121-0.019-0.185-0.019H9.967c-0.083,0-0.162,0.015-0.242,0.024V1.916
		C9.725,1.61,10.001,1.362,10.341,1.362z M3.377,46.37l2.319-7.15c0.395-1.41,0.823-2.75,1.237-4.047
		c1.002-3.135,1.949-6.097,2.32-9.664l0.279-4.718c0.713-0.114,2.127-0.321,3.628-0.323c0.008,0,0.017,0,0.025,0
		c1.619,0,3.335,0.228,4.062,0.336l0.271,4.236c0.507,4.751,1.525,7.717,3.066,12.209l0.619,1.812l2.239,5.968
		c1.543,5.22,2.099,10.736,2.3,15.985H1.437C1.585,55.875,2.033,51.178,3.377,46.37z M23.01,99.172
		c-6.038,0.618-12.163,0.631-18.205,0.041l-0.578-0.057c-1.633-0.158-2.864-1.445-2.864-2.991v-1.573h24.44
		c0.021,0,0.037-0.01,0.057-0.011v1.6C25.859,97.72,24.633,99.005,23.01,99.172z"/>
</g>
</svg>
