<?xml version="1.0" encoding="utf-8"?>
<!-- Generator: Adobe Illustrator 16.0.0, SVG Export Plug-In . SVG Version: 6.00 Build 0)  -->
<!DOCTYPE svg PUBLIC "-//W3C//DTD SVG 1.1//EN" "http://www.w3.org/Graphics/SVG/1.1/DTD/svg11.dtd">
<svg version="1.1" id="beer" xmlns="http://www.w3.org/2000/svg" xmlns:xlink="http://www.w3.org/1999/xlink" x="0px" y="0px"
	 width="45.465px" height="172.238px" viewBox="0 0 45.465 172.238" enable-background="new 0 0 45.465 172.238"
	 xml:space="preserve">
<path fill="#222222" d="M37.694,51.796c-3.141-3.141-3.818-3.867-4.418-6.862c-0.501-2.499-1.056-20.762-1.304-31.069
	c0.251-0.044,0.493-0.144,0.709-0.3c0.438-0.318,0.701-0.831,0.708-1.373l0.045-4.526c0.01-0.878-0.465-1.674-1.237-2.085
	c0.055-1.125,0.038-2.592-0.346-3.293C30.996,0.715,26.348,0,22.392,0c-0.053,0-0.098,0.023-0.148,0.03
	c-3.882,0.039-8.296,0.752-9.127,2.28c-0.386,0.707-0.402,2.183-0.351,3.299c-0.77,0.413-1.242,1.205-1.233,2.083l0.047,4.521
	c0.005,0.542,0.269,1.055,0.705,1.373c0.257,0.188,0.563,0.281,0.874,0.307c-0.247,10.277-0.806,28.721-1.311,31.232
	c-0.608,3.051-1.295,3.74-4.597,7.041L7.25,52.168c-0.077,0.077-0.125,0.171-0.174,0.263C2.722,56.575,0,62.419,0,68.891v94.28
	c0,5.001,4.067,9.067,9.064,9.067h27.335c4.997,0,9.065-4.066,9.065-9.067v-94.28C45.465,62.081,42.452,55.966,37.694,51.796z"/>
<g>
	<path fill="#DDDDDD" d="M37.694,51.796c-3.141-3.141-3.818-3.867-4.418-6.862c-0.501-2.499-1.056-20.762-1.304-31.069
		c0.251-0.044,0.493-0.144,0.709-0.3c0.438-0.318,0.701-0.831,0.708-1.373l0.045-4.526c0.01-0.878-0.465-1.674-1.237-2.085
		c0.055-1.125,0.038-2.592-0.346-3.293C30.996,0.715,26.348,0,22.392,0c-0.053,0-0.098,0.023-0.148,0.03
		c-3.882,0.039-8.296,0.752-9.127,2.28c-0.386,0.707-0.402,2.183-0.351,3.299c-0.77,0.413-1.242,1.205-1.233,2.083l0.047,4.521
		c0.005,0.542,0.269,1.055,0.705,1.373c0.257,0.188,0.563,0.281,0.874,0.307c-0.247,10.277-0.806,28.721-1.311,31.232
		c-0.608,3.051-1.295,3.74-4.597,7.041L7.25,52.168c-0.077,0.077-0.125,0.171-0.174,0.263C2.722,56.575,0,62.419,0,68.891v94.28
		c0,5.001,4.067,9.067,9.064,9.067h27.335c4.997,0,9.065-4.066,9.065-9.067v-94.28C45.465,62.081,42.452,55.966,37.694,51.796z
		 M17.361,6.396l0.085-0.017c0.02-0.005,1.767-0.417,5.087-0.454c0.139-0.003,0.271-0.003,0.4-0.003
		c3.007,0,4.528,0.415,4.539,0.419l0.137,0.031c1.587,0.25,2.81,0.763,3.558,1.151c0.042,0.022,0.068,0.068,0.068,0.123
		l-0.039,3.875c-0.531-0.158-1.145-0.33-1.707-0.464c-2.117-0.504-4.422-0.61-6.538-0.699l-1.856,0.057
		c-1.824,0.105-3.709,0.213-5.618,0.668c-0.554,0.131-1.169,0.305-1.703,0.464l-0.04-3.878c0-0.052,0.027-0.099,0.07-0.123
		C14.549,7.161,15.772,6.649,17.361,6.396z M15.371,13.381c0.208-0.056,0.415-0.11,0.613-0.157c1.723-0.41,3.43-0.506,5.207-0.609
		l1.745-0.059c1.934,0.087,4.13,0.186,6.045,0.642c0.251,0.06,0.515,0.13,0.779,0.203c0.068,2.922,0.356,14.415,0.728,22.871
		c-1.46-0.333-4.274-0.811-8.46-0.83c-3.622,0.007-5.939,0.315-7.375,0.634C15.025,27.443,15.312,15.887,15.371,13.381z
		 M22.576,2.228c0.031,0,0.058-0.015,0.088-0.018c4.343,0.034,6.73,0.827,7.266,1.189c0.055,0.239,0.082,0.725,0.082,1.293
		c-0.601-0.189-1.258-0.365-2.003-0.486c-0.387-0.101-2.221-0.531-5.502-0.485c-3.328,0.039-5.2,0.432-5.528,0.506
		c-0.756,0.121-1.421,0.298-2.028,0.49c0-0.581,0.028-1.072,0.082-1.289C15.563,3.063,18.029,2.228,22.576,2.228z M14.01,45.557
		c0.186-0.93,0.37-3.67,0.539-7.186c1.068-0.299,3.307-0.718,7.483-0.726c0.035,0,0.068,0,0.102,0c4.703,0,7.538,0.661,8.461,0.917
		c0.165,3.331,0.343,5.91,0.522,6.806c0.221,1.104,0.469,1.968,0.798,2.732c-2.811-1.246-5.916-1.944-9.183-1.944
		c-3.392,0-6.609,0.752-9.503,2.089C13.549,47.492,13.793,46.641,14.01,45.557z M43.263,163.171c0,3.784-3.08,6.865-6.863,6.865
		H9.064c-3.784,0-6.863-3.081-6.863-6.865v-94.28c0-11.322,9.209-20.53,20.531-20.53c11.321,0,20.53,9.208,20.53,20.53V163.171z"/>
	<path fill="#DDDDDD" d="M3.842,141.65H41.35V75.943H3.842V141.65z M6.044,78.145h33.104v61.306H6.044V78.145z"/>
	<path fill="#DDDDDD" d="M11.7,100.413h19.52c0.606,0,1.104-0.491,1.104-1.102c0-0.606-0.497-1.101-1.104-1.101H11.7
		c-0.608,0-1.1,0.494-1.1,1.101C10.601,99.922,11.092,100.413,11.7,100.413z"/>
	<path fill="#DDDDDD" d="M24.456,104.264c0-0.607-0.493-1.102-1.104-1.102H11.7c-0.608,0-1.1,0.494-1.1,1.102
		c0,0.609,0.491,1.1,1.1,1.1h11.651C23.963,105.363,24.456,104.873,24.456,104.264z"/>
	<path fill="#DDDDDD" d="M11.7,88.057h19.52c0.606,0,1.104-0.494,1.104-1.101c0-0.608-0.497-1.101-1.104-1.101H11.7
		c-0.608,0-1.1,0.492-1.1,1.101C10.601,87.563,11.092,88.057,11.7,88.057z"/>
	<path fill="#DDDDDD" d="M11.7,93.008h11.651c0.611,0,1.104-0.492,1.104-1.101c0-0.609-0.493-1.103-1.104-1.103H11.7
		c-0.608,0-1.1,0.493-1.1,1.103C10.601,92.516,11.092,93.008,11.7,93.008z"/>
	<path fill="#DDDDDD" d="M32.72,131H12.904c-0.608,0-1.1,0.494-1.1,1.104c0,0.608,0.491,1.099,1.1,1.099H32.72
		c0.606,0,1.103-0.49,1.103-1.099C33.822,131.494,33.326,131,32.72,131z"/>
</g>
</svg>
