<?xml version="1.0" encoding="utf-8"?>
<!-- Generator: Adobe Illustrator 16.0.0, SVG Export Plug-In . SVG Version: 6.00 Build 0)  -->
<!DOCTYPE svg PUBLIC "-//W3C//DTD SVG 1.1//EN" "http://www.w3.org/Graphics/SVG/1.1/DTD/svg11.dtd">
<svg version="1.1" id="beer" xmlns="http://www.w3.org/2000/svg" xmlns:xlink="http://www.w3.org/1999/xlink" x="0px" y="0px"
	 width="37.81px" height="89.807px" viewBox="0 0 37.81 89.807" enable-background="new 0 0 37.81 89.807" xml:space="preserve">
<path fill="#222222" d="M37.753,53.221c0.041-5.197,0.074-9.299,0.047-10.137c-0.081-2.402-0.193-3.895-1.571-6.652
	c-1.09-2.176-0.762-4.504-0.523-6.205c0.03-0.221,0.061-0.432,0.084-0.627c0.281-2.247,0.323-4.534-0.388-8.401
	c-0.794-4.316-2.729-7.08-5.751-8.219c-1.162-0.438-2.279-0.605-3.266-0.754c-0.366-0.056-0.72-0.109-1.049-0.172
	c0.023-0.119,0.038-0.248,0.038-0.389c0-0.607,0.004-1.788,0.008-2.492h0.281l0.771-6.977c0.114-0.528-0.012-1.072-0.346-1.501
	C25.741,0.256,25.22,0,24.656,0H12.465c-0.563,0-1.085,0.256-1.432,0.696c-0.337,0.429-0.461,0.978-0.344,1.507l0.895,6.971h0.173
	c0.003,0.408,0.011,1.095,0.032,1.801c0.037,1.177,0.44,1.754,0.815,2.036c-0.391,5.387-2.353,10.128-5.837,14.092
	c-0.439,0.499-0.9,0.978-1.363,1.456c-0.683,0.706-1.386,1.434-2.018,2.231c-2.879,3.639-3.11,7.506-3.114,12.186
	c-0.001,2.773-0.052,6.354-0.11,10.496C0.041,62.032-0.11,72.686,0.12,81.387c0.074,2.918,0.605,6.127,5.965,7.281
	c4.631,0.996,7.252,1.139,12.062,1.139c0.253,0,0.512-0.004,0.776-0.004c4.418-0.01,12.743-0.594,15.929-2.715
	c2.665-1.773,3.095-3.135,2.873-9.107C37.583,74.178,37.683,62.065,37.753,53.221z M30.431,28.492
	c-0.14,0.052-0.462-0.111-0.841-0.608c-1.86-2.433-3.617-6.312-3.08-9.082c0.175-0.895,0.756-1.279,1.244-1.341
	c0.605-0.079,1.187,0.291,1.521,0.992c1.157,2.43,1.512,5.44,1.72,8.335C31.061,27.686,30.712,28.385,30.431,28.492z"/>
<g>
	<path fill="#DDDDDD" d="M37.753,53.221c0.041-5.197,0.074-9.299,0.047-10.137c-0.081-2.402-0.193-3.895-1.571-6.652
		c-1.09-2.176-0.762-4.504-0.523-6.205c0.03-0.221,0.061-0.432,0.084-0.627c0.281-2.247,0.323-4.534-0.388-8.401
		c-0.794-4.316-2.729-7.08-5.751-8.219c-1.162-0.438-2.279-0.605-3.266-0.754c-0.366-0.056-0.72-0.109-1.049-0.172
		c0.023-0.119,0.038-0.248,0.038-0.389c0-0.607,0.004-1.788,0.008-2.492h0.281l0.771-6.977c0.114-0.528-0.012-1.072-0.346-1.501
		C25.741,0.256,25.22,0,24.656,0H12.465c-0.563,0-1.085,0.256-1.432,0.696c-0.337,0.429-0.461,0.978-0.344,1.507l0.895,6.971h0.173
		c0.003,0.408,0.011,1.095,0.032,1.801c0.037,1.177,0.44,1.754,0.815,2.036c-0.391,5.387-2.353,10.128-5.837,14.092
		c-0.439,0.499-0.9,0.978-1.363,1.456c-0.683,0.706-1.386,1.434-2.018,2.231c-2.879,3.639-3.11,7.506-3.114,12.186
		c-0.001,2.773-0.052,6.354-0.11,10.496C0.041,62.032-0.11,72.686,0.12,81.387c0.074,2.918,0.605,6.127,5.965,7.281
		c4.631,0.996,7.252,1.139,12.062,1.139c0.253,0,0.512-0.004,0.776-0.004c4.418-0.01,12.743-0.594,15.929-2.715
		c2.665-1.773,3.095-3.135,2.873-9.107C37.583,74.178,37.683,62.065,37.753,53.221z M1.675,53.493
		c0.05-3.48,0.093-6.557,0.107-9.104c1.796,0.302,7.609,1.141,16.854,1.141c8.954,0,15.487-0.814,17.659-1.125
		c0,1.751-0.025,4.979-0.057,8.805c-0.061,7.432-0.138,17.151-0.078,22.36c-1.744,0.3-8.23,1.294-17.524,1.294
		c-10.356,0-16.495-1.097-17.099-1.209C1.468,68.293,1.579,60.246,1.675,53.493z M12.225,1.63c0.035-0.042,0.109-0.114,0.24-0.114
		h12.191c0.129,0,0.205,0.072,0.239,0.115c0.035,0.043,0.086,0.135,0.056,0.26L24.31,7.658H12.916l-0.732-5.686L12.17,1.891
		C12.14,1.766,12.191,1.674,12.225,1.63z M4.574,31.731c0.584-0.74,1.232-1.412,1.92-2.119c0.479-0.498,0.957-0.994,1.411-1.511
		c3.748-4.265,5.84-9.367,6.223-15.17c0.03-0.454-0.2-0.876-0.613-1.13c-0.05-0.035-0.194-0.271-0.212-0.873
		c-0.021-0.687-0.028-1.354-0.031-1.754h10.595c-0.004,0.707-0.009,1.887-0.009,2.492c0,0.018,0,0.031,0,0.044l-0.531,0.099
		l-0.028,0.602c-0.031,0.662,0.659,0.857,0.987,0.951c0.585,0.168,1.212,0.262,1.874,0.361c0.956,0.143,1.944,0.293,2.957,0.674
		c2.527,0.953,4.097,3.266,4.796,7.076c0.675,3.677,0.639,5.832,0.376,7.94c-0.023,0.188-0.055,0.391-0.082,0.604
		c-0.252,1.791-0.632,4.496,0.667,7.094c1.244,2.486,1.335,3.783,1.403,5.768c-1.857,0.274-8.435,1.14-17.64,1.14
		c-9.497,0-15.458-0.922-16.848-1.164C1.796,38.39,2.017,34.963,4.574,31.731z M34.014,85.829
		c-2.511,1.672-9.584,2.447-15.093,2.463c-5.322,0.012-7.768-0.08-12.518-1.104c-4.303-0.924-4.7-3.098-4.771-5.842
		c-0.035-1.338-0.06-2.734-0.078-4.152c1.507,0.265,7.435,1.181,17.082,1.181c8.989,0,15.433-0.926,17.549-1.276
		c0.008,0.348,0.017,0.668,0.026,0.938C36.432,83.969,35.938,84.547,34.014,85.829z"/>
	<path fill="#DDDDDD" d="M30.361,30.018c0.243,0,0.449-0.051,0.606-0.111c1-0.379,1.645-1.737,1.536-3.228
		c-0.22-3.041-0.598-6.222-1.861-8.876c-0.619-1.299-1.794-2.001-3.078-1.843c-1.273,0.16-2.27,1.163-2.541,2.556
		c-0.63,3.244,1.235,7.506,3.363,10.288C29.126,29.768,29.831,30.018,30.361,30.018z M26.51,18.802
		c0.175-0.895,0.756-1.279,1.244-1.341c0.605-0.079,1.187,0.291,1.521,0.992c1.157,2.43,1.512,5.44,1.72,8.335
		c0.066,0.897-0.282,1.597-0.563,1.704c-0.14,0.052-0.462-0.111-0.841-0.608C27.729,25.451,25.973,21.572,26.51,18.802z"/>
	<path fill="#DDDDDD" d="M30.177,63.059c0-0.418-0.337-0.756-0.756-0.756H7.566c-0.417,0-0.756,0.338-0.756,0.756
		s0.339,0.758,0.756,0.758h21.854C29.84,63.817,30.177,63.477,30.177,63.059z"/>
</g>
</svg>
