<?xml version="1.0" encoding="utf-8"?>
<!-- Generator: Adobe Illustrator 16.0.0, SVG Export Plug-In . SVG Version: 6.00 Build 0)  -->
<!DOCTYPE svg PUBLIC "-//W3C//DTD SVG 1.1//EN" "http://www.w3.org/Graphics/SVG/1.1/DTD/svg11.dtd">
<svg version="1.1" id="圖層_1" xmlns="http://www.w3.org/2000/svg" xmlns:xlink="http://www.w3.org/1999/xlink" x="0px" y="0px"
	 width="64.721px" height="277.442px" viewBox="0 0 64.721 277.442" enable-background="new 0 0 64.721 277.442"
	 xml:space="preserve">
<g>
	<path d="M59.721,119.441c-1.279,0-2.56-0.488-3.535-1.464L1.465,63.256c-1.953-1.953-1.953-5.119,0-7.071L56.186,1.464
		c1.951-1.952,5.119-1.952,7.07,0c1.953,1.953,1.953,5.119,0,7.071L12.071,59.721l51.185,51.185c1.953,1.953,1.953,5.119,0,7.071
		C62.28,118.953,61,119.441,59.721,119.441z"/>
	<path d="M5,277.442c-1.279,0-2.56-0.488-3.535-1.465c-1.953-1.952-1.953-5.118,0-7.07l51.185-51.186L1.465,166.536
		c-1.953-1.953-1.953-5.119,0-7.071c1.951-1.952,5.119-1.952,7.07,0l54.721,54.721c1.953,1.952,1.953,5.118,0,7.07L8.535,275.977
		C7.56,276.954,6.279,277.442,5,277.442z"/>
</g>
</svg>
