<?xml version="1.0" encoding="utf-8"?>
<!-- Generator: Adobe Illustrator 16.0.0, SVG Export Plug-In . SVG Version: 6.00 Build 0)  -->
<!DOCTYPE svg PUBLIC "-//W3C//DTD SVG 1.1//EN" "http://www.w3.org/Graphics/SVG/1.1/DTD/svg11.dtd">
<svg version="1.1" xmlns="http://www.w3.org/2000/svg" xmlns:xlink="http://www.w3.org/1999/xlink" x="0px" y="0px"
	 width="61.556px" height="23.5px" viewBox="0 0 61.556 23.5" enable-background="new 0 0 61.556 23.5" xml:space="preserve">
<g id="background">
</g>
<g id="圖層_1">
	<g>
		<path fill="#333333" d="M58.44,16.566c0.623,2.164-1.278,3.935-4.225,3.935H7.34c-2.946,0-4.848-1.771-4.225-3.935l2.771-9.631
			C6.508,4.771,9.428,3,12.375,3h36.807c2.945,0,5.867,1.771,6.489,3.935L58.44,16.566z"/>
		<path fill="#FFFFFF" d="M61.323,15.737l-2.77-9.63C57.554,2.625,53.524,0,49.182,0H12.375C8.032,0,4.003,2.625,3.003,6.105
			l-2.771,9.63c-0.506,1.755-0.178,3.583,0.899,5.015C2.447,22.498,4.71,23.5,7.34,23.5h46.876c2.63,0,4.893-1.002,6.208-2.75
			C61.501,19.319,61.829,17.491,61.323,15.737z M54.216,17.5h-6.313v-3.521c0-1.553-1.259-2.813-2.813-2.813
			s-2.813,1.259-2.813,2.813V17.5H33.59v-3.521c0-1.553-1.259-2.813-2.813-2.813s-2.813,1.259-2.813,2.813V17.5h-8.688v-3.521
			c0-1.553-1.259-2.813-2.813-2.813s-2.813,1.259-2.813,2.813V17.5H7.34c-0.686,0-1.101-0.159-1.294-0.271l2.723-9.466
			C8.943,7.158,10.482,6,12.375,6h36.807c1.893,0,3.432,1.158,3.606,1.764l2.721,9.465C55.315,17.342,54.9,17.5,54.216,17.5z"/>
	</g>
</g>
</svg>
