<?xml version="1.0" encoding="utf-8"?>
<!-- Generator: Adobe Illustrator 16.0.0, SVG Export Plug-In . SVG Version: 6.00 Build 0)  -->
<!DOCTYPE svg PUBLIC "-//W3C//DTD SVG 1.1//EN" "http://www.w3.org/Graphics/SVG/1.1/DTD/svg11.dtd">
<svg version="1.1" xmlns="http://www.w3.org/2000/svg" xmlns:xlink="http://www.w3.org/1999/xlink" x="0px" y="0px"
	 width="118.125px" height="310.236px" viewBox="0 0 118.125 310.236" enable-background="new 0 0 118.125 310.236"
	 xml:space="preserve">
<g id="background">
	<path fill="#333333" d="M0,0v310.236h21.185l-0.055-2c-1.811,0-3.608-0.234-5.345-0.698c-2.984-0.795-5.75-2.28-7.999-4.297
		c-3.625-3.25-5.625-7.563-5.63-12.144L2,152.671c-0.02-18.14,11.929-37.298,23.102-43.812l3.07-1.791l0.366-3.536
		c1.727-16.689,3.762-32.978,5.882-47.076l0.029-0.176c1.045-6.944,2.106-13.297,3.152-18.881l0.738-3.939l-3.023-2.631
		c-1.427-1.242-2.247-3.022-2.25-4.884L33.049,8.342c-0.002-1.418,0.489-2.754,1.356-3.859h-0.089
		c1.197-1.561,2.729-2.416,4.348-2.419L78.967,2c1.619,0,3.321,0.922,4.588,2.408h-0.033c0.07,0.082,0.157,0.154,0.222,0.239
		c0.771,1.014,1.102,2.203,0.931,3.348l-0.078,0.52l0.02,17.003l0.075,0.65c0.178,1.204-0.171,2.45-0.984,3.51
		c-0.296,0.388-0.659,0.755-1.076,1.091l-3.27,2.632l0.781,4.125c1.682,8.875,3.392,19.646,5.085,32.011
		c1.478,10.803,2.855,22.218,4.095,33.931l0.375,3.534l3.075,1.783c11.186,6.488,23.176,25.62,23.198,43.759l0.154,138.426
		c0.005,4.584-1.985,8.9-5.604,12.156c-3.593,3.236-8.348,5.022-13.388,5.029l-75.95,0.082l0.002,2h96.94V0H0z"/>
</g>
<g id="圖層_1">
	<g>
		<path fill="#FFFFFF" d="M21.185,310.236l75.95-0.082c5.534-0.008,10.765-1.977,14.725-5.543c4.047-3.641,6.271-8.486,6.266-13.645
			l-0.154-138.426c-0.022-18.828-12.528-38.72-24.194-45.486l-2.196-1.273l-0.268-2.524c-1.244-11.753-2.625-23.188-4.103-33.991
			c-1.7-12.421-3.415-23.211-5.102-32.113l-0.558-2.946l2.336-1.88c0.542-0.437,1.017-0.919,1.41-1.433
			c1.145-1.493,1.632-3.275,1.374-5.018l-0.054-0.36l-0.02-16.853l0.056-0.372c0.252-1.684-0.216-3.408-1.317-4.855
			C83.748,1.348,80.989,0,78.306,0L39.33,0.043c-2.208,0.003-4.288,0.87-5.854,2.44c-1.568,1.571-2.43,3.653-2.427,5.861
			l0.019,17.604c0.003,2.44,1.073,4.77,2.937,6.391l2.159,1.879l-0.527,2.814c-1.046,5.583-2.111,11.96-3.164,18.952l-0.024,0.147
			h0.001c-2.129,14.149-4.169,30.47-5.899,47.197l-0.262,2.525l-2.193,1.279C12.441,113.925-0.021,133.847,0,152.673L0.156,291.1
			c0.006,5.156,2.242,9.998,6.295,13.631c2.483,2.227,5.533,3.865,8.819,4.74c1.902,0.508,3.873,0.766,5.859,0.766H21.185z
			 M6.573,143.827c3.169-15.171,13.773-29.081,21.69-32.554l0.958-0.421l10.328-0.011c0.753-0.001,1.458-0.295,1.989-0.826
			c0.53-0.531,0.822-1.238,0.821-1.988c-0.002-1.549-1.263-2.81-2.81-2.81h-0.005l-7.55,0.006l0.593-5.537
			c1.276-11.913,2.677-23.364,4.163-34.038l2.335-15.6c1.107-6.867,2.193-12.854,3.234-17.85c0.016-0.079,0.027-0.167,0.037-0.257
			l0.004-0.056c0.009-0.112,0.018-0.198,0.017-0.282c0-0.088-0.003-0.145-0.007-0.197l-0.047-0.338
			c-0.027-0.11-0.042-0.174-0.06-0.237l-0.12-0.333c-0.024-0.059-0.053-0.115-0.081-0.172l-0.037-0.075
			c-0.022-0.039-0.044-0.077-0.067-0.115l-0.247-0.33l-0.092-0.107l-0.196-0.19c-0.017-0.015-0.049-0.043-0.085-0.075l-0.115-0.09
			c-0.069-0.052-0.225-0.15-0.385-0.23l-0.572-0.222l-3.572-0.951L36.671,5.669l44.303-0.047l0.022,22.144l-3.64,1.109l-0.108,0.034
			c-0.078,0.026-0.155,0.056-0.231,0.087l-0.06,0.025c-0.046,0.022-0.092,0.046-0.137,0.07l-0.126,0.065
			c-0.036,0.021-0.072,0.044-0.108,0.067l-0.679,0.635c-0.038,0.05-0.076,0.099-0.103,0.138l-0.08,0.122
			c-0.016,0.025-0.03,0.051-0.045,0.076c-0.018,0.036-0.035,0.071-0.053,0.106c-0.03,0.06-0.059,0.119-0.084,0.178l-0.02,0.049
			h0.001c-0.027,0.072-0.055,0.145-0.079,0.219l-0.117,0.613c-0.006,0.064-0.008,0.129-0.008,0.194
			c-0.001,0.087,0.006,0.155,0.012,0.223l0.013,0.16c0.008,0.076,0.02,0.151,0.035,0.225c1.483,7.045,3.023,15.84,4.578,26.147
			l2.37,16.85c1.412,10.757,2.706,21.879,3.852,33.103c0.116,1.142,0.903,2.088,2.005,2.411c8.16,2.398,19.814,17.035,23.195,33.036
			l1.274,6.027l-107.34,0.121L6.573,143.827z M5.629,155.48l106.719-0.121l0.129,113.75L5.758,269.232L5.629,155.48z
			 M10.208,300.543c-2.849-2.555-4.42-5.91-4.425-9.449l-0.019-16.238l106.715-0.119l0.022,16.234
			c0.003,3.541-1.561,6.9-4.403,9.463c-2.93,2.637-6.824,4.09-10.969,4.096l-75.944,0.084
			C17.025,304.613,13.136,303.168,10.208,300.543z"/>
		<path fill="#FFFFFF" d="M59.063,242.176c-16.267,0-29.5-13.234-29.5-29.5c0-16.267,13.233-29.5,29.5-29.5s29.5,13.233,29.5,29.5
			C88.563,228.941,75.329,242.176,59.063,242.176z M59.063,189.175c-12.958,0-23.5,10.542-23.5,23.5c0,12.957,10.542,23.5,23.5,23.5
			s23.5-10.543,23.5-23.5C82.563,199.717,72.021,189.175,59.063,189.175z"/>
	</g>
</g>
</svg>
