<?xml version="1.0" encoding="utf-8"?>
<!-- Generator: Adobe Illustrator 16.0.0, SVG Export Plug-In . SVG Version: 6.00 Build 0)  -->
<!DOCTYPE svg PUBLIC "-//W3C//DTD SVG 1.1//EN" "http://www.w3.org/Graphics/SVG/1.1/DTD/svg11.dtd">
<svg version="1.1" xmlns="http://www.w3.org/2000/svg" xmlns:xlink="http://www.w3.org/1999/xlink" x="0px" y="0px"
	 width="58.125px" height="152.656px" viewBox="0 0 58.125 152.656" enable-background="new 0 0 58.125 152.656"
	 xml:space="preserve">
<g class="beer">
	<g>
		<g class="beer-piece">
			<g>
				<polygon points="58.049,75.421 55.046,76.447 55.281,76.447 55.339,126.853 58.107,127.353 				"/>
				<polygon points="2.789,94.312 0.022,95.258 0.047,116.853 2.815,117.354 				"/>
			</g>
			<polygon class="broken-line" fill="#00FF6D" points="1.045,94.908 1.048,97.823 57.075,78.67 57.072,75.755 			"/>
			<polygon class="broken-line" fill="#E0001B" points="1.066,114.162 1.069,117.037 57.13,127.176 57.126,124.301 			"/>
		</g>
		<g class="beer-piece">
			<g>
				<path d="M55.339,126.853l0.007,5.566l-52.514,0.061l-0.017-15.126l-2.769-0.501l0.029,26.387
					c0.003,2.538,1.104,4.92,3.098,6.708c1.223,1.096,2.723,1.901,4.34,2.332c0.936,0.25,1.906,0.377,2.883,0.377h0.027l37.372-0.04
					c2.724-0.004,5.297-0.973,7.245-2.728c1.992-1.792,3.086-4.176,3.084-6.714l-0.018-15.822L55.339,126.853z M53.191,147.833
					c-1.441,1.297-3.358,2.012-5.398,2.015l-37.369,0.042c-2.047,0-3.961-0.712-5.401-2.003c-1.401-1.257-2.175-2.908-2.177-4.649
					l-0.01-7.99l52.511-0.059l0.011,7.988C55.359,144.919,54.59,146.571,53.191,147.833z"/>
			</g>
			<polygon class="broken-line" fill="#00FF6D" points="1.069,117.037 1.072,119.976 57.133,130.114 57.13,127.176 			"/>
		</g>
		<g class="beer-piece">
			<g>
				<path d="M18.084,32.304l0.786-5.256l-2.927,0.729c-0.892,5.937-1.749,12.64-2.508,19.578l2.755,0.297
					C16.777,42.296,17.411,37.133,18.084,32.304z"/>
				<path d="M42.912,34.083c-0.639-4.671-1.282-8.868-1.92-12.545l-2.693,0.671c0.346,2,0.694,4.159,1.045,6.482l1.166,8.291
					c0.576,4.389,1.109,8.903,1.598,13.464l2.818,0.304C44.313,44.989,43.637,39.381,42.912,34.083z"/>
			</g>
			<path class="broken-line" fill="#E0001B" d="M14.718,45.075c-0.09,0.792-0.179,1.589-0.266,2.389l29.479,3.179c-0.088-0.821-0.179-1.633-0.269-2.447
				L14.718,45.075z"/>
			<path class="broken-line" fill="#00FF6D" d="M40.04,21.775l-23.021,5.733c-0.01,0.064-0.02,0.124-0.029,0.188c-0.128,0.853-0.256,1.721-0.383,2.602
				l23.867-5.944C40.329,23.47,40.185,22.606,40.04,21.775z"/>
		</g>
		<g class="beer-piece">
			<g>
				<path d="M2.77,76.507l52.276-0.06l3.003-1.026v-0.36c-0.012-9.265-6.165-19.054-11.905-22.383l-1.081-0.626l-0.131-1.243
					c-0.002-0.02-0.004-0.039-0.006-0.058l-2.818-0.304c0.101,0.94,0.201,1.88,0.298,2.824c0.058,0.563,0.444,1.027,0.987,1.188
					c4.015,1.18,9.75,8.382,11.413,16.255l0.627,2.966l-52.817,0.06l0.619-2.967c1.559-7.464,6.777-14.309,10.673-16.018
					l0.472-0.208l5.082-0.005c0.37-0.001,0.717-0.145,0.979-0.406c0.261-0.262,0.404-0.609,0.404-0.979
					c-0.002-0.762-0.621-1.383-1.383-1.383h-0.002l-3.715,0.003l0.291-2.725c0.051-0.472,0.104-0.932,0.155-1.4l-2.755-0.297
					c-0.127,1.158-0.252,2.321-0.373,3.49l-0.128,1.242l-1.079,0.63C6.121,56.059-0.011,65.862,0,75.126l0.022,20.132l2.767-0.946
					L2.77,76.507z"/>
			</g>
			<path class="broken-line" fill="#E0001B" d="M56.978,73.178L1.042,92.299l0.003,2.609l56.027-19.153l-0.001-0.693
				C57.07,74.435,57.034,73.807,56.978,73.178z"/>
			<path class="broken-line" fill="#00FF6D" d="M44.144,52.662l-0.184-1.749c-0.01-0.091-0.02-0.179-0.029-0.27l-29.479-3.179
				c-0.091,0.83-0.18,1.665-0.268,2.5l31.091,3.353L44.144,52.662z"/>
		</g>
		<g class="beer-piece">
			<g>
				<path d="M19.232,24.628c0.545-3.38,1.08-6.325,1.592-8.783c0.008-0.039,0.014-0.083,0.018-0.127l0.002-0.027
					c0.005-0.056,0.01-0.098,0.009-0.14c0-0.043-0.001-0.07-0.003-0.097l-0.023-0.166c-0.014-0.054-0.021-0.086-0.029-0.116
					l-0.059-0.165c-0.013-0.028-0.026-0.057-0.041-0.084l-0.018-0.037c-0.012-0.019-0.021-0.038-0.033-0.057l-0.121-0.162
					l-0.046-0.053l-0.097-0.094c-0.008-0.007-0.023-0.021-0.041-0.037l-0.057-0.044c-0.035-0.026-0.111-0.074-0.189-0.113
					l-0.282-0.109l-1.757-0.468L18.044,2.79l21.8-0.023l0.011,10.896l-1.79,0.546l-0.055,0.016
					c-0.037,0.014-0.076,0.028-0.113,0.044l-0.029,0.012c-0.022,0.011-0.045,0.022-0.067,0.034l-0.062,0.032
					c-0.018,0.011-0.035,0.021-0.054,0.033l-0.334,0.313c-0.019,0.024-0.038,0.049-0.05,0.067l-0.04,0.061
					c-0.008,0.013-0.015,0.025-0.022,0.037c-0.008,0.019-0.018,0.035-0.025,0.053c-0.016,0.029-0.029,0.059-0.041,0.088l-0.01,0.023
					c-0.014,0.036-0.027,0.071-0.039,0.107l-0.057,0.302c-0.004,0.032-0.004,0.063-0.004,0.096
					c-0.001,0.043,0.002,0.077,0.006,0.109l0.006,0.079c0.004,0.037,0.01,0.074,0.018,0.11c0.396,1.878,0.799,4.018,1.207,6.384
					l2.693-0.671c-0.197-1.135-0.395-2.224-0.59-3.257l-0.275-1.449l1.15-0.925c0.267-0.215,0.5-0.452,0.693-0.705
					c0.563-0.735,0.803-1.611,0.676-2.47l-0.025-0.177l-0.01-8.293l0.027-0.183c0.123-0.828-0.106-1.677-0.648-2.39
					C41.209,0.663,39.852,0,38.531,0L19.353,0.021c-1.087,0.001-2.11,0.428-2.881,1.201c-0.772,0.772-1.196,1.797-1.194,2.883
					l0.01,8.662c0.001,1.201,0.527,2.348,1.444,3.145l1.063,0.925l-0.259,1.385c-0.516,2.748-1.039,5.886-1.558,9.326l-0.012,0.072
					h0.001c-0.008,0.051-0.016,0.105-0.023,0.156l2.927-0.729L19.232,24.628z"/>
			</g>
			<g>
				<path class="broken-line" fill="#E0001B" d="M39.606,19.353l-22.18,5.524c-0.136,0.855-0.272,1.731-0.408,2.632l23.021-5.733
					C39.896,20.938,39.751,20.135,39.606,19.353z"/>
			</g>
		</g>
	</g>
</g>
</svg>
